<svg width="30" height="30" viewBox="0 0 30 30" fill="none" xmlns="http://www.w3.org/2000/svg">
<path d="M20.8527 10.0714C21.5847 10.0714 22.1781 9.47801 22.1781 8.74603C22.1781 8.01404 21.5847 7.42065 20.8527 7.42065C20.1207 7.42065 19.5273 8.01404 19.5273 8.74603C19.5273 9.47801 20.1207 10.0714 20.8527 10.0714Z" fill="#333333"/>
<path d="M14.9527 8.84375C13.831 8.84375 12.7345 9.17638 11.8018 9.79957C10.8692 10.4228 10.1422 11.3085 9.71297 12.3449C9.28371 13.3812 9.17139 14.5215 9.39023 15.6217C9.60906 16.7219 10.1492 17.7324 10.9424 18.5256C11.7356 19.3188 12.7461 19.8589 13.8463 20.0778C14.9465 20.2966 16.0868 20.1843 17.1231 19.755C18.1595 19.3258 19.0452 18.5988 19.6684 17.6662C20.2916 16.7335 20.6242 15.637 20.6242 14.5152C20.6242 13.0111 20.0267 11.5685 18.9631 10.5049C17.8995 9.44128 16.4569 8.84375 14.9527 8.84375ZM14.9527 18.1968C14.2246 18.1968 13.5128 17.9809 12.9074 17.5764C12.3019 17.1718 11.83 16.5969 11.5514 15.9241C11.2727 15.2514 11.1998 14.5112 11.3419 13.797C11.4839 13.0828 11.8346 12.4268 12.3495 11.912C12.8643 11.3971 13.5203 11.0464 14.2345 10.9044C14.9487 10.7623 15.6889 10.8352 16.3616 11.1139C17.0344 11.3925 17.6093 11.8644 18.0139 12.4699C18.4184 13.0753 18.6343 13.7871 18.6343 14.5152C18.6343 15.4917 18.2465 16.4281 17.556 17.1185C16.8656 17.809 15.9292 18.1968 14.9527 18.1968Z" fill="#333333"/>
<path d="M14.9549 5.9003C17.9039 5.9003 18.2536 5.91135 19.4179 5.96473C20.1182 5.97304 20.8119 6.10162 21.4686 6.34485C21.945 6.52865 22.3778 6.81016 22.7389 7.17126C23.1 7.53236 23.3815 7.96507 23.5653 8.44152C23.8085 9.09825 23.9371 9.79189 23.9454 10.4922C23.9988 11.6565 24.0098 12.0062 24.0098 14.9561C24.0098 17.906 23.9988 18.2539 23.9454 19.4182C23.9371 20.1185 23.8085 20.8121 23.5653 21.4688C23.3815 21.9453 23.1 22.378 22.7389 22.7391C22.3778 23.1002 21.945 23.3817 21.4686 23.5655C20.8119 23.8087 20.1182 23.9373 19.4179 23.9456C18.2536 23.999 17.9039 24.0101 14.9549 24.0101C12.006 24.0101 11.6562 23.999 10.4919 23.9456C9.79165 23.9373 9.09801 23.8087 8.44128 23.5655C7.96482 23.3817 7.53212 23.1002 7.17102 22.7391C6.80991 22.378 6.52841 21.9453 6.34461 21.4688C6.10138 20.8121 5.9728 20.1185 5.96448 19.4182C5.9111 18.2539 5.90006 17.9041 5.90006 14.9552C5.90006 12.0062 5.9111 11.6565 5.96448 10.4922C5.9728 9.79189 6.10138 9.09825 6.34461 8.44152C6.52841 7.96507 6.80991 7.53236 7.17102 7.17126C7.53212 6.81016 7.96482 6.52865 8.44128 6.34485C9.09801 6.10162 9.79165 5.97304 10.4919 5.96473C11.6562 5.91135 12.006 5.9003 14.9549 5.9003ZM14.9549 3.9104C11.9554 3.9104 11.5789 3.92329 10.4008 3.97667C9.4848 3.99517 8.57856 4.16882 7.7206 4.49025C6.98679 4.77401 6.32036 5.20796 5.76404 5.76428C5.20771 6.32061 4.77376 6.98704 4.49001 7.72085C4.16847 8.5791 3.99482 9.48565 3.97642 10.402C3.92304 11.5801 3.91016 11.9547 3.91016 14.9552C3.91016 17.9557 3.92304 18.3312 3.97642 19.5093C3.99492 20.4253 4.16858 21.3316 4.49001 22.1895C4.77376 22.9233 5.20771 23.5897 5.76404 24.1461C6.32036 24.7024 6.98679 25.1364 7.7206 25.4201C8.57885 25.7416 9.48541 25.9153 10.4017 25.9337C11.5798 25.9871 11.9554 26 14.9549 26C17.9545 26 18.331 25.9871 19.5091 25.9337C20.4254 25.9153 21.3319 25.7416 22.1902 25.4201C22.924 25.1364 23.5904 24.7024 24.1467 24.1461C24.7031 23.5897 25.137 22.9233 25.4208 22.1895C25.742 21.3312 25.9153 20.4247 25.9334 19.5084C25.9868 18.3303 25.9997 17.9557 25.9997 14.9552C25.9997 11.9547 25.9868 11.5792 25.9334 10.401C25.9149 9.48504 25.7413 8.5788 25.4199 7.72085C25.1361 6.98704 24.7022 6.32061 24.1458 5.76428C23.5895 5.20796 22.9231 4.77401 22.1893 4.49025C21.331 4.16903 20.4244 3.99569 19.5081 3.97759C18.33 3.92237 17.9554 3.9104 14.9549 3.9104Z" fill="#333333"/>
</svg>
