<svg width="30" height="30" viewBox="0 0 30 30" fill="none" xmlns="http://www.w3.org/2000/svg">
<path d="M24.375 14.5C24.375 9.14844 20.0391 4.8125 14.6875 4.8125C9.33594 4.8125 5 9.14844 5 14.5C5 18.6406 7.53906 22.1172 11.1328 23.5234C11.0547 22.7812 10.9766 21.6094 11.1719 20.75C11.3672 20.0078 12.3047 15.9453 12.3047 15.9453C12.3047 15.9453 12.0312 15.3594 12.0312 14.5C12.0312 13.1719 12.8125 12.1562 13.7891 12.1562C14.6094 12.1562 15 12.7812 15 13.5234C15 14.3438 14.4531 15.5938 14.1797 16.7656C13.9844 17.7031 14.6875 18.4844 15.625 18.4844C17.3438 18.4844 18.6719 16.6875 18.6719 14.0703C18.6719 11.7266 16.9922 10.125 14.6484 10.125C11.875 10.125 10.2734 12.1953 10.2734 14.3047C10.2734 15.1641 10.5859 16.0625 10.9766 16.5312C11.0547 16.6094 11.0547 16.7266 11.0547 16.8047C10.9766 17.1172 10.7812 17.7812 10.7812 17.8984C10.7422 18.0938 10.625 18.1328 10.4297 18.0547C9.21875 17.4688 8.47656 15.7109 8.47656 14.2656C8.47656 11.2188 10.7031 8.40625 14.8828 8.40625C18.2422 8.40625 20.8594 10.8281 20.8594 14.0312C20.8594 17.3516 18.75 20.0469 15.8203 20.0469C14.8438 20.0469 13.9062 19.5391 13.5938 18.9141C13.5938 18.9141 13.125 20.7891 13.0078 21.2188C12.7734 22.0781 12.1875 23.1328 11.7969 23.7578C12.6953 24.0703 13.6719 24.1875 14.6875 24.1875C20.0391 24.1875 24.375 19.8516 24.375 14.5Z" fill="#333333"/>
</svg>
