<svg width="24" height="25" viewBox="0 0 24 25" fill="none" xmlns="http://www.w3.org/2000/svg">
<g clip-path="url(#clip0)">
<path d="M18.4068 7.03393C19.2021 7.03393 19.8468 6.38922 19.8468 5.59393C19.8468 4.79864 19.2021 4.15393 18.4068 4.15393C17.6115 4.15393 16.9668 4.79864 16.9668 5.59393C16.9668 6.38922 17.6115 7.03393 18.4068 7.03393Z" fill="#333333"/>
<path d="M11.9999 5.83801C10.7812 5.83801 9.58981 6.19941 8.57647 6.8765C7.56313 7.55359 6.77334 8.51596 6.30695 9.64192C5.84056 10.7679 5.71853 12.0068 5.95629 13.2022C6.19406 14.3975 6.78093 15.4954 7.6427 16.3572C8.50447 17.219 9.60244 17.8058 10.7977 18.0436C11.9931 18.2814 13.232 18.1593 14.358 17.693C15.4839 17.2266 16.4463 16.4368 17.1234 15.4234C17.8005 14.4101 18.1619 13.2187 18.1619 12C18.1619 10.3657 17.5127 8.79842 16.3571 7.64282C15.2015 6.48722 13.6342 5.83801 11.9999 5.83801ZM11.9999 16C11.2088 16 10.4354 15.7654 9.77761 15.3259C9.11982 14.8864 8.60713 14.2617 8.30437 13.5307C8.00162 12.7998 7.92241 11.9956 8.07675 11.2197C8.23109 10.4437 8.61206 9.731 9.17147 9.17159C9.73088 8.61217 10.4436 8.23121 11.2195 8.07687C11.9955 7.92253 12.7997 8.00174 13.5306 8.30449C14.2615 8.60724 14.8862 9.11994 15.3258 9.77773C15.7653 10.4355 15.9999 11.2089 15.9999 12C15.9999 13.0609 15.5785 14.0783 14.8283 14.8284C14.0782 15.5786 13.0608 16 11.9999 16Z" fill="#333333"/>
<path d="M12 2.16212C15.204 2.16212 15.584 2.17412 16.849 2.23212C17.6098 2.24115 18.3635 2.38085 19.077 2.64512C19.5947 2.84481 20.0648 3.15067 20.4571 3.543C20.8495 3.93534 21.1553 4.40546 21.355 4.92312C21.6193 5.63665 21.759 6.39028 21.768 7.15112C21.826 8.41612 21.838 8.79612 21.838 12.0011C21.838 15.2061 21.826 15.5841 21.768 16.8491C21.759 17.61 21.6193 18.3636 21.355 19.0771C21.1553 19.5948 20.8495 20.0649 20.4571 20.4572C20.0648 20.8496 19.5947 21.1554 19.077 21.3551C18.3635 21.6194 17.6098 21.7591 16.849 21.7681C15.584 21.8261 15.204 21.8381 12 21.8381C8.796 21.8381 8.416 21.8261 7.151 21.7681C6.39016 21.7591 5.63653 21.6194 4.923 21.3551C4.40534 21.1554 3.93521 20.8496 3.54288 20.4572C3.15055 20.0649 2.84469 19.5948 2.645 19.0771C2.38073 18.3636 2.24103 17.61 2.232 16.8491C2.174 15.5841 2.162 15.2041 2.162 12.0001C2.162 8.79612 2.174 8.41612 2.232 7.15112C2.24103 6.39028 2.38073 5.63665 2.645 4.92312C2.84469 4.40546 3.15055 3.93534 3.54288 3.543C3.93521 3.15067 4.40534 2.84481 4.923 2.64512C5.63653 2.38085 6.39016 2.24115 7.151 2.23212C8.416 2.17412 8.796 2.16212 12 2.16212ZM12 0.00012207C8.741 0.00012207 8.332 0.0141221 7.052 0.0721221C6.05677 0.0922182 5.07216 0.280891 4.14 0.630122C3.34272 0.938419 2.61866 1.4099 2.01422 2.01434C1.40978 2.61878 0.938297 3.34285 0.63 4.14012C0.280658 5.0726 0.0919834 6.05756 0.072 7.05312C0.014 8.33312 0 8.74012 0 12.0001C0 15.2601 0.014 15.6681 0.072 16.9481C0.0920961 17.9433 0.280769 18.928 0.63 19.8601C0.938297 20.6574 1.40978 21.3815 2.01422 21.9859C2.61866 22.5903 3.34272 23.0618 4.14 23.3701C5.07247 23.7195 6.05744 23.9081 7.053 23.9281C8.333 23.9861 8.741 24.0001 12 24.0001C15.259 24.0001 15.668 23.9861 16.948 23.9281C17.9436 23.9081 18.9285 23.7195 19.861 23.3701C20.6583 23.0618 21.3823 22.5903 21.9868 21.9859C22.5912 21.3815 23.0627 20.6574 23.371 19.8601C23.72 18.9276 23.9083 17.9426 23.928 16.9471C23.986 15.6671 24 15.2601 24 12.0001C24 8.74012 23.986 8.33212 23.928 7.05212C23.9079 6.0569 23.7192 5.07228 23.37 4.14012C23.0617 3.34285 22.5902 2.61878 21.9858 2.01434C21.3813 1.4099 20.6573 0.938419 19.86 0.630122C18.9275 0.281122 17.9425 0.0927852 16.947 0.073122C15.667 0.013122 15.26 0.00012207 12 0.00012207Z" fill="#333333"/>
</g>
<defs>
<clipPath id="clip0">
<rect width="24" height="26" fill="white" transform="translate(0 0.00012207)"/>
</clipPath>
</defs>
</svg>
