<svg width="232" height="23" viewBox="0 0 232 23" fill="none" xmlns="http://www.w3.org/2000/svg">
<path d="M5.4303 14.3758V2.8606C5.4303 1.47879 5.62424 1.13939 6.98182 1.13939C7.05455 1.13939 7.05455 0.848485 6.98182 0.848485C6.2303 0.848485 5.33333 0.921211 4.21818 0.921211C3.12727 0.921211 2.08485 0.848485 1.21212 0.848485C1.11515 0.848485 1.11515 1.13939 1.21212 1.13939C2.78788 1.13939 3.07879 1.4303 3.07879 2.81212V15.0303C3.07879 18.4 2.59394 20.6545 0.775758 21.7939C0.678788 21.8667 0.8 22.1091 0.89697 22.0606C4.36364 20.6788 5.4303 18.9818 5.4303 14.3758ZM25.0686 12.2182C24.4867 14.3273 23.1292 15.3697 20.9473 15.3697H19.7595C18.717 15.3697 18.3777 15.0061 18.3777 13.9394V8.43636H20.6807C22.4989 8.43636 23.3958 9.16364 23.3958 10.497C23.3958 10.5939 23.6867 10.5939 23.6867 10.497C23.6867 9.62424 23.614 8.92121 23.614 8.12121C23.614 7.49091 23.6625 7.05455 23.6625 6.01212C23.6625 5.91515 23.3716 5.91515 23.3716 6.01212C23.3716 7.17576 22.4989 7.80606 20.7292 7.80606H18.3777V2.88485C18.3777 1.86667 18.7898 1.47879 19.9777 1.47879H20.9473C22.814 1.47879 23.9292 2.4 24.3413 4.24242C24.3413 4.31515 24.608 4.29091 24.608 4.21818L24.5595 1.06667C24.5595 0.921211 24.511 0.848485 24.3413 0.848485H14.2322C14.1352 0.848485 14.1352 1.13939 14.2322 1.13939C15.808 1.13939 16.0746 1.4303 16.0746 2.81212V14.0364C16.0746 15.4424 15.808 15.7091 14.2322 15.7091C14.1352 15.7091 14.1352 16 14.2322 16H24.7534C25.0443 16 25.117 15.903 25.117 15.6364C25.117 14.5697 25.2383 13.1879 25.3595 12.2667C25.3595 12.1939 25.0928 12.1455 25.0686 12.2182ZM54.0595 0.848485C53.2352 0.848485 52.7989 0.921211 51.9019 0.921211C50.714 0.921211 50.0837 0.848485 49.2595 0.848485C49.1625 0.848485 49.1625 1.13939 49.2595 1.13939C50.6413 1.13939 51.1504 2.18182 50.5443 3.78182L47.0049 12.9697L44.0231 6.66667L45.1625 3.68485C45.8655 1.89091 46.714 1.13939 47.7564 1.13939C47.8534 1.13939 47.8534 0.848485 47.7564 0.848485C47.0292 0.848485 46.6413 0.921211 45.817 0.921211C44.5564 0.921211 44.7261 0.848485 44.2413 0.848485C44.1443 0.848485 44.1443 1.13939 44.2413 1.13939C45.114 1.13939 45.1867 1.89091 44.5322 3.58788L43.6595 5.89091L42.3504 3.12727C41.5746 1.45455 41.5504 1.13939 42.4958 1.13939C42.5686 1.13939 42.5686 0.848485 42.4958 0.848485C41.9625 0.848485 41.3807 0.921211 39.8292 0.921211C38.908 0.921211 38.6898 0.848485 38.1807 0.848485C38.0837 0.848485 38.0837 1.13939 38.1807 1.13939C38.8837 1.13939 39.3443 1.74545 39.8777 2.8606L42.5201 8.48485L40.7746 12.9939L36.1443 3.12727C35.3686 1.50303 35.611 1.13939 36.9201 1.13939C36.9928 1.13939 36.9928 0.848485 36.9201 0.848485C36.2413 0.848485 35.514 0.921211 33.6231 0.921211C32.5564 0.921211 32.3383 0.848485 31.7564 0.848485C31.6595 0.848485 31.6595 1.13939 31.7564 1.13939C32.7019 1.13939 33.017 1.47879 33.6716 2.8606L39.8049 15.9758C39.8534 16.097 40.2898 16.097 40.3383 15.9758L42.8837 9.28485L46.011 15.9758C46.0595 16.097 46.4958 16.097 46.5443 15.9758L51.2473 3.68485C51.9019 2.01212 52.9201 1.13939 54.0595 1.13939C54.1322 1.13939 54.1322 0.848485 54.0595 0.848485ZM64.4345 14.0364V2.8606C64.4345 1.47879 64.7011 1.13939 66.2769 1.13939C66.3496 1.13939 66.3496 0.848485 66.2769 0.848485C65.4769 0.848485 64.4345 0.921211 63.2223 0.921211C62.083 0.921211 61.0405 0.848485 60.2163 0.848485C60.1193 0.848485 60.1193 1.13939 60.2163 1.13939C61.792 1.13939 62.083 1.4303 62.083 2.81212V14.0364C62.083 15.4424 61.792 15.7091 60.2163 15.7091C60.1193 15.7091 60.1193 16 60.2163 16C61.0405 16 62.083 15.9515 63.2223 15.9515C64.4345 15.9515 65.4284 16 66.2769 16C66.3496 16 66.3496 15.7091 66.2769 15.7091C64.6769 15.7091 64.4345 15.4424 64.4345 14.0364ZM76.553 3.41818C76.553 1.96364 77.45 1.04242 78.9045 1.04242C81.4258 1.04242 82.347 3.97576 82.6379 4.94545C82.6864 5.06667 82.9288 4.99394 82.9288 4.89697L82.8803 1.6C82.8803 1.40606 82.7833 1.26061 82.4924 1.13939C81.7409 0.799999 80.553 0.581817 79.4864 0.581817C77.1106 0.581817 74.5652 1.7697 74.5652 4.46061C74.5652 6.64242 76.2621 7.68485 77.9591 8.77576C79.7045 9.89091 81.4742 10.9818 81.4742 13.3091C81.4742 15.2242 80.2379 15.7576 79.0015 15.7576C76.6258 15.7576 75.3652 13.1879 74.5894 11.1758C74.5167 11.0788 74.2742 11.103 74.2985 11.2485L74.4439 14.9091C74.4682 15.1758 74.5409 15.2727 74.6864 15.3455C75.4379 15.8788 77.0621 16.2909 78.3955 16.2909C81.4742 16.2909 83.5591 14.5212 83.5591 12.0242C83.5591 9.72121 81.6924 8.53333 79.8985 7.41818C78.1773 6.35151 76.553 5.33333 76.553 3.41818ZM107.725 15.7091C106.052 15.7091 105.761 15.4424 105.761 14.0364V2.81212C105.761 1.4303 106.052 1.13939 107.725 1.13939C107.822 1.13939 107.822 0.848485 107.725 0.848485C106.901 0.848485 105.737 0.921211 104.598 0.921211C103.216 0.921211 102.198 0.848485 101.373 0.848485C101.301 0.848485 101.301 1.13939 101.373 1.13939C103.167 1.13939 103.434 1.47879 103.434 2.8606V7.80606H95.1188V2.8606C95.1188 1.47879 95.4339 1.13939 97.1794 1.13939C97.2521 1.13939 97.2521 0.848485 97.1794 0.848485C96.3066 0.848485 95.2642 0.921211 93.8824 0.921211C92.743 0.921211 91.6763 0.848485 90.8521 0.848485C90.7794 0.848485 90.7794 1.13939 90.8521 1.13939C92.5006 1.13939 92.7915 1.4303 92.7915 2.81212V14.0364C92.7915 15.4424 92.5006 15.7091 90.8278 15.7091C90.7309 15.7091 90.7309 16 90.8278 16C91.6521 16 92.743 15.9515 93.8824 15.9515C95.2642 15.9515 96.2824 16 97.1794 16C97.2521 16 97.2521 15.7091 97.1794 15.7091C95.4097 15.7091 95.1188 15.4424 95.1188 14.0364V8.43636H103.434V14.0364C103.434 15.4424 103.167 15.7091 101.373 15.7091C101.301 15.7091 101.301 16 101.373 16C102.198 16 103.216 15.9515 104.598 15.9515C105.737 15.9515 106.901 16 107.725 16C107.822 16 107.822 15.7091 107.725 15.7091ZM133.133 7.49091C135 6.76364 136.018 5.45454 136.018 3.92727C136.018 1.96364 134.466 0.775757 131.582 0.775757C130.636 0.775757 129.545 0.921211 128.648 0.921211C127.533 0.921211 126.491 0.848485 125.666 0.848485C125.594 0.848485 125.594 1.13939 125.666 1.13939C127.145 1.13939 127.509 1.4303 127.509 2.81212V14.0364C127.509 15.4424 127.121 15.7091 125.642 15.7091C125.545 15.7091 125.545 16 125.642 16C126.466 16 127.533 15.9515 128.648 15.9515C129.739 15.9515 131.242 16.097 132.163 16.097C135.218 16.097 137.497 14.1576 137.497 11.5879C137.497 9.38182 135.8 7.78182 133.133 7.49091ZM131.17 1.26061C132.891 1.26061 133.739 2.35151 133.739 4.14545C133.739 6.01212 132.842 7.49091 130.854 7.49091C130.806 7.49091 130.418 7.49091 129.836 7.46667V2.8606C129.836 1.52727 130.176 1.26061 131.17 1.26061ZM131.751 15.5394C130.079 15.5394 129.836 15.0788 129.836 14.0364V8.14545C130.418 8.09697 130.951 8.09697 131.291 8.09697C133.836 8.09697 135.048 9.79394 135.048 12.1697C135.048 14.303 134.054 15.5394 131.751 15.5394ZM160.915 15.7091C158.952 15.7091 157.012 13.5758 153.158 7.63636C154.588 6.81212 155.606 5.40606 155.606 3.85454C155.606 1.91515 154.006 0.775757 151.121 0.775757C150.152 0.775757 148.915 0.921211 147.994 0.921211C146.879 0.921211 145.836 0.848485 145.012 0.848485C144.939 0.848485 144.939 1.13939 145.012 1.13939C146.588 1.13939 146.855 1.4303 146.855 2.81212V14.0364C146.855 15.4424 146.564 15.7091 144.988 15.7091C144.891 15.7091 144.891 16 144.988 16C145.812 16 146.879 15.9515 147.994 15.9515C149.182 15.9515 150.176 16 151.024 16C151.097 16 151.097 15.7091 151.024 15.7091C149.424 15.7091 149.182 15.4424 149.182 14.0364V8.36364C149.545 8.38788 150.006 8.38788 150.418 8.38788C150.709 8.38788 150.976 8.36364 151.242 8.31515C154.127 13.1394 156.261 16 157.012 16H160.915C161.012 16 161.012 15.7091 160.915 15.7091ZM149.182 7.70909V2.8606C149.182 1.57576 149.57 1.23636 150.709 1.23636C152.139 1.23636 153.206 1.93939 153.206 4.72727C153.206 7.07879 152.479 7.78182 150.588 7.78182C150.2 7.78182 149.618 7.75758 149.182 7.70909ZM171.204 14.0364V2.8606C171.204 1.47879 171.471 1.13939 173.047 1.13939C173.12 1.13939 173.12 0.848485 173.047 0.848485C172.247 0.848485 171.204 0.921211 169.992 0.921211C168.853 0.921211 167.81 0.848485 166.986 0.848485C166.889 0.848485 166.889 1.13939 166.986 1.13939C168.562 1.13939 168.853 1.4303 168.853 2.81212V14.0364C168.853 15.4424 168.562 15.7091 166.986 15.7091C166.889 15.7091 166.889 16 166.986 16C167.81 16 168.853 15.9515 169.992 15.9515C171.204 15.9515 172.198 16 173.047 16C173.12 16 173.12 15.7091 173.047 15.7091C171.447 15.7091 171.204 15.4424 171.204 14.0364ZM187.056 16.097C191.42 16.097 195.105 13.0182 195.105 8.1697C195.105 4 191.759 0.799999 186.693 0.799999C185.747 0.799999 184.268 0.921211 183.105 0.921211C181.99 0.921211 180.947 0.848485 180.123 0.848485C180.05 0.848485 180.05 1.13939 180.123 1.13939C181.699 1.13939 181.965 1.4303 181.965 2.81212V14.0364C181.965 15.4424 181.674 15.7091 180.099 15.7091C180.002 15.7091 180.002 16 180.099 16C180.923 16 181.99 15.9515 183.105 15.9515C184.341 15.9515 186.038 16.097 187.056 16.097ZM186.79 15.6121C184.729 15.6121 184.293 15.0303 184.293 13.7697V2.8606C184.293 1.47879 185.02 1.28485 186.935 1.28485C190.353 1.28485 192.511 4.53333 192.511 8.70303C192.511 13.1636 190.111 15.6121 186.79 15.6121ZM213.388 12.2182C212.806 14.3273 211.448 15.3697 209.266 15.3697H208.079C207.036 15.3697 206.697 15.0061 206.697 13.9394V8.43636H209C210.818 8.43636 211.715 9.16364 211.715 10.497C211.715 10.5939 212.006 10.5939 212.006 10.497C212.006 9.62424 211.933 8.92121 211.933 8.12121C211.933 7.49091 211.982 7.05455 211.982 6.01212C211.982 5.91515 211.691 5.91515 211.691 6.01212C211.691 7.17576 210.818 7.80606 209.048 7.80606H206.697V2.88485C206.697 1.86667 207.109 1.47879 208.297 1.47879H209.266C211.133 1.47879 212.248 2.4 212.66 4.24242C212.66 4.31515 212.927 4.29091 212.927 4.21818L212.879 1.06667C212.879 0.921211 212.83 0.848485 212.66 0.848485H202.551C202.454 0.848485 202.454 1.13939 202.551 1.13939C204.127 1.13939 204.394 1.4303 204.394 2.81212V14.0364C204.394 15.4424 204.127 15.7091 202.551 15.7091C202.454 15.7091 202.454 16 202.551 16H213.073C213.363 16 213.436 15.903 213.436 15.6364C213.436 14.5697 213.557 13.1879 213.679 12.2667C213.679 12.1939 213.412 12.1455 213.388 12.2182ZM224.003 3.41818C224.003 1.96364 224.9 1.04242 226.354 1.04242C228.876 1.04242 229.797 3.97576 230.088 4.94545C230.136 5.06667 230.379 4.99394 230.379 4.89697L230.33 1.6C230.33 1.40606 230.233 1.26061 229.942 1.13939C229.191 0.799999 228.003 0.581817 226.936 0.581817C224.56 0.581817 222.015 1.7697 222.015 4.46061C222.015 6.64242 223.712 7.68485 225.409 8.77576C227.154 9.89091 228.924 10.9818 228.924 13.3091C228.924 15.2242 227.688 15.7576 226.451 15.7576C224.076 15.7576 222.815 13.1879 222.039 11.1758C221.966 11.0788 221.724 11.103 221.748 11.2485L221.894 14.9091C221.918 15.1758 221.991 15.2727 222.136 15.3455C222.888 15.8788 224.512 16.2909 225.845 16.2909C228.924 16.2909 231.009 14.5212 231.009 12.0242C231.009 9.72121 229.142 8.53333 227.348 7.41818C225.627 6.35151 224.003 5.33333 224.003 3.41818Z" fill="white"/>
</svg>
