<svg width="109" height="108" viewBox="0 0 109 108" fill="none" xmlns="http://www.w3.org/2000/svg">
<path d="M103.502 35.1689C103.489 35.1764 103.328 35.1519 103.018 35.0956C102.701 35.0266 102.334 34.9613 101.917 34.8995C101.5 34.8378 101.176 34.8153 100.943 34.8322C101.078 35.0061 101.302 35.2295 101.616 35.5021C101.916 35.7823 102.191 36.0184 102.44 36.2104C102.677 36.4098 102.799 36.5159 102.806 36.5285C102.963 36.7403 103.04 36.9644 103.038 37.2008C103.016 37.4321 102.957 37.6004 102.862 37.7057C102.73 37.7481 102.56 37.7374 102.35 37.6739C102.132 37.5977 101.942 37.4474 101.777 37.223C101.77 37.2104 101.723 37.0531 101.635 36.751C101.54 36.4363 101.427 36.0901 101.295 35.7124C101.143 35.3296 101.006 35.0474 100.884 34.8659C100.805 35.0291 100.729 35.2578 100.657 35.5518C100.577 35.8332 100.512 36.0971 100.464 36.3434C100.416 36.5897 100.373 36.816 100.336 37.0221L100.272 37.3614C100.105 37.6425 99.9271 37.8293 99.7379 37.9218C99.5357 38.0217 99.3767 38.0463 99.2608 37.9956C99.1392 37.9651 99.0591 37.8265 99.0207 37.5798C98.9823 37.3332 99.0307 37.0869 99.1658 36.8409C99.1715 36.8208 99.2825 36.6979 99.4988 36.4723C99.7077 36.234 99.9448 35.9544 100.21 35.6333C100.475 35.3122 100.669 35.0488 100.793 34.843C100.568 34.8724 100.258 34.9506 99.863 35.0776C99.4685 35.2045 99.1203 35.3216 98.8183 35.4287C98.5033 35.5434 98.3357 35.5982 98.3155 35.5931C98.0436 35.6324 97.8113 35.5902 97.6185 35.4663C97.4127 35.3499 97.2966 35.2238 97.2701 35.0879C97.2711 34.9696 97.3582 34.8354 97.5313 34.685C97.6841 34.5296 97.9131 34.431 98.2182 34.3893C98.2514 34.3869 98.4266 34.4201 98.7436 34.4891C99.0534 34.5455 99.4167 34.6045 99.8335 34.6663C100.237 34.7355 100.556 34.7617 100.788 34.7449C100.653 34.5709 100.436 34.3438 100.135 34.0636C99.8219 33.791 99.547 33.5549 99.3106 33.3554C99.0538 33.1508 98.9218 33.0422 98.9146 33.0296C98.7576 32.8179 98.6904 32.5963 98.7127 32.365C98.7149 32.1286 98.77 31.9539 98.8781 31.8411C99.0096 31.7988 99.184 31.8157 99.4012 31.8919C99.5982 31.963 99.7787 32.1107 99.943 32.3351L100.086 32.8072C100.181 33.1219 100.304 33.4706 100.456 33.8534C100.6 34.2236 100.737 34.5058 100.866 34.6999C100.927 34.5642 100.992 34.3922 101.062 34.1836C101.125 33.9625 101.182 33.7452 101.231 33.5315C101.261 33.3128 101.298 33.1067 101.342 32.9132C101.366 32.7146 101.392 32.5486 101.419 32.4154L101.448 32.1967C101.615 31.9156 101.8 31.725 102.002 31.6251C102.191 31.5327 102.354 31.5144 102.49 31.5701C102.606 31.6208 102.679 31.7632 102.711 31.9972C102.742 32.2312 102.69 32.4712 102.555 32.7172C102.549 32.7373 102.441 32.8665 102.233 33.1048C102.016 33.3304 101.779 33.6101 101.521 33.9437C101.256 34.2648 101.068 34.5245 100.958 34.7228C101.183 34.6934 101.493 34.6152 101.888 34.4882C102.282 34.3612 102.63 34.2442 102.932 34.137C103.227 34.0173 103.385 33.9599 103.405 33.965C103.677 33.9257 103.916 33.9642 104.121 34.0806C104.314 34.2045 104.424 34.3344 104.45 34.4703C104.449 34.5885 104.372 34.7253 104.219 34.8807C104.046 35.0311 103.807 35.1271 103.502 35.1689Z" fill="black"/>
<path d="M17.138 22.5425C17.125 22.55 16.9636 22.5256 16.6538 22.4692C16.3368 22.4003 15.9699 22.3349 15.5531 22.2732C15.1363 22.2114 14.8114 22.189 14.5786 22.2058C14.7137 22.3798 14.9379 22.6031 15.2513 22.8758C15.5517 23.156 15.8266 23.392 16.076 23.584C16.3125 23.7835 16.4343 23.8895 16.4416 23.9021C16.5985 24.1139 16.6759 24.338 16.6738 24.5744C16.6514 24.8058 16.5927 24.9741 16.4975 25.0794C16.3661 25.1217 16.1953 25.1111 15.9854 25.0475C15.7681 24.9713 15.5774 24.8211 15.4132 24.5967C15.4059 24.5841 15.3584 24.4267 15.2706 24.1246C15.1755 23.8099 15.0623 23.4637 14.9308 23.086C14.7791 22.7032 14.6422 22.4211 14.5201 22.2396C14.4411 22.4028 14.3652 22.6314 14.2924 22.9254C14.2123 23.2069 14.1481 23.4707 14.0997 23.7171C14.0513 23.9634 14.0087 24.1896 13.9717 24.3957L13.9078 24.7351C13.7409 25.0162 13.5629 25.203 13.3737 25.2954C13.1715 25.3953 13.0124 25.42 12.8965 25.3693C12.7749 25.3387 12.6949 25.2001 12.6565 24.9535C12.6181 24.7069 12.6664 24.4606 12.8016 24.2145C12.8073 24.1944 12.9183 24.0716 13.1345 23.8459C13.3435 23.6077 13.5805 23.328 13.8456 23.007C14.1108 22.6859 14.3052 22.4225 14.4289 22.2166C14.2033 22.2461 13.8933 22.3243 13.4988 22.4512C13.1043 22.5782 12.7561 22.6952 12.4541 22.8024C12.1391 22.9171 11.9715 22.9718 11.9512 22.9667C11.6794 23.0061 11.4471 22.9638 11.2543 22.8399C11.0485 22.7235 10.9323 22.5974 10.9059 22.4615C10.9069 22.3433 10.994 22.209 11.1671 22.0587C11.3199 21.9033 11.5489 21.8047 11.854 21.7629C11.8872 21.7605 12.0624 21.7938 12.3794 21.8628C12.6891 21.9191 13.0524 21.9782 13.4692 22.0399C13.8731 22.1092 14.1914 22.1354 14.4242 22.1185C14.2891 21.9445 14.0714 21.7174 13.771 21.4373C13.4577 21.1646 13.1828 20.9285 12.9463 20.7291C12.6896 20.5245 12.5576 20.4159 12.5503 20.4033C12.3934 20.1915 12.3261 19.9699 12.3485 19.7386C12.3506 19.5022 12.4057 19.3276 12.5139 19.2148C12.6454 19.1725 12.8197 19.1894 13.037 19.2656C13.2339 19.3366 13.4145 19.4844 13.5787 19.7087L13.7213 20.1808C13.8164 20.4955 13.9398 20.8443 14.0915 21.2271C14.2359 21.5973 14.3728 21.8794 14.5022 22.0735C14.5625 21.9379 14.6278 21.7658 14.698 21.5573C14.7609 21.3362 14.8173 21.1188 14.8672 20.9052C14.8969 20.6865 14.9338 20.4804 14.978 20.2868C15.002 20.0882 15.0275 19.9223 15.0545 19.7891L15.0842 19.5704C15.251 19.2892 15.4356 19.0987 15.6378 18.9988C15.8269 18.9063 15.9896 18.888 16.1258 18.9438C16.2417 18.9945 16.3152 19.1368 16.3464 19.3708C16.3775 19.6048 16.3255 19.8449 16.1903 20.0909C16.1846 20.111 16.0773 20.2402 15.8683 20.4784C15.6521 20.7041 15.415 20.9837 15.1572 21.3174C14.8921 21.6384 14.7042 21.8981 14.5934 22.0964C14.819 22.067 15.129 21.9888 15.5235 21.8618C15.918 21.7349 16.2662 21.6178 16.5682 21.5107C16.8629 21.3909 17.0204 21.3336 17.0407 21.3387C17.3125 21.2994 17.5513 21.3379 17.7571 21.4542C17.9499 21.5781 18.0596 21.708 18.0861 21.8439C18.085 21.9621 18.0081 22.099 17.8552 22.2544C17.6821 22.4047 17.4431 22.5008 17.138 22.5425Z" fill="black"/>
<path d="M50.4715 103.856C50.4585 103.864 50.2972 103.839 49.9874 103.783C49.6704 103.714 49.3035 103.649 48.8866 103.587C48.4698 103.525 48.145 103.503 47.9122 103.519C48.0473 103.693 48.2715 103.917 48.5848 104.189C48.8852 104.47 49.1601 104.706 49.4096 104.898C49.646 105.097 49.7679 105.203 49.7752 105.216C49.9321 105.428 50.0095 105.652 50.0074 105.888C49.985 106.119 49.9262 106.288 49.8311 106.393C49.6996 106.435 49.5289 106.425 49.3189 106.361C49.1017 106.285 48.911 106.135 48.7468 105.91C48.7395 105.898 48.692 105.74 48.6042 105.438C48.5091 105.124 48.3958 104.777 48.2644 104.4C48.1127 104.017 47.9758 103.735 47.8537 103.553C47.7747 103.716 47.6987 103.945 47.6259 104.239C47.5459 104.521 47.4816 104.784 47.4333 105.031C47.3849 105.277 47.3422 105.503 47.3053 105.709L47.2413 106.049C47.0745 106.33 46.8964 106.517 46.7072 106.609C46.505 106.709 46.346 106.734 46.2301 106.683C46.1085 106.652 46.0285 106.514 45.99 106.267C45.9516 106.021 46 105.774 46.1352 105.528C46.1409 105.508 46.2519 105.385 46.4681 105.16C46.6771 104.921 46.9141 104.642 47.1792 104.321C47.4443 104 47.6387 103.736 47.7625 103.53C47.5369 103.56 47.2269 103.638 46.8324 103.765C46.4379 103.892 46.0896 104.009 45.7877 104.116C45.4727 104.231 45.3051 104.286 45.2848 104.28C45.013 104.32 44.7806 104.277 44.5878 104.154C44.382 104.037 44.2659 103.911 44.2394 103.775C44.2405 103.657 44.3275 103.523 44.5006 103.372C44.6535 103.217 44.8824 103.118 45.1875 103.077C45.2208 103.074 45.3959 103.107 45.7129 103.176C46.0227 103.233 46.386 103.292 46.8028 103.354C47.2066 103.423 47.525 103.449 47.7578 103.432C47.6227 103.258 47.405 103.031 47.1046 102.751C46.7912 102.478 46.5163 102.242 46.2799 102.043C46.0232 101.838 45.8912 101.73 45.8839 101.717C45.727 101.505 45.6597 101.284 45.6821 101.052C45.6842 100.816 45.7393 100.641 45.8474 100.528C45.9789 100.486 46.1533 100.503 46.3705 100.579C46.5675 100.65 46.7481 100.798 46.9123 101.022L47.0549 101.495C47.15 101.809 47.2733 102.158 47.425 102.541C47.5695 102.911 47.7064 103.193 47.8358 103.387C47.8961 103.252 47.9613 103.08 48.0315 102.871C48.0944 102.65 48.1509 102.432 48.2008 102.219C48.2304 102 48.2674 101.794 48.3116 101.601C48.3355 101.402 48.361 101.236 48.3881 101.103L48.4177 100.884C48.5846 100.603 48.7691 100.412 48.9713 100.312C49.1605 100.22 49.3232 100.202 49.4594 100.257C49.5752 100.308 49.6488 100.451 49.6799 100.685C49.7111 100.919 49.6591 101.159 49.5239 101.405C49.5182 101.425 49.4108 101.554 49.2019 101.792C48.9856 102.018 48.7486 102.297 48.4907 102.631C48.2256 102.952 48.0377 103.212 47.927 103.41C48.1525 103.381 48.4626 103.302 48.8571 103.176C49.2516 103.049 49.5998 102.932 49.9018 102.824C50.1965 102.705 50.354 102.647 50.3743 102.652C50.6461 102.613 50.8849 102.652 51.0907 102.768C51.2835 102.892 51.3931 103.022 51.4196 103.158C51.4186 103.276 51.3416 103.413 51.1888 103.568C51.0157 103.718 50.7766 103.814 50.4715 103.856Z" fill="black"/>
<path fill-rule="evenodd" clip-rule="evenodd" d="M101.785 45.8331C101.112 46.0988 100.674 45.9739 100.472 45.4584C100.375 45.2267 100.361 44.9685 100.432 44.7276L99.684 44.6952C99.6122 44.8851 99.5794 45.0874 99.5875 45.2902C99.5957 45.493 99.6446 45.6921 99.7315 45.8756C100.126 46.8735 100.875 47.1547 101.977 46.719L107.271 44.6271L106.943 43.7957L101.785 45.8331ZM102.176 54.1665L102.211 50.7998L104.673 50.8251L104.642 53.7711L105.484 53.7796L105.514 50.8337L107.892 50.8584L107.859 54.1201L108.7 54.1286L108.743 49.9726L101.378 49.8968L101.334 54.1579L102.176 54.1665ZM101.85 63.0737L107.931 61.9736L108.054 61.1201L102.525 58.3974L108.571 57.5388L108.715 56.5393L101.107 57.6948L100.99 58.507L106.57 61.311L100.418 62.4641L100.301 63.2767L107.287 66.4328L107.412 65.5681L101.85 63.0737ZM106.151 70.0939L106.395 69.2353L99.3073 67.2303L99.0638 68.0888L106.151 70.0939ZM98.1259 73.8818C98.037 73.5238 98.0697 73.1464 98.2189 72.8091C98.351 72.4848 98.5537 72.1941 98.8123 71.9581C99.0626 71.7154 99.3685 71.5377 99.7032 71.4404L99.3264 70.7358C98.9058 70.7952 98.518 70.9966 98.2274 71.3065C97.8846 71.6403 97.6164 72.0429 97.4406 72.4879C97.1913 73.0505 97.1482 73.683 97.3189 74.2742C97.3935 74.5441 97.5316 74.7922 97.7216 74.9978C97.9117 75.2033 98.1481 75.3605 98.4113 75.4561C98.697 75.5764 99.0074 75.6261 99.3163 75.601C99.5871 75.5792 99.8487 75.4926 100.079 75.3485C100.306 75.2016 100.518 75.0341 100.714 74.848C100.92 74.654 101.117 74.4569 101.306 74.2566C101.481 74.0692 101.666 73.8918 101.861 73.7252C102.035 73.5754 102.24 73.4674 102.462 73.4096C102.685 73.353 102.921 73.3707 103.133 73.4601C103.274 73.5104 103.402 73.593 103.507 73.7013C103.611 73.8097 103.689 73.9408 103.734 74.0843C103.826 74.4204 103.796 74.7782 103.65 75.0944C103.554 75.3545 103.406 75.5921 103.215 75.7928C103.024 75.9934 102.794 76.1528 102.539 76.2611L102.985 76.9596C103.308 76.8314 103.596 76.6292 103.826 76.3692C104.096 76.0743 104.309 75.7318 104.453 75.3591C104.699 74.8201 104.728 74.2073 104.534 73.6475C104.445 73.4058 104.306 73.1859 104.125 73.0029C103.944 72.8199 103.725 72.678 103.485 72.5869C103.205 72.4689 102.901 72.4217 102.599 72.4495C102.331 72.4745 102.071 72.5609 101.842 72.702C101.612 72.8471 101.396 73.0133 101.197 73.1985C100.988 73.3907 100.787 73.5865 100.595 73.7858C100.416 73.9722 100.227 74.1484 100.028 74.3136C99.852 74.4616 99.6451 74.5687 99.4224 74.6273C99.1995 74.6839 98.9641 74.6661 98.7522 74.5768C98.5994 74.5217 98.4624 74.43 98.3533 74.3097C98.2441 74.1894 98.166 74.0443 98.1259 73.8869V73.8818ZM99.0653 85.5122L99.5244 84.7445L96.788 83.1081L98.8668 79.6313L101.603 81.2677L102.062 80.5L95.7406 76.7202L95.2815 77.4879L98.1441 79.1995L96.0653 82.6763L93.2027 80.9647L92.7436 81.7324L99.0653 85.5122ZM87.79 87.5026C87.2717 87.9662 86.9202 88.5873 86.7895 89.2703C86.7529 89.5725 86.7903 89.8791 86.8986 90.1635C87.007 90.448 87.1829 90.7018 87.4112 90.9031C87.7019 91.2203 88.102 91.4156 88.5309 91.4496C88.9623 91.4632 89.3848 91.325 89.7249 91.0592L89.74 91.0738C89.5627 91.412 89.4902 91.7953 89.5319 92.1749C89.5866 92.5569 89.7703 92.9087 90.0526 93.1718C90.2228 93.3608 90.4346 93.5076 90.6713 93.6006C90.9079 93.6936 91.163 93.7303 91.4163 93.7077C92.0391 93.5914 92.6035 93.2656 93.0158 92.7845C93.2788 92.5218 93.7449 92.0358 94.4143 91.3264L89.2183 86.1364C88.8365 86.4782 88.3604 86.9346 87.79 87.5056V87.5026ZM89.0183 90.6269C88.8477 90.6571 88.6722 90.6437 88.5082 90.5878C88.3442 90.5319 88.197 90.4353 88.0804 90.3072C87.9368 90.1805 87.8259 90.021 87.7572 89.8422C87.6885 89.6634 87.6641 89.4707 87.686 89.2804C87.7757 88.8365 88.0082 88.4342 88.3481 88.1349C88.6804 87.8023 88.9582 87.5442 89.1814 87.3607L90.9521 89.1314L90.1117 89.9723C89.824 90.2996 89.442 90.5298 89.0183 90.6314V90.6269ZM90.5436 92.3976C90.4178 92.2821 90.3204 92.1391 90.2591 91.9797C90.1977 91.8203 90.1741 91.6489 90.19 91.4789C90.2332 91.1123 90.406 90.7731 90.6774 90.5228L91.5102 89.6895L93.1921 91.3703C92.8352 91.7579 92.5826 92.0259 92.4345 92.1744C91.7304 92.8784 91.1005 92.9528 90.5446 92.3976H90.5436ZM84.0991 94.5466L80.548 93.4577L79.6561 94.0925L83.4597 95.2082C83.1622 95.5548 82.985 95.9884 82.9546 96.4441C82.9135 96.9415 83.0586 97.4365 83.3617 97.833C84.2078 99.0219 85.3423 99.1099 86.7652 98.0971C86.9599 97.9587 87.2065 97.779 87.5051 97.5577C87.8038 97.3365 88.09 97.1283 88.3637 96.933L84.0935 90.9324L83.3647 91.4506L85.0728 93.8511L84.0991 94.5466ZM84.1299 97.2739C84.0127 97.1143 83.9352 96.9291 83.9038 96.7336C83.8725 96.538 83.8882 96.3379 83.9496 96.1496C84.0733 95.7469 84.3317 95.3988 84.6814 95.1638L85.5647 94.5355L87.1506 96.7643C86.656 97.1347 86.3801 97.3397 86.3228 97.3794C85.3854 98.0468 84.6545 98.0116 84.1299 97.2739ZM80.4697 101.949L81.2597 101.529L77.8041 95.0249L77.0142 95.4446L80.4697 101.949ZM73.3904 97.1436C73.1248 97.2335 72.8535 97.3291 72.5768 97.4305C72.0342 97.5902 71.5289 97.8563 71.0902 98.2132C70.6515 98.5702 70.2883 99.011 70.0217 99.5098C69.8012 99.9656 69.6783 100.462 69.6609 100.969C69.6435 101.475 69.732 101.979 69.9207 102.449C70.0786 102.893 70.3152 103.306 70.6192 103.666C70.9162 104.013 71.2807 104.295 71.6904 104.495C72.1561 104.713 72.6668 104.818 73.1808 104.801C73.8206 104.783 74.4527 104.656 75.0495 104.424C75.102 104.405 75.4091 104.285 75.9707 104.064C76.2448 103.956 76.5236 103.85 76.8071 103.747L76.9253 103.703L74.3919 96.7931L74.2833 96.833C73.9466 96.9562 73.649 97.0616 73.3904 97.1491V97.1436ZM72.2828 103.724C71.9368 103.579 71.6262 103.36 71.3722 103.084C71.1182 102.808 70.9268 102.48 70.8111 102.123C70.6593 101.755 70.5864 101.36 70.597 100.962C70.6076 100.564 70.7016 100.173 70.8727 99.8143C71.2961 99.0511 72.0006 98.4832 72.8364 98.2315C72.85 98.2269 72.8965 98.2113 72.9768 98.186C73.0571 98.1608 73.1788 98.1194 73.3409 98.0638C73.503 98.0082 73.6707 97.9486 73.8414 97.8855L75.7955 103.227C75.7099 103.259 75.5488 103.323 75.3121 103.421C75.0754 103.519 74.8977 103.59 74.7788 103.634C73.9897 103.983 73.0967 104.018 72.2828 103.73V103.724ZM62.4721 101.009L65.7777 100.367L66.2469 102.785L63.3545 103.346L63.5151 104.172L66.407 103.611L66.8616 105.945L63.6595 106.567L63.8196 107.393L67.9 106.601L66.4964 99.3709L62.313 100.183L62.4721 101.009ZM57.2953 101.64C57.5817 101.408 57.937 101.277 58.3054 101.269C58.6551 101.252 59.0042 101.313 59.3277 101.447C59.6533 101.571 59.9436 101.773 60.1731 102.036L60.6524 101.396C60.4208 101.04 60.0744 100.774 59.6706 100.642C59.2229 100.472 58.7444 100.4 58.2666 100.428C57.6515 100.441 57.0604 100.669 56.5969 101.074C56.3839 101.256 56.2176 101.486 56.1118 101.745C56.0059 102.005 55.9636 102.285 55.9883 102.564C56.0007 102.874 56.0873 103.176 56.2408 103.446C56.3749 103.682 56.5637 103.882 56.7913 104.03C57.0205 104.173 57.2622 104.295 57.5135 104.394C57.7762 104.498 58.0383 104.593 58.2999 104.679C58.544 104.759 58.7835 104.853 59.0171 104.959C59.2264 105.053 59.4113 105.194 59.5575 105.37C59.7029 105.549 59.786 105.769 59.7943 105.999C59.8086 106.149 59.7879 106.3 59.7339 106.44C59.68 106.58 59.5941 106.706 59.4832 106.807C59.218 107.032 58.882 107.156 58.5342 107.158C58.2583 107.181 57.9804 107.148 57.7179 107.06C57.4553 106.972 57.2135 106.831 57.0075 106.646L56.5635 107.346C56.8178 107.582 57.124 107.755 57.4575 107.851C57.8381 107.971 58.2376 108.019 58.6358 107.993C59.2281 107.988 59.7956 107.755 60.2206 107.342C60.4026 107.16 60.5432 106.94 60.6328 106.698C60.7224 106.457 60.7589 106.199 60.7398 105.942C60.7276 105.639 60.6408 105.344 60.4873 105.083C60.3507 104.85 60.1625 104.652 59.9373 104.504C59.7085 104.357 59.4665 104.232 59.2145 104.13C58.9512 104.022 58.689 103.923 58.4277 103.833C58.1832 103.75 57.9436 103.653 57.71 103.543C57.5011 103.446 57.3163 103.304 57.1691 103.126C57.0241 102.948 56.9409 102.727 56.9322 102.498C56.919 102.337 56.9452 102.175 57.0085 102.027C57.0717 101.879 57.1702 101.748 57.2953 101.646V101.64ZM38.1306 99.4173C38.377 98.7382 38.7607 98.4931 39.2816 98.682C39.5195 98.7628 39.7222 98.9234 39.8553 99.1365L40.3755 98.5981C40.2811 98.4184 40.1512 98.2596 39.9939 98.1312C39.8366 98.0029 39.6549 97.9076 39.4599 97.8512C38.4498 97.4852 37.7427 97.8592 37.3386 98.9734L35.3962 104.324L36.2371 104.627L38.1306 99.4173ZM31.179 95.2274L34.1896 96.7345L33.0871 98.936L30.4527 97.6173L30.076 98.3698L32.7103 99.6891L31.6457 101.815L28.729 100.355L28.3522 101.108L32.0684 102.968L35.3659 96.3825L31.5553 94.4744L31.179 95.2274ZM23.4517 90.6708L21.4623 96.5203L22.1491 97.0426L27.2123 93.5294L25.0305 99.233L25.8345 99.8441L28.5164 92.6309L27.8628 92.1345L22.7032 95.6532L24.68 89.7142L24.0274 89.2173L17.8779 93.7941L18.5729 94.3234L23.4517 90.6708ZM15.1774 90.7905L15.7951 91.4395L21.1335 86.3647L20.5173 85.7167L15.1774 90.7905ZM16.0299 81.9213C16.3822 82.0305 16.6882 82.2539 16.8996 82.5561C17.1084 82.8372 17.2521 83.1612 17.3203 83.5046C17.3982 83.8443 17.3918 84.1978 17.3016 84.5344L18.0996 84.5773C18.2667 84.1868 18.2952 83.7509 18.1804 83.342C18.0726 82.8757 17.867 82.4376 17.5774 82.0566C17.2253 81.552 16.7068 81.1876 16.1127 81.0273C15.8432 80.9516 15.5595 80.9413 15.2852 80.9975C15.0109 81.0536 14.754 81.1745 14.536 81.3501C14.2853 81.5322 14.0821 81.7719 13.9435 82.049C13.8216 82.2918 13.76 82.5603 13.7637 82.8319C13.7725 83.1019 13.8063 83.3706 13.8647 83.6344C13.9243 83.9102 13.9908 84.1809 14.0642 84.4465C14.1337 84.6939 14.1892 84.945 14.2304 85.1986C14.2685 85.4247 14.2544 85.6565 14.189 85.8763C14.1214 86.0962 13.984 86.2881 13.7976 86.4228C13.6812 86.518 13.5443 86.5848 13.3976 86.6179C13.251 86.651 13.0986 86.6496 12.9526 86.6137C12.6182 86.5183 12.3281 86.308 12.1334 86.0198C11.9606 85.8034 11.8338 85.554 11.761 85.2868C11.6882 85.0196 11.6709 84.7403 11.7102 84.4662L10.8809 84.4869C10.8258 84.8296 10.8519 85.1804 10.9571 85.5112C11.0688 85.8949 11.2509 86.2546 11.494 86.5718C11.8285 87.06 12.3376 87.4011 12.9163 87.5248C13.1691 87.5746 13.4297 87.5694 13.6804 87.5094C13.931 87.4494 14.1658 87.3362 14.3688 87.1774C14.6142 86.9994 14.812 86.7636 14.9445 86.491C15.0619 86.2481 15.1219 85.9815 15.1198 85.7117C15.1147 85.4401 15.0843 85.1695 15.0289 84.9036C14.9723 84.6251 14.9087 84.3521 14.838 84.0844C14.7711 83.835 14.7184 83.5821 14.6799 83.3268C14.6446 83.0992 14.6601 82.8665 14.7254 82.6455C14.793 82.4258 14.9302 82.234 15.1163 82.099C15.2424 81.9969 15.3916 81.9273 15.5509 81.8962C15.7102 81.8651 15.8746 81.874 16.0299 81.9213ZM5.59297 76.7293L6.01519 77.5182L8.82582 76.0131L10.7374 79.5849L7.92682 81.0894L8.34905 81.8778L14.8425 78.402L14.4203 77.6137L11.4799 79.1874L9.56825 75.6162L12.5092 74.0419L12.087 73.2535L5.59297 76.7293ZM9.52481 66.0974C9.36698 65.4204 8.99094 64.814 8.4546 64.3717C8.20708 64.1945 7.92017 64.0802 7.61863 64.0387C7.3171 63.9972 7.00998 64.0296 6.72378 64.1333C6.30584 64.236 5.94237 64.4934 5.7066 64.8535C5.48752 65.2256 5.40601 65.6628 5.4763 66.0888L5.4561 66.0944C5.24435 65.7766 4.94283 65.5291 4.58993 65.3833C4.22838 65.2482 3.83156 65.2408 3.46517 65.3621C3.21805 65.4206 2.98793 65.5358 2.79299 65.6986C2.59805 65.8614 2.44363 66.0672 2.34193 66.2999C2.14501 66.902 2.1598 67.5534 2.38385 68.1459C2.48857 68.5028 2.69059 69.1451 2.98992 70.0727L10.0379 68.0075C9.92077 67.5085 9.74889 66.8718 9.52229 66.0974H9.52481ZM6.19398 65.6757C6.24923 65.5115 6.34519 65.364 6.47291 65.247C6.60062 65.13 6.75592 65.0472 6.92429 65.0065C7.10431 64.9413 7.29744 64.9205 7.48721 64.946C7.67699 64.9715 7.85778 65.0425 8.0142 65.153C8.36103 65.4445 8.60267 65.8417 8.70208 66.2838C8.8344 66.7346 8.9275 67.102 8.98137 67.3858L6.57833 68.0904L6.24398 66.9494C6.09687 66.54 6.07976 66.0952 6.19499 65.6757H6.19398ZM3.90861 66.1641C4.07033 66.1092 4.24256 66.0924 4.41183 66.1151C4.5811 66.1378 4.74283 66.1993 4.88438 66.2949C5.18571 66.5085 5.40069 66.8229 5.49044 67.1813L5.82176 68.3121L3.53992 68.9808C3.37157 68.4818 3.25793 68.1313 3.19901 67.9293C2.91887 66.9737 3.15575 66.3845 3.90962 66.1616L3.90861 66.1641ZM4.97933 59.5706L7.57328 56.912L7.41722 55.8287L4.68387 58.6989C4.51064 58.2774 4.20597 57.9231 3.81518 57.6888C3.3915 57.4251 2.88525 57.3276 2.39396 57.415C0.949838 57.6228 0.35219 58.5911 0.601014 60.3201C0.634684 60.5558 0.681654 60.8573 0.741924 61.2246C0.802194 61.592 0.856066 61.9422 0.903541 62.2752L8.194 61.2262L8.06773 60.3383L5.15155 60.758L4.97933 59.5706ZM2.53941 58.3484C2.73493 58.317 2.93512 58.3327 3.12336 58.3942C3.3116 58.4556 3.48246 58.5611 3.62174 58.7019C3.92325 58.9963 4.1144 59.3854 4.16316 59.8039L4.31771 60.8767L1.61011 61.2661C1.5091 60.6573 1.45321 60.3183 1.44243 60.2489C1.2788 59.1102 1.64479 58.4763 2.54042 58.3474L2.53941 58.3484ZM0 52.9842L0.0136357 53.8786L7.37833 53.766L7.3647 52.8721L0 52.9842ZM7.53035 48.8695C7.57682 48.5928 7.6211 48.3086 7.66318 48.017C7.77947 47.4635 7.78442 46.8923 7.67777 46.3369C7.57112 45.7814 7.35499 45.2527 7.04197 44.7816C6.7448 44.3717 6.36529 44.0282 5.92775 43.7734C5.4902 43.5186 5.00426 43.358 4.50104 43.3018C4.03485 43.2303 3.55958 43.2433 3.098 43.3402C2.65243 43.4378 2.23141 43.6251 1.86062 43.8907C1.44785 44.1976 1.11364 44.5979 0.88536 45.0589C0.597144 45.6303 0.409225 46.2471 0.3298 46.8821C0.321719 46.9377 0.281988 47.265 0.210607 47.864C0.176937 48.1569 0.138217 48.4525 0.0944452 48.7508L0.0767675 48.8761L7.36773 49.92L7.38389 49.8054C7.43473 49.4512 7.48288 49.1392 7.52833 48.8695H7.53035ZM2.25961 44.7786C2.55151 44.5427 2.89084 44.3726 3.25447 44.2798C3.61809 44.1869 3.99746 44.1736 4.3667 44.2407C4.76244 44.2813 5.14526 44.4044 5.49046 44.6022C5.83565 44.7999 6.13554 45.0679 6.37075 45.3887C6.84229 46.1232 7.00864 47.0127 6.83439 47.868C6.83439 47.8816 6.82378 47.9301 6.80813 48.0129C6.79247 48.0958 6.77126 48.222 6.74348 48.3917C6.7157 48.5614 6.68893 48.7362 6.66318 48.917L1.0389 48.1114C1.05152 48.021 1.07122 47.8488 1.09698 47.5938C1.12273 47.3387 1.14496 47.1488 1.16263 47.0236C1.22767 46.162 1.62022 45.3581 2.25961 44.7771V44.7786ZM9.43542 37.4644L8.36117 40.6553L6.02782 39.87L6.96772 37.0775L6.16974 36.8088L5.22983 39.6013L2.97628 38.8437L4.0172 35.7523L3.21921 35.4795L1.89345 39.419L8.87582 41.77L10.2354 37.7295L9.43542 37.4644ZM11.5188 32.6512C11.5739 33.0165 11.5057 33.3897 11.3248 33.7118C11.1624 34.0219 10.9331 34.292 10.6536 34.5028C10.3815 34.7207 10.0602 34.8686 9.71774 34.9336L10.0258 35.6709C10.4502 35.6517 10.8553 35.4879 11.1738 35.2068C11.5468 34.9071 11.852 34.5316 12.0693 34.1053C12.3711 33.5686 12.4739 32.9426 12.3597 32.3376C12.3109 32.0619 12.1968 31.8018 12.0271 31.5791C11.8574 31.3564 11.6368 31.1775 11.3839 31.0573C11.1108 30.9107 10.8065 30.8319 10.4965 30.8275C10.2251 30.8232 9.95654 30.8843 9.7137 31.0058C9.47399 31.1303 9.24641 31.2769 9.0339 31.4436C8.811 31.6174 8.59585 31.7948 8.38844 31.976C8.19561 32.1461 7.99326 32.3051 7.78238 32.4522C7.5954 32.585 7.38046 32.6731 7.15409 32.7098C6.92662 32.7445 6.69405 32.7043 6.49146 32.5952C6.35517 32.5316 6.23551 32.4372 6.14191 32.3195C6.04831 32.2018 5.98332 32.064 5.95206 31.9169C5.8927 31.5741 5.9562 31.2214 6.13136 30.9209C6.251 30.6712 6.42055 30.4487 6.62955 30.267C6.83855 30.0854 7.08256 29.9485 7.34652 29.8648L6.96772 29.127C6.63489 29.226 6.33004 29.4019 6.07782 29.6406C5.78279 29.907 5.53964 30.2256 5.36064 30.5805C5.0652 31.0938 4.9784 31.701 5.11822 32.2765C5.18319 32.5259 5.30114 32.7584 5.46402 32.9582C5.62691 33.1579 5.83092 33.3202 6.06216 33.4341C6.32907 33.5777 6.62723 33.6535 6.93035 33.6548C7.20022 33.655 7.46652 33.5932 7.70864 33.474C7.95134 33.3514 8.18198 33.2063 8.39753 33.0406C8.62346 32.8689 8.84232 32.6931 9.0541 32.5133C9.24979 32.3447 9.45483 32.1872 9.66825 32.0416C9.85814 31.9118 10.0744 31.8255 10.3016 31.7891C10.5289 31.7545 10.7613 31.7948 10.9637 31.9037C11.1103 31.9736 11.2375 32.0782 11.3343 32.2085C11.4312 32.3388 11.4942 32.4908 11.5188 32.6512ZM23.2608 17.3441C23.7194 17.9026 23.7343 18.3572 23.3057 18.7077C23.1148 18.8712 22.8732 18.9637 22.6219 18.9693L22.8199 19.6915C23.0229 19.7022 23.226 19.6717 23.417 19.6018C23.6079 19.5319 23.7828 19.4242 23.931 19.285C24.7606 18.6042 24.7993 17.8055 24.0471 16.889L20.4355 12.4895L19.7426 13.0551L23.2608 17.3441ZM30.382 13.4799L27.5653 15.3243L26.2168 13.2647L28.6815 11.6486L28.2194 10.945L25.7547 12.5587L24.4522 10.5693L27.1795 8.78238L26.7184 8.07833L23.2411 10.3551L27.2759 16.5168L30.8411 14.1824L30.382 13.4799ZM38.1427 9.00561L34.0159 4.40963L33.2245 4.75306L33.8088 10.8834L29.9037 6.18893L28.977 6.59045L33.9538 12.4607L34.7068 12.1339L34.1649 5.91216L38.375 10.5435L39.128 10.2172L38.1482 2.61416L37.3467 2.96164L38.1427 9.00561ZM42.023 1.70456L41.1584 1.93284L43.0351 9.0541L43.8998 8.82581L42.023 1.70456ZM49.3811 6.7162C49.1161 6.97282 48.7731 7.13398 48.4064 7.17429C48.0596 7.22226 47.7065 7.19258 47.3725 7.08742C47.037 6.99284 46.7299 6.81734 46.4781 6.57631L46.0574 7.2556C46.3196 7.58994 46.6884 7.82448 47.1023 7.92025C47.5631 8.04923 48.0459 8.07919 48.519 8.00814C49.1308 7.94174 49.6996 7.66188 50.1256 7.21773C50.3215 7.01775 50.4668 6.77383 50.5493 6.50631C50.6318 6.23879 50.6491 5.95542 50.5998 5.67984C50.5606 5.37237 50.4478 5.0789 50.271 4.82428C50.1169 4.6007 49.911 4.41758 49.671 4.29043C49.4303 4.16802 49.1787 4.06826 48.9195 3.99245C48.6502 3.91164 48.3808 3.83976 48.1114 3.77679C47.8612 3.71889 47.6143 3.64706 47.372 3.56164C47.1555 3.48654 46.9591 3.36283 46.7978 3.20002C46.6373 3.03503 46.5348 2.8223 46.5059 2.59396C46.4784 2.44608 46.4856 2.29384 46.527 2.14923C46.5684 2.00462 46.6427 1.87159 46.7443 1.76061C46.9888 1.51331 47.3126 1.36006 47.6589 1.32779C47.9316 1.27996 48.2113 1.28854 48.4806 1.35299C48.7498 1.41745 49.0031 1.53641 49.2246 1.70254L49.6049 0.965664C49.3307 0.752528 49.0103 0.606698 48.6695 0.539903C48.2799 0.454186 47.8779 0.44151 47.4837 0.502526C46.8941 0.560539 46.3495 0.842988 45.9624 1.29142C45.7973 1.48928 45.6767 1.72039 45.6088 1.96903C45.5409 2.21766 45.5273 2.47799 45.569 2.73234C45.6072 3.0332 45.7191 3.31997 45.8948 3.5672C46.0514 3.78682 46.2563 3.96755 46.4938 4.09548C46.7347 4.22143 46.9868 4.32474 47.2468 4.40407C47.5182 4.48791 47.7875 4.56316 48.0549 4.62983C48.3057 4.69102 48.5529 4.76639 48.7953 4.85559C49.012 4.93371 49.2086 5.05894 49.371 5.22226C49.5314 5.38732 49.6336 5.60003 49.6625 5.82832C49.6914 5.9878 49.6809 6.15194 49.6319 6.30643C49.5828 6.46092 49.4968 6.60108 49.3811 6.71469V6.7162ZM59.0186 0.114141L58.1241 0.0964624L58.062 3.28436L54.012 3.20507L54.0741 0.017671L53.1802 0L53.0362 7.36419L53.9307 7.38136L53.9958 4.04801L58.0459 4.1273L57.9807 7.46066L58.8746 7.47783L59.0186 0.114141ZM66.3444 8.93289C67.0034 9.15452 67.7169 9.15345 68.3752 8.92986C68.6557 8.81207 68.9034 8.62788 69.097 8.39315C69.2905 8.15843 69.4241 7.88019 69.4863 7.58237C69.6185 7.17292 69.5906 6.72857 69.4081 6.33893C69.2068 5.95685 68.8777 5.65761 68.4782 5.49347L68.4838 5.47326C68.8656 5.46047 69.2349 5.33404 69.5444 5.11013C69.8493 4.87363 70.0642 4.54005 70.1535 4.16468C70.2335 3.92369 70.2565 3.66741 70.2205 3.41604C70.1846 3.16467 70.0908 2.92509 69.9464 2.71618C69.5376 2.23217 68.9755 1.9025 68.3535 1.78183C67.9949 1.68351 67.3419 1.51836 66.3944 1.28637L64.4469 8.36773C64.9328 8.53036 65.5648 8.71874 66.3429 8.93289H66.3444ZM68.454 6.32125C68.5647 6.45458 68.6397 6.61378 68.6721 6.78398C68.7045 6.95418 68.6933 7.12983 68.6394 7.29449C68.6003 7.48194 68.5165 7.65716 68.395 7.80518C68.2736 7.9532 68.1181 8.06961 67.9419 8.1445C67.5115 8.28639 67.0465 8.2832 66.6181 8.13541C66.1649 8.01049 65.8035 7.89652 65.5338 7.79349L66.1994 5.37832L67.3459 5.69398C67.7711 5.78347 68.1582 6.002 68.4545 6.31974L68.454 6.32125ZM69.2399 4.12022C69.2016 4.2867 69.1253 4.44207 69.017 4.57419C68.9087 4.70631 68.7713 4.81161 68.6156 4.88185C68.2757 5.02612 67.8954 5.04403 67.5434 4.93235L66.407 4.62023L67.0378 2.32729C67.551 2.44648 67.9089 2.53402 68.1116 2.58991C69.0715 2.85389 69.4476 3.36467 69.2399 4.12225V4.12022ZM74.2101 8.44248L75.2071 12.0203L76.2222 12.4294L75.1111 8.6243C75.5635 8.68732 76.0242 8.60228 76.4243 8.38187C76.8654 8.1482 77.2041 7.75909 77.3748 7.28994C77.9202 5.93674 77.383 4.9337 75.7632 4.28084C75.5419 4.19127 75.2576 4.08033 74.9101 3.94801C74.5626 3.81568 74.2327 3.68656 73.9202 3.56063L71.1667 10.392L71.9965 10.7263L73.098 7.994L74.2101 8.44248ZM76.4925 6.9455C76.4213 7.1303 76.307 7.29544 76.1592 7.4272C76.0113 7.55897 75.8342 7.65355 75.6424 7.70308C75.2365 7.81582 74.8041 7.78568 74.4177 7.61772L73.4126 7.21368L74.4354 4.6763C75.0131 4.89414 75.3345 5.01619 75.3995 5.04246C76.4662 5.47209 76.8305 6.1061 76.4925 6.9455ZM82.341 7.41217L81.5571 6.98136L78.0106 13.437L78.7945 13.8678L82.341 7.41217ZM82.1996 15.9981C82.4137 16.1796 82.6356 16.3626 82.8652 16.5471C83.2819 16.9295 83.7706 17.2252 84.3027 17.4169C84.8349 17.6086 85.3998 17.6925 85.9647 17.6638C86.469 17.6174 86.9579 17.4662 87.4004 17.2199C87.8428 16.9736 88.2289 16.6376 88.5339 16.2334C88.8331 15.8689 89.0644 15.4535 89.2168 15.0072C89.3601 14.574 89.4137 14.1162 89.3744 13.6617C89.3216 13.1504 89.1485 12.6589 88.8693 12.2274C88.5243 11.6884 88.0894 11.2126 87.5834 10.8208C87.54 10.7871 87.2789 10.5859 86.8001 10.2172C86.5644 10.0378 86.3299 9.8536 86.0965 9.66471L85.9981 9.58541L81.3804 15.3238L81.4708 15.3961C81.7489 15.6203 81.9925 15.821 82.2016 15.9981H82.1996ZM88.4087 13.5526C88.4625 13.9241 88.4357 14.3027 88.3299 14.6629C88.2242 15.023 88.0421 15.3561 87.7961 15.6395C87.5593 15.9592 87.2582 16.2257 86.912 16.4217C86.5658 16.6177 86.1824 16.7389 85.7864 16.7774C84.9142 16.8082 84.0644 16.4974 83.4177 15.9112C83.4066 15.9021 83.3672 15.8703 83.3061 15.8148C83.245 15.7592 83.145 15.6764 83.0137 15.5658C82.8824 15.4552 82.745 15.343 82.6031 15.2284L86.1652 10.8021C86.2359 10.859 86.3745 10.9637 86.5809 11.1162C86.7873 11.2688 86.9388 11.3846 87.0355 11.4637C87.7431 11.959 88.2341 12.7067 88.4087 13.5526ZM90.8259 23.7219L88.7733 21.0532L90.7249 19.5522L92.5208 21.887L93.1885 21.3739L91.392 19.0385L93.2769 17.589L95.2658 20.1744L95.933 19.6612L93.3986 16.3668L87.5632 20.8567L90.1612 24.2345L90.8259 23.7219ZM93.5976 28.1775C93.266 28.0167 92.9974 27.7502 92.834 27.4199C92.6705 27.1104 92.5777 26.7685 92.5622 26.4189C92.5368 26.0711 92.597 25.7223 92.7375 25.4032L91.9552 25.2401C91.7308 25.6006 91.6363 26.0271 91.6875 26.4487C91.7233 26.9264 91.8599 27.3912 92.0885 27.8123C92.3599 28.3647 92.8174 28.8037 93.3804 29.0522C93.6353 29.1681 93.9142 29.2213 94.1938 29.2075C94.4735 29.1937 94.7458 29.1133 94.988 28.9729C95.2634 28.8309 95.5005 28.6248 95.6794 28.3719C95.8369 28.1505 95.9388 27.8945 95.9764 27.6254C96.0092 27.3574 96.0171 27.0869 96.0002 26.8173C95.983 26.5355 95.9584 26.2578 95.9264 25.984C95.8951 25.7291 95.8783 25.4726 95.8759 25.2158C95.8725 24.9866 95.9216 24.7596 96.0193 24.5522C96.1194 24.345 96.2843 24.1762 96.4891 24.0714C96.6185 23.9949 96.764 23.9497 96.914 23.9392C97.064 23.9286 97.2143 23.9532 97.3532 24.0108C97.6694 24.1558 97.9243 24.4078 98.0729 24.7224C98.2108 24.9625 98.2981 25.2282 98.3295 25.5033C98.3609 25.7784 98.3356 26.0569 98.2552 26.3219L99.078 26.428C99.1845 26.0975 99.212 25.7467 99.1583 25.4037C99.1057 25.0082 98.9803 24.6258 98.7886 24.2759C98.5323 23.741 98.0803 23.3251 97.5259 23.1143C97.2835 23.0268 97.0252 22.9925 96.7684 23.0137C96.5116 23.0349 96.2623 23.1111 96.0375 23.237C95.7679 23.3756 95.5366 23.5785 95.3643 23.8279C95.211 24.0502 95.1111 24.3047 95.0724 24.5719C95.036 24.8413 95.0249 25.1135 95.039 25.385C95.0525 25.6682 95.0741 25.9476 95.1037 26.2234C95.1315 26.4802 95.1452 26.7383 95.1446 26.9966C95.1447 27.2269 95.094 27.4544 94.9961 27.6628C94.8958 27.8698 94.731 28.0385 94.5264 28.1436C94.3861 28.2244 94.2282 28.2696 94.0664 28.2754C93.9046 28.2812 93.7434 28.2479 93.5976 28.1775Z" fill="black"/>
<path fill-rule="evenodd" clip-rule="evenodd" d="M44.4242 31.865C44.4242 32.1877 44.5356 32.2045 46.68 32.2045H48.9359V41.78C48.9359 47.0466 48.9805 51.4739 49.0352 51.6185C49.1064 51.8066 51.3721 49.5881 57.0143 43.8057C61.3483 39.3643 64.9184 35.6244 64.9481 35.4949C64.9779 35.3654 64.9336 35.2595 64.8497 35.2595C64.7658 35.2595 62.1301 37.8668 58.9925 41.0538C55.2931 44.8113 53.2565 46.765 53.1989 46.6121C53.1497 46.4824 53.1293 43.2067 53.1534 39.3328L53.197 32.2893L55.4947 32.2421C57.6543 32.1977 57.7923 32.1748 57.7923 31.8603C57.7923 31.5327 57.6491 31.5256 51.1082 31.5256C44.5356 31.5256 44.4242 31.5312 44.4242 31.865ZM52.2678 53.5089C47.4853 58.3659 45.4134 60.3629 45.2303 60.2916C44.5084 60.0102 44.421 58.7268 45.0073 57.022C45.3765 55.9489 45.4 55.7416 45.2162 55.1841C44.9089 54.252 44.2649 53.8431 43.1164 53.8507C41.4123 53.8621 40.4095 54.936 40.4174 56.741C40.4249 58.444 41.6728 60.0224 43.5664 60.7238C44.1301 60.9325 44.5913 61.1489 44.5913 61.2048C44.5913 61.2606 43.8619 62.0498 42.9705 62.9587C42.0792 63.8674 41.4048 64.667 41.4721 64.7354C41.5395 64.8036 42.4004 64.0504 43.3853 63.0614L45.1761 61.2631L46.7636 61.1661C47.6367 61.1126 48.5579 61.0192 48.8106 60.9587L49.2701 60.8485V76.1633H46.9307C45.0815 76.1633 44.5913 76.2112 44.5913 76.3918C44.5913 76.7017 58.68 76.9525 60.2153 76.67C62.8946 76.1769 64.6796 75.3162 66.1553 73.8058C67.8512 72.0701 68.4147 70.5003 68.2884 67.8638C68.1969 65.9557 67.6881 64.8019 66.3301 63.4226C65.1928 62.2674 63.5807 61.4035 61.7192 60.9517C61.0759 60.7955 60.4367 60.6331 60.2989 60.591C60.161 60.5488 60.4618 60.4065 60.9673 60.275C63.3516 59.6548 65.4927 58.0816 66.4424 56.2525C66.8534 55.4606 67.154 55.1295 67.15 53.603C67.1463 52.2302 66.821 51.8234 66.5283 51.1711C66.0737 50.1589 64.6709 48.6381 63.66 48.0616C62.7302 47.5315 60.8296 46.8767 59.7976 46.7311L59.0456 46.625L52.2678 53.5089ZM59.9321 47.9993C61.5847 48.962 62.3602 50.7941 62.3699 53.7596C62.3793 56.5505 61.8708 58.1602 60.6429 59.2276C59.6891 60.0569 59.0474 60.2115 56.0795 60.3271L53.4477 60.4296V52.83L56.0775 50.1548C57.524 48.6836 58.7836 47.4804 58.8765 47.4813C58.9696 47.4823 59.4445 47.7153 59.9321 47.9993ZM49.0906 57.9864C48.8253 59.691 47.9931 60.5467 46.5997 60.5479L45.8509 60.5486L47.5155 58.8513C48.4311 57.9179 49.1892 57.1541 49.2003 57.1541C49.2113 57.1541 49.1618 57.5287 49.0906 57.9864ZM59.5309 61.1455C62.535 61.9403 63.9581 65.1322 63.4721 69.9853C63.3735 70.9699 63.1354 72.2028 62.9429 72.725C62.5464 73.8018 61.5184 75.0289 60.6406 75.4737C59.3594 76.1228 57.0352 76.4364 54.8665 76.2529L53.4477 76.1328V60.8881H56.0027C57.7474 60.8881 58.8663 60.9697 59.5309 61.1455Z" fill="black"/>
</svg>
