<svg width="443" height="376" viewBox="0 0 443 376" fill="none" xmlns="http://www.w3.org/2000/svg">
<g opacity="0.08">
<path d="M556.52 188.662C556.45 188.702 555.583 188.571 553.917 188.268C552.213 187.899 550.24 187.548 547.999 187.217C545.757 186.886 544.011 186.765 542.759 186.855C543.485 187.789 544.691 188.987 546.376 190.45C547.991 191.953 549.469 193.219 550.81 194.249C552.082 195.319 552.737 195.888 552.776 195.955C553.62 197.091 554.036 198.294 554.025 199.562C553.904 200.803 553.588 201.706 553.077 202.271C552.37 202.498 551.452 202.441 550.323 202.1C549.155 201.691 548.129 200.885 547.246 199.681C547.207 199.614 546.952 198.769 546.48 197.149C545.969 195.461 545.359 193.603 544.653 191.577C543.837 189.524 543.101 188.01 542.444 187.037C542.019 187.912 541.611 189.139 541.22 190.716C540.789 192.226 540.444 193.641 540.184 194.962C539.924 196.284 539.694 197.497 539.496 198.603L539.152 200.423C538.255 201.932 537.297 202.934 536.28 203.429C535.193 203.966 534.338 204.098 533.715 203.826C533.061 203.662 532.63 202.918 532.424 201.595C532.217 200.272 532.477 198.951 533.204 197.631C533.235 197.523 533.832 196.864 534.994 195.654C536.118 194.376 537.392 192.875 538.818 191.153C540.243 189.431 541.289 188.018 541.954 186.913C540.741 187.071 539.074 187.491 536.953 188.172C534.832 188.853 532.959 189.481 531.336 190.056C529.642 190.671 528.741 190.965 528.632 190.937C527.17 191.148 525.921 190.922 524.884 190.257C523.778 189.633 523.153 188.956 523.011 188.227C523.017 187.593 523.485 186.873 524.415 186.066C525.237 185.232 526.468 184.704 528.109 184.48C528.288 184.467 529.229 184.645 530.934 185.015C532.599 185.317 534.553 185.634 536.794 185.965C538.965 186.337 540.677 186.477 541.929 186.387C541.202 185.454 540.032 184.236 538.417 182.733C536.732 181.27 535.254 180.004 533.982 178.933C532.602 177.836 531.892 177.253 531.853 177.186C531.009 176.05 530.648 174.861 530.768 173.62C530.779 172.352 531.076 171.415 531.657 170.81C532.364 170.583 533.302 170.674 534.47 171.083C535.529 171.464 536.5 172.256 537.383 173.46L538.149 175.992C538.66 177.681 539.324 179.551 540.14 181.605C540.916 183.591 541.652 185.104 542.348 186.146C542.672 185.418 543.023 184.495 543.401 183.377C543.739 182.19 544.042 181.024 544.311 179.878C544.47 178.705 544.669 177.599 544.906 176.561C545.035 175.496 545.172 174.606 545.318 173.891L545.477 172.718C546.374 171.21 547.367 170.187 548.454 169.651C549.471 169.156 550.346 169.057 551.078 169.356C551.701 169.628 552.096 170.392 552.264 171.647C552.431 172.903 552.152 174.19 551.425 175.51C551.394 175.618 550.817 176.311 549.693 177.589C548.531 178.799 547.256 180.3 545.87 182.089C544.444 183.812 543.434 185.205 542.839 186.269C544.051 186.111 545.718 185.691 547.84 185.01C549.961 184.329 551.833 183.701 553.457 183.126C555.042 182.484 555.888 182.176 555.997 182.204C557.459 181.993 558.743 182.199 559.849 182.824C560.886 183.488 561.476 184.185 561.618 184.914C561.612 185.548 561.199 186.282 560.377 187.116C559.446 187.922 558.161 188.438 556.52 188.662Z" fill="white"/>
<path d="M92.149 120.928C92.0792 120.968 91.2115 120.837 89.546 120.535C87.8413 120.165 85.8684 119.815 83.6273 119.483C81.3861 119.152 79.6395 119.032 78.3875 119.122C79.114 120.055 80.3196 121.253 82.0045 122.716C83.6196 124.219 85.0977 125.485 86.4389 126.515C87.7103 127.585 88.3656 128.154 88.4047 128.222C89.2485 129.358 89.6647 130.56 89.6533 131.828C89.533 133.069 89.217 133.972 88.7056 134.537C87.9985 134.764 87.0805 134.707 85.9516 134.366C84.7835 133.958 83.758 133.151 82.8751 131.948C82.836 131.88 82.5804 131.036 82.1084 129.415C81.5972 127.727 80.9883 125.87 80.2815 123.844C79.4658 121.79 78.7297 120.277 78.0731 119.303C77.6482 120.179 77.24 121.405 76.8486 122.982C76.418 124.492 76.0726 125.908 75.8126 127.229C75.5525 128.55 75.3231 129.764 75.1246 130.87L74.7806 132.69C73.8833 134.198 72.926 135.2 71.9087 135.696C70.8216 136.232 69.9664 136.364 69.3433 136.092C68.6894 135.928 68.2591 135.185 68.0525 133.862C67.8459 132.539 68.106 131.218 68.8328 129.898C68.8635 129.79 69.4603 129.131 70.623 127.92C71.7466 126.642 73.0211 125.142 74.4466 123.42C75.8721 121.697 76.9174 120.284 77.5827 119.18C76.3698 119.338 74.7028 119.757 72.5817 120.439C70.4605 121.12 68.588 121.748 66.9643 122.322C65.2707 122.937 64.3695 123.231 64.2605 123.204C62.7989 123.415 61.5498 123.188 60.5131 122.524C59.4065 121.899 58.782 121.223 58.6396 120.494C58.6453 119.86 59.1135 119.139 60.0442 118.333C60.8659 117.499 62.097 116.97 63.7374 116.746C63.9163 116.733 64.858 116.912 66.5626 117.282C68.2281 117.584 70.1815 117.901 72.4227 118.232C74.594 118.603 76.3056 118.744 77.5576 118.654C76.8312 117.72 75.6604 116.502 74.0454 114.999C72.3605 113.537 70.8824 112.27 69.611 111.2C68.2306 110.103 67.5209 109.52 67.4818 109.452C66.638 108.316 66.2763 107.128 66.3966 105.887C66.408 104.619 66.7044 103.682 67.2857 103.077C67.9928 102.85 68.9303 102.94 70.0984 103.349C71.1575 103.73 72.1285 104.523 73.0114 105.727L73.7781 108.259C74.2893 109.947 74.9527 111.818 75.7684 113.872C76.545 115.857 77.2811 117.371 77.9768 118.412C78.3011 117.685 78.6519 116.762 79.0294 115.643C79.3677 114.457 79.6711 113.291 79.9395 112.145C80.099 110.972 80.2975 109.866 80.5352 108.828C80.6639 107.762 80.801 106.872 80.9464 106.158L81.1059 104.984C82.0032 103.476 82.9954 102.454 84.0825 101.918C85.0998 101.422 85.9745 101.324 86.7066 101.623C87.3298 101.895 87.7251 102.659 87.8926 103.914C88.0601 105.169 87.7805 106.457 87.0537 107.777C87.0229 107.884 86.4458 108.577 85.3222 109.855C84.1594 111.066 82.8849 112.566 81.4986 114.356C80.0731 116.078 79.0627 117.471 78.4673 118.535C79.6801 118.377 81.3471 117.958 83.4683 117.277C85.5895 116.596 87.4619 115.968 89.0856 115.393C90.6702 114.751 91.517 114.443 91.626 114.47C93.0876 114.259 94.3716 114.466 95.4782 115.09C96.5149 115.755 97.1044 116.452 97.2468 117.181C97.2411 117.815 96.8275 118.549 96.0057 119.383C95.075 120.189 93.7895 120.704 92.149 120.928Z" fill="white"/>
<path d="M271.38 557.132C271.31 557.172 270.442 557.041 268.777 556.738C267.072 556.369 265.099 556.018 262.858 555.687C260.617 555.355 258.871 555.235 257.619 555.325C258.345 556.259 259.551 557.457 261.236 558.919C262.851 560.422 264.329 561.689 265.67 562.719C266.941 563.789 267.597 564.358 267.636 564.425C268.479 565.561 268.896 566.764 268.884 568.032C268.764 569.273 268.448 570.176 267.937 570.741C267.23 570.968 266.312 570.911 265.183 570.57C264.015 570.161 262.989 569.355 262.106 568.151C262.067 568.083 261.811 567.239 261.339 565.619C260.828 563.93 260.219 562.073 259.513 560.047C258.697 557.994 257.961 556.48 257.304 555.506C256.879 556.382 256.471 557.608 256.08 559.186C255.649 560.695 255.304 562.111 255.044 563.432C254.783 564.754 254.554 565.967 254.356 567.073L254.012 568.893C253.114 570.402 252.157 571.404 251.14 571.899C250.053 572.436 249.197 572.568 248.574 572.296C247.92 572.132 247.49 571.388 247.284 570.065C247.077 568.742 247.337 567.421 248.064 566.101C248.095 565.993 248.691 565.334 249.854 564.124C250.978 562.846 252.252 561.345 253.678 559.623C255.103 557.901 256.148 556.488 256.814 555.383C255.601 555.541 253.934 555.961 251.813 556.642C249.691 557.323 247.819 557.951 246.195 558.526C244.502 559.141 243.6 559.435 243.491 559.407C242.03 559.618 240.781 559.392 239.744 558.727C238.638 558.103 238.013 557.426 237.871 556.697C237.876 556.063 238.345 555.343 239.275 554.536C240.097 553.702 241.328 553.173 242.968 552.95C243.147 552.937 244.089 553.115 245.794 553.485C247.459 553.787 249.413 554.104 251.654 554.435C253.825 554.807 255.537 554.947 256.789 554.857C256.062 553.924 254.891 552.706 253.276 551.203C251.591 549.74 250.113 548.473 248.842 547.403C247.462 546.306 246.752 545.723 246.713 545.656C245.869 544.52 245.507 543.331 245.628 542.09C245.639 540.822 245.935 539.885 246.517 539.28C247.224 539.053 248.161 539.144 249.329 539.552C250.388 539.934 251.359 540.726 252.242 541.93L253.009 544.462C253.52 546.151 254.184 548.021 254.999 550.075C255.776 552.061 256.512 553.574 257.208 554.616C257.532 553.888 257.883 552.965 258.26 551.846C258.599 550.66 258.902 549.494 259.171 548.348C259.33 547.175 259.529 546.069 259.766 545.031C259.895 543.966 260.032 543.076 260.177 542.361L260.337 541.188C261.234 539.68 262.226 538.657 263.314 538.121C264.331 537.625 265.206 537.527 265.938 537.826C266.561 538.098 266.956 538.862 267.124 540.117C267.291 541.373 267.011 542.66 266.285 543.98C266.254 544.088 265.677 544.781 264.553 546.059C263.39 547.269 262.116 548.769 260.73 550.559C259.304 552.282 258.294 553.675 257.698 554.739C258.911 554.581 260.578 554.161 262.699 553.48C264.82 552.799 266.693 552.171 268.317 551.596C269.901 550.954 270.748 550.646 270.857 550.674C272.319 550.463 273.603 550.669 274.709 551.294C275.746 551.958 276.335 552.655 276.478 553.384C276.472 554.018 276.058 554.752 275.237 555.586C274.306 556.392 273.02 556.908 271.38 557.132Z" fill="white"/>
<path fill-rule="evenodd" clip-rule="evenodd" d="M547.287 245.87C543.667 247.295 541.313 246.625 540.227 243.859C539.705 242.616 539.629 241.231 540.012 239.939L535.99 239.765C535.604 240.784 535.428 241.869 535.471 242.957C535.515 244.045 535.779 245.113 536.246 246.097C538.367 251.451 542.392 252.959 548.319 250.622L576.784 239.4L575.019 234.94L547.287 245.87ZM549.389 290.574L549.577 272.513L562.815 272.649L562.65 288.452L567.177 288.498L567.339 272.695L580.125 272.828L579.945 290.324L584.47 290.371L584.7 268.075L545.101 267.669L544.862 290.528L549.389 290.574ZM547.638 338.356L580.331 332.455L580.994 327.876L551.268 313.27L583.774 308.664L584.551 303.302L543.64 309.501L543.01 313.858L573.015 328.9L539.939 335.085L539.309 339.445L576.871 356.375L577.542 351.737L547.638 338.356ZM570.764 376.015L572.073 371.41L533.964 360.653L532.656 365.259L570.764 376.015ZM527.613 396.335C527.134 394.415 527.31 392.39 528.112 390.581C528.823 388.841 529.913 387.282 531.303 386.016C532.649 384.714 534.294 383.76 536.094 383.238L534.068 379.459C531.806 379.778 529.721 380.858 528.159 382.52C526.315 384.311 524.873 386.471 523.928 388.858C522.587 391.876 522.356 395.269 523.273 398.441C523.674 399.888 524.417 401.219 525.439 402.322C526.461 403.425 527.732 404.268 529.147 404.78C530.683 405.426 532.352 405.693 534.013 405.558C535.469 405.441 536.876 404.976 538.114 404.203C539.333 403.416 540.475 402.517 541.527 401.518C542.634 400.478 543.695 399.42 544.71 398.346C545.652 397.341 546.649 396.389 547.697 395.495C548.631 394.692 549.736 394.112 550.929 393.802C552.128 393.499 553.393 393.594 554.533 394.073C555.295 394.343 555.984 394.786 556.544 395.367C557.105 395.948 557.523 396.652 557.764 397.422C558.259 399.225 558.099 401.144 557.313 402.841C556.799 404.235 556.003 405.51 554.975 406.587C553.948 407.663 552.71 408.518 551.339 409.099L553.74 412.846C555.475 412.159 557.024 411.074 558.261 409.679C559.713 408.097 560.856 406.26 561.634 404.26C562.954 401.369 563.11 398.081 562.068 395.078C561.592 393.782 560.841 392.602 559.868 391.621C558.894 390.639 557.72 389.878 556.425 389.389C554.924 388.756 553.288 388.503 551.665 388.652C550.221 388.786 548.827 389.25 547.591 390.006C546.355 390.785 545.194 391.676 544.124 392.67C543.001 393.701 541.923 394.751 540.889 395.821C539.927 396.82 538.91 397.766 537.842 398.652C536.894 399.445 535.781 400.02 534.584 400.334C533.385 400.638 532.12 400.543 530.98 400.063C530.159 399.768 529.422 399.276 528.835 398.631C528.248 397.986 527.828 397.207 527.613 396.362V396.335ZM532.664 458.726L535.132 454.608L520.419 445.83L531.596 427.178L546.31 435.957L548.776 431.839L514.787 411.562L512.318 415.68L527.71 424.862L516.533 443.513L501.141 434.331L498.672 438.449L532.664 458.726ZM472.037 469.404C469.251 471.891 467.361 475.222 466.658 478.886C466.461 480.507 466.662 482.152 467.245 483.678C467.827 485.204 468.773 486.566 470.001 487.645C471.564 489.347 473.715 490.395 476.021 490.577C478.341 490.65 480.613 489.909 482.441 488.483L482.522 488.561C481.569 490.375 481.179 492.432 481.404 494.468C481.697 496.517 482.685 498.404 484.203 499.816C485.118 500.83 486.257 501.617 487.53 502.116C488.802 502.615 490.174 502.812 491.536 502.69C494.885 502.066 497.919 500.319 500.136 497.738C501.55 496.329 504.056 493.722 507.656 489.916L479.717 462.075C477.664 463.908 475.104 466.356 472.037 469.42V469.404ZM478.642 486.163C477.725 486.326 476.781 486.254 475.899 485.954C475.017 485.654 474.226 485.136 473.599 484.448C472.827 483.769 472.23 482.913 471.861 481.954C471.492 480.995 471.36 479.961 471.478 478.94C471.96 476.559 473.211 474.401 475.038 472.796C476.825 471.011 478.319 469.627 479.519 468.642L489.04 478.141L484.521 482.652C482.974 484.408 480.92 485.643 478.642 486.188V486.163ZM486.843 495.662C486.167 495.043 485.643 494.276 485.313 493.421C484.984 492.566 484.857 491.646 484.942 490.734C485.174 488.767 486.104 486.948 487.563 485.605L492.041 481.135L501.084 490.152C499.165 492.231 497.807 493.668 497.01 494.465C493.225 498.242 489.837 498.641 486.848 495.662H486.843ZM452.192 507.191L433.098 501.349L428.302 504.755L448.754 510.74C447.154 512.599 446.201 514.925 446.038 517.37C445.817 520.038 446.597 522.693 448.227 524.82C452.776 531.198 458.877 531.67 466.527 526.237C467.574 525.495 468.9 524.53 470.506 523.344C472.112 522.157 473.651 521.04 475.122 519.992L452.162 487.803L448.243 490.582L457.427 503.46L452.192 507.191ZM452.357 521.821C451.727 520.965 451.311 519.971 451.142 518.922C450.973 517.874 451.058 516.8 451.388 515.79C452.053 513.629 453.442 511.762 455.323 510.501L460.072 507.131L468.599 519.087C465.94 521.074 464.456 522.174 464.149 522.387C459.108 525.967 455.178 525.779 452.357 521.821ZM432.677 546.901L436.924 544.65L418.344 509.756L414.097 512.008L432.677 546.901ZM394.612 521.122C393.184 521.604 391.726 522.117 390.238 522.661C387.32 523.518 384.603 524.945 382.244 526.86C379.886 528.775 377.933 531.14 376.499 533.815C375.313 536.261 374.653 538.926 374.559 541.641C374.466 544.356 374.941 547.06 375.956 549.581C376.805 551.965 378.078 554.178 379.712 556.113C381.309 557.97 383.269 559.483 385.472 560.559C387.976 561.729 390.722 562.291 393.485 562.198C396.926 562.104 400.324 561.421 403.533 560.18C403.816 560.077 405.467 559.433 408.487 558.248C409.96 557.668 411.459 557.1 412.984 556.544L413.619 556.311L399.997 519.242L399.414 519.456C397.603 520.117 396.003 520.682 394.612 521.152V521.122ZM388.657 556.422C386.796 555.642 385.126 554.472 383.761 552.989C382.395 551.507 381.366 549.749 380.744 547.833C379.928 545.861 379.536 543.739 379.593 541.606C379.65 539.473 380.155 537.375 381.075 535.449C383.352 531.355 387.14 528.308 391.633 526.958C391.707 526.934 391.957 526.85 392.388 526.714C392.82 526.579 393.475 526.357 394.346 526.058C395.218 525.76 396.12 525.441 397.037 525.102L407.544 553.759C407.084 553.927 406.218 554.274 404.945 554.799C403.673 555.325 402.717 555.704 402.078 555.937C397.835 557.813 393.033 557.999 388.657 556.457V556.422ZM335.906 541.859L353.68 538.416L356.203 551.383L340.65 554.395L341.514 558.828L357.063 555.815L359.508 568.338L342.29 571.673L343.151 576.105L365.091 571.857L357.544 533.07L335.051 537.427L335.906 541.859ZM308.071 545.241C309.611 543.996 311.521 543.297 313.502 543.255C315.382 543.164 317.26 543.489 318.999 544.208C320.75 544.874 322.31 545.958 323.545 547.365L326.122 543.935C324.876 542.024 323.014 540.596 320.842 539.887C318.435 538.979 315.862 538.589 313.293 538.744C309.986 538.811 306.808 540.037 304.315 542.206C303.17 543.182 302.276 544.417 301.707 545.808C301.138 547.199 300.91 548.705 301.043 550.201C301.11 551.863 301.575 553.484 302.401 554.929C303.122 556.195 304.137 557.27 305.361 558.064C306.593 558.83 307.893 559.483 309.244 560.015C310.656 560.573 312.066 561.084 313.472 561.548C314.785 561.975 316.073 562.477 317.329 563.049C318.454 563.552 319.448 564.307 320.234 565.255C321.016 566.21 321.463 567.395 321.508 568.628C321.585 569.43 321.473 570.239 321.183 570.992C320.893 571.744 320.431 572.419 319.835 572.963C318.409 574.169 316.602 574.834 314.732 574.843C313.249 574.968 311.755 574.789 310.343 574.317C308.931 573.844 307.631 573.088 306.523 572.096L304.136 575.853C305.503 577.12 307.15 578.048 308.943 578.563C310.989 579.205 313.137 579.463 315.278 579.324C318.463 579.295 321.514 578.045 323.8 575.832C324.779 574.853 325.534 573.675 326.016 572.379C326.498 571.082 326.694 569.698 326.591 568.319C326.526 566.695 326.059 565.113 325.234 563.713C324.499 562.465 323.488 561.402 322.276 560.605C321.046 559.817 319.745 559.145 318.39 558.598C316.975 558.02 315.564 557.49 314.159 557.007C312.845 556.562 311.556 556.042 310.3 555.452C309.177 554.931 308.184 554.167 307.392 553.217C306.612 552.26 306.165 551.076 306.118 549.844C306.048 548.981 306.188 548.115 306.528 547.319C306.869 546.523 307.398 545.822 308.071 545.276V545.241ZM205.024 533.32C206.349 529.676 208.412 528.361 211.213 529.375C212.492 529.808 213.582 530.67 214.298 531.813L217.095 528.925C216.587 527.961 215.889 527.109 215.043 526.42C214.197 525.732 213.22 525.221 212.171 524.918C206.74 522.954 202.938 524.961 200.766 530.938L190.322 559.643L194.843 561.269L205.024 533.32ZM167.646 510.843L183.834 518.928L177.906 530.737L163.741 523.663L161.715 527.7L175.88 534.777L170.155 546.183L154.473 538.348L152.447 542.388L172.428 552.369L190.159 517.039L169.669 506.803L167.646 510.843ZM126.097 486.399L115.4 517.779L119.094 520.58L146.318 501.734L134.586 532.331L138.909 535.609L153.329 496.914L149.815 494.251L122.073 513.127L132.702 481.268L129.193 478.602L96.1276 503.154L99.8643 505.993L126.097 486.399ZM81.6071 487.041L84.9283 490.523L113.632 463.299L110.319 459.823L81.6071 487.041ZM86.1911 439.463C88.0855 440.049 89.7306 441.247 90.8674 442.868C91.9898 444.376 92.7624 446.114 93.1295 447.956C93.5484 449.778 93.5139 451.675 93.029 453.481L97.3197 453.711C98.2179 451.616 98.3712 449.278 97.7542 447.084C97.1743 444.583 96.0692 442.233 94.5118 440.189C92.6188 437.482 89.8305 435.527 86.6365 434.667C85.1873 434.261 83.6617 434.206 82.187 434.507C80.7122 434.808 79.3309 435.457 78.1583 436.398C76.8105 437.375 75.718 438.662 74.9729 440.148C74.3174 441.45 73.9858 442.891 74.0061 444.348C74.0532 445.796 74.235 447.238 74.5492 448.653C74.8697 450.132 75.2272 451.584 75.6219 453.009C75.9954 454.336 76.2937 455.683 76.5154 457.044C76.7204 458.257 76.6442 459.5 76.2927 460.679C75.9295 461.859 75.1906 462.888 74.1881 463.611C73.5623 464.122 72.826 464.48 72.0375 464.658C71.249 464.835 70.4298 464.828 69.6448 464.635C67.8466 464.123 66.287 462.995 65.2401 461.449C64.3106 460.288 63.6292 458.95 63.2378 457.517C62.8464 456.084 62.7534 454.586 62.9644 453.115L58.5053 453.226C58.2092 455.064 58.3496 456.946 58.9154 458.721C59.5159 460.779 60.4947 462.709 61.8021 464.41C63.6004 467.029 66.3378 468.859 69.4493 469.523C70.8089 469.79 72.2103 469.762 73.558 469.44C74.9057 469.118 76.1681 468.511 77.2594 467.659C78.5791 466.704 79.6425 465.439 80.3552 463.977C80.9864 462.674 81.3088 461.243 81.2976 459.796C81.2703 458.339 81.1066 456.888 80.8087 455.461C80.5046 453.967 80.1624 452.503 79.7822 451.067C79.4228 449.729 79.139 448.372 78.9323 447.003C78.7423 445.781 78.8258 444.533 79.1767 443.348C79.5403 442.169 80.278 441.14 81.2785 440.416C81.9567 439.869 82.7591 439.495 83.6155 439.328C84.4719 439.161 85.3563 439.209 86.1911 439.463ZM30.0728 411.611L32.343 415.843L47.4555 407.769L57.7341 426.929L42.6217 435L44.8919 439.23L79.8067 420.584L77.5364 416.355L61.7261 424.797L51.4474 405.639L67.2605 397.194L64.9903 392.965L30.0728 411.611ZM51.2139 354.576C50.3653 350.944 48.3433 347.691 45.4595 345.319C44.1286 344.368 42.5859 343.755 40.9646 343.533C39.3432 343.31 37.6919 343.484 36.1531 344.04C33.9058 344.591 31.9515 345.972 30.6838 347.903C29.5058 349.899 29.0676 352.245 29.4455 354.53L29.3369 354.56C28.1983 352.856 26.5771 351.528 24.6796 350.745C22.7356 350.021 20.6019 349.981 18.6319 350.632C17.3031 350.946 16.0658 351.564 15.0176 352.437C13.9694 353.31 13.1392 354.414 12.5923 355.663C11.5335 358.893 11.613 362.387 12.8177 365.565C13.3808 367.48 14.467 370.925 16.0765 375.902L53.973 364.823C53.3429 362.146 52.4187 358.731 51.2003 354.576H51.2139ZM33.3044 352.314C33.6014 351.433 34.1174 350.642 34.8041 350.014C35.4909 349.387 36.3259 348.943 37.2312 348.724C38.1991 348.374 39.2376 348.263 40.2579 348.4C41.2783 348.537 42.2505 348.917 43.0915 349.51C44.9564 351.074 46.2557 353.205 46.7901 355.576C47.5016 357.995 48.0022 359.965 48.2919 361.488L35.371 365.267L33.5732 359.147C32.7822 356.951 32.6902 354.564 33.3098 352.314H33.3044ZM21.0162 354.934C21.8857 354.639 22.8118 354.55 23.7219 354.671C24.6321 354.793 25.5017 355.123 26.2628 355.636C27.883 356.782 29.0389 358.468 29.5215 360.391L31.303 366.457L19.0338 370.044C18.1286 367.367 17.5176 365.487 17.2007 364.403C15.6945 359.277 16.9681 356.116 21.0216 354.921L21.0162 354.934ZM26.7733 319.564L40.7207 305.302L39.8816 299.49L25.1847 314.887C24.2532 312.626 22.615 310.726 20.5138 309.469C18.2357 308.054 15.5137 307.531 12.872 308C5.10718 309.115 1.89369 314.309 3.23159 323.584C3.41263 324.849 3.66518 326.466 3.98925 328.437C4.31331 330.407 4.60298 332.286 4.85825 334.072L44.0582 328.445L43.3793 323.682L27.6993 325.933L26.7733 319.564ZM13.6541 313.007C14.7054 312.839 15.7818 312.923 16.794 313.253C17.8061 313.582 18.7248 314.148 19.4737 314.904C21.0949 316.483 22.1227 318.57 22.3849 320.815L23.2158 326.57L8.6574 328.659C8.11428 325.393 7.81375 323.574 7.75581 323.202C6.87595 317.094 8.84387 313.693 13.6596 313.002L13.6541 313.007ZM0 284.231L0.0733178 289.029L39.6725 288.425L39.5992 283.63L0 284.231ZM40.4899 262.158C40.7397 260.673 40.9778 259.149 41.2041 257.585C41.8294 254.615 41.856 251.552 41.2826 248.572C40.7091 245.592 39.547 242.756 37.8639 240.229C36.2661 238.03 34.2255 236.187 31.8729 234.82C29.5202 233.453 26.9074 232.592 24.2016 232.29C21.695 231.907 19.1395 231.976 16.6576 232.496C14.2619 233.02 11.9981 234.025 10.0043 235.45C7.78494 237.096 5.98794 239.244 4.76049 241.716C3.21078 244.782 2.20036 248.09 1.7733 251.497C1.72985 251.795 1.51622 253.551 1.13241 256.764C0.951372 258.335 0.743176 259.921 0.507822 261.521L0.41277 262.193L39.6155 267.794L39.7024 267.179C39.9758 265.278 40.2346 263.605 40.4791 262.158H40.4899ZM12.1497 240.213C13.7192 238.947 15.5438 238.035 17.4989 237.537C19.4541 237.039 21.4939 236.967 23.4793 237.327C25.6071 237.545 27.6655 238.205 29.5216 239.266C31.3777 240.327 32.9901 241.764 34.2548 243.485C36.7903 247.426 37.6847 252.197 36.7478 256.786C36.7478 256.859 36.6908 257.119 36.6066 257.563C36.5224 258.007 36.4083 258.685 36.259 259.595C36.1096 260.505 35.9657 261.443 35.8272 262.413L5.58603 258.091C5.65392 257.606 5.75983 256.683 5.89833 255.314C6.03682 253.946 6.15631 252.927 6.25136 252.256C6.60108 247.634 8.71176 243.322 12.1497 240.204V240.213ZM50.7332 200.976L44.9571 218.094L32.4109 213.881L37.4647 198.901L33.174 197.459L28.1203 212.439L16.0032 208.375L21.6001 191.791L17.3094 190.328L10.1809 211.461L47.7243 224.073L55.0348 202.398L50.7332 200.976ZM61.9352 175.156C62.2318 177.115 61.8648 179.118 60.8924 180.846C60.0189 182.509 58.7862 183.958 57.2833 185.088C55.8205 186.257 54.0927 187.051 52.2513 187.399L53.9078 191.355C56.1898 191.252 58.3678 190.373 60.0804 188.865C62.0861 187.257 63.7271 185.243 64.8952 182.956C66.518 180.077 67.0709 176.719 66.4567 173.473C66.1942 171.994 65.581 170.599 64.6684 169.404C63.7557 168.21 62.57 167.25 61.2101 166.605C59.7417 165.819 58.1052 165.396 56.4388 165.373C54.9791 165.349 53.5353 165.677 52.2295 166.329C50.9406 166.997 49.7169 167.783 48.5743 168.678C47.3758 169.61 46.219 170.562 45.1038 171.534C44.0669 172.446 42.9789 173.299 41.845 174.088C40.8396 174.801 39.6839 175.273 38.4668 175.47C37.2437 175.656 35.9932 175.44 34.9039 174.855C34.1711 174.514 33.5277 174.008 33.0244 173.377C32.5211 172.745 32.1717 172.006 32.0036 171.217C31.6844 169.378 32.0258 167.486 32.9676 165.874C33.6109 164.534 34.5226 163.34 35.6464 162.366C36.7701 161.392 38.0822 160.657 39.5014 160.209L37.4647 156.25C35.6751 156.781 34.0359 157.725 32.6798 159.006C31.0935 160.434 29.786 162.144 28.8236 164.048C27.235 166.801 26.7683 170.058 27.5201 173.146C27.8695 174.484 28.5036 175.731 29.3795 176.802C30.2553 177.874 31.3522 178.745 32.5956 179.355C34.0307 180.126 35.6339 180.533 37.2638 180.539C38.7148 180.541 40.1467 180.209 41.4485 179.569C42.7535 178.912 43.9937 178.134 45.1526 177.245C46.3674 176.324 47.5442 175.381 48.6829 174.416C49.7351 173.512 50.8376 172.667 51.9851 171.886C53.0062 171.189 54.1691 170.726 55.3905 170.531C56.6127 170.346 57.8622 170.562 58.9507 171.146C59.7387 171.521 60.4229 172.082 60.9436 172.781C61.4643 173.48 61.8029 174.295 61.9352 175.156ZM125.071 93.0414C127.536 96.0379 127.617 98.4763 125.312 100.357C124.286 101.234 122.987 101.73 121.635 101.76L122.7 105.634C123.792 105.692 124.884 105.528 125.911 105.153C126.937 104.778 127.877 104.2 128.674 103.453C133.135 99.8011 133.343 95.5168 129.299 90.6002L109.879 66.9992L106.154 70.0337L125.071 93.0414ZM163.361 72.3122L148.216 82.2067L140.965 71.158L154.217 62.4881L151.733 58.714L138.48 67.3704L131.477 56.6983L146.141 47.1126L143.662 43.3358L124.965 55.5495L146.66 88.6035L165.829 76.0809L163.361 72.3122ZM205.089 48.3102L182.9 23.6552L178.644 25.4976L181.786 58.3835L160.789 33.2002L155.806 35.3541L182.566 66.8448L186.615 65.0918L183.701 31.7155L206.338 56.5601L210.387 54.8099L205.119 14.0235L200.809 15.8875L205.089 48.3102ZM225.953 9.14401L221.304 10.3686L231.395 48.5703L236.045 47.3456L225.953 9.14401ZM265.517 36.0287C264.092 37.4054 262.248 38.2699 260.276 38.4861C258.411 38.7435 256.513 38.5842 254.717 38.0201C252.913 37.5128 251.262 36.5713 249.908 35.2783L247.646 38.9223C249.056 40.7159 251.038 41.9741 253.264 42.4878C255.742 43.1797 258.338 43.3404 260.882 42.9593C264.171 42.6031 267.23 41.1018 269.52 38.7191C270.573 37.6464 271.354 36.3379 271.798 34.9028C272.242 33.4677 272.335 31.9476 272.07 30.4692C271.859 28.8198 271.252 27.2455 270.302 25.8796C269.473 24.6802 268.366 23.6979 267.076 23.0158C265.782 22.3591 264.429 21.824 263.035 21.4173C261.587 20.9838 260.138 20.5982 258.69 20.2604C257.344 19.9498 256.017 19.5645 254.714 19.1063C253.55 18.7034 252.494 18.0397 251.627 17.1664C250.764 16.2813 250.213 15.1401 250.057 13.9152C249.909 13.1219 249.948 12.3052 250.171 11.5294C250.393 10.7537 250.793 10.0401 251.339 9.44473C252.654 8.11805 254.395 7.29597 256.257 7.12284C257.723 6.86629 259.227 6.91231 260.675 7.25807C262.123 7.60383 263.484 8.24202 264.675 9.13318L266.72 5.18026C265.246 4.0369 263.523 3.2546 261.691 2.89628C259.596 2.43646 257.434 2.36846 255.315 2.69578C252.145 3.00698 249.216 4.52217 247.135 6.92775C246.247 7.9892 245.599 9.22897 245.233 10.5628C244.868 11.8965 244.796 13.2931 245.02 14.6575C245.225 16.2714 245.827 17.8098 246.771 19.1361C247.613 20.3142 248.715 21.2837 249.992 21.97C251.287 22.6457 252.643 23.1999 254.041 23.6254C255.5 24.0752 256.948 24.4788 258.386 24.8365C259.735 25.1647 261.064 25.5691 262.367 26.0476C263.532 26.4666 264.589 27.1384 265.463 28.0145C266.325 28.9 266.875 30.0411 267.03 31.2657C267.185 32.1213 267.129 33.0018 266.865 33.8305C266.602 34.6593 266.139 35.4112 265.517 36.0206V36.0287ZM317.337 0.612305L312.527 0.517468L312.193 17.6188L290.417 17.1934L290.751 0.0947954L285.944 0L285.17 39.5048L289.979 39.5969L290.33 21.7153L312.106 22.1407L311.756 40.0223L316.563 40.1144L317.337 0.612305ZM356.727 47.92C360.27 49.109 364.107 49.1033 367.646 47.9038C369.155 47.2719 370.486 46.2839 371.527 45.0247C372.568 43.7655 373.286 42.2729 373.621 40.6753C374.331 38.4788 374.181 36.0951 373.2 34.0049C372.117 31.9552 370.348 30.35 368.2 29.4695L368.23 29.3611C370.283 29.2924 372.269 28.6142 373.933 27.4131C375.572 26.1443 376.728 24.3549 377.208 22.3412C377.638 21.0484 377.762 19.6736 377.568 18.3252C377.375 16.9767 376.871 15.6915 376.095 14.5708C373.896 11.9744 370.874 10.2058 367.529 9.55854C365.601 9.03112 362.09 8.14516 356.996 6.90067L346.524 44.8883C349.137 45.7607 352.535 46.7713 356.719 47.92H356.727ZM368.07 33.91C368.665 34.6253 369.068 35.4793 369.243 36.3923C369.417 37.3054 369.356 38.2476 369.067 39.1309C368.857 40.1365 368.406 41.0765 367.753 41.8705C367.1 42.6645 366.264 43.2891 365.316 43.6908C363.002 44.4519 360.502 44.4348 358.199 43.642C355.762 42.9719 353.818 42.3605 352.368 41.8078L355.947 28.8517L362.112 30.5451C364.398 31.0251 366.479 32.1974 368.073 33.9019L368.07 33.91ZM372.295 22.1027C372.089 22.9958 371.679 23.8293 371.097 24.538C370.515 25.2468 369.776 25.8116 368.939 26.1885C367.111 26.9624 365.066 27.0585 363.174 26.4594L357.063 24.785L360.455 12.4846C363.214 13.124 365.139 13.5936 366.229 13.8935C371.39 15.3095 373.412 18.0496 372.295 22.1136V22.1027ZM399.02 45.2893L404.381 64.4822L409.839 66.6768L403.865 46.2646C406.297 46.6027 408.774 46.1465 410.925 44.9641C413.297 43.7106 415.118 41.6233 416.036 39.1066C418.969 31.8473 416.08 26.4666 407.37 22.9643C406.181 22.4839 404.652 21.8887 402.784 21.1789C400.915 20.469 399.141 19.7764 397.461 19.1008L382.656 55.7473L387.117 57.5409L393.04 42.8834L399.02 45.2893ZM411.292 37.2588C410.909 38.2501 410.295 39.136 409.5 39.8429C408.705 40.5497 407.752 41.0571 406.721 41.3228C404.539 41.9276 402.214 41.7659 400.136 40.8649L394.732 38.6974L400.231 25.0858C403.338 26.2544 405.066 26.9091 405.415 27.05C411.151 29.3547 413.109 32.7559 411.292 37.2588ZM442.739 39.7622L438.524 37.4512L419.455 72.0819L423.67 74.393L442.739 39.7622ZM441.978 85.821C443.13 86.7945 444.323 87.7762 445.557 88.766C447.798 90.8176 450.426 92.4038 453.287 93.4322C456.148 94.4607 459.186 94.9108 462.223 94.7564C464.934 94.5075 467.564 93.6965 469.942 92.3752C472.321 91.0539 474.397 89.2515 476.038 87.0835C477.646 85.1277 478.89 82.8996 479.709 80.5052C480.48 78.1817 480.768 75.7259 480.556 73.2876C480.273 70.5449 479.342 67.9081 477.841 65.593C475.986 62.7017 473.647 60.1495 470.927 58.0476C470.693 57.8669 469.289 56.7877 466.715 54.8099C465.448 53.8472 464.187 52.8592 462.932 51.8459L462.402 51.4205L437.574 82.204L438.06 82.5914C439.555 83.7944 440.865 84.8709 441.989 85.821H441.978ZM475.364 72.7024C475.654 74.6949 475.509 76.7263 474.941 78.6582C474.372 80.5901 473.393 82.3771 472.07 83.8974C470.797 85.6124 469.178 87.0419 467.317 88.0934C465.455 89.1448 463.393 89.7949 461.265 90.0015C456.575 90.1668 452.005 88.4997 448.528 85.355C448.469 85.3062 448.257 85.1355 447.928 84.8375C447.6 84.5395 447.062 84.0951 446.356 83.5018C445.65 82.9084 444.911 82.3069 444.148 81.6919L463.301 57.9473C463.681 58.2526 464.426 58.8143 465.536 59.6325C466.646 60.4507 467.461 61.0721 467.98 61.4965C471.785 64.1535 474.425 68.1643 475.364 72.7024ZM488.361 127.255L477.325 112.939L487.818 104.887L497.475 117.412L501.065 114.659L491.405 102.131L501.54 94.3554L512.234 108.224L515.821 105.472L502.194 87.7988L470.818 111.885L484.787 130.005L488.361 127.255ZM503.264 151.157C501.482 150.294 500.037 148.864 499.158 147.093C498.279 145.432 497.78 143.598 497.697 141.723C497.56 139.857 497.884 137.986 498.64 136.274L494.433 135.399C493.227 137.333 492.719 139.621 492.994 141.883C493.186 144.446 493.921 146.939 495.15 149.198C496.609 152.161 499.069 154.516 502.097 155.849C503.467 156.471 504.967 156.756 506.47 156.682C507.974 156.608 509.438 156.177 510.741 155.424C512.221 154.662 513.496 153.556 514.458 152.2C515.305 151.012 515.853 149.639 516.055 148.195C516.231 146.757 516.274 145.306 516.183 143.86C516.09 142.349 515.958 140.858 515.786 139.39C515.618 138.023 515.527 136.647 515.515 135.269C515.496 134.039 515.76 132.822 516.286 131.709C516.824 130.598 517.71 129.692 518.811 129.13C519.508 128.72 520.29 128.477 521.096 128.42C521.903 128.364 522.711 128.496 523.458 128.805C525.158 129.583 526.528 130.935 527.328 132.622C528.069 133.91 528.539 135.335 528.707 136.811C528.876 138.287 528.74 139.781 528.308 141.202L532.732 141.771C533.305 139.999 533.452 138.117 533.163 136.277C532.881 134.155 532.207 132.104 531.176 130.227C529.798 127.358 527.367 125.127 524.386 123.996C523.083 123.526 521.694 123.342 520.313 123.456C518.932 123.57 517.592 123.978 516.384 124.654C514.934 125.397 513.69 126.486 512.764 127.824C511.94 129.016 511.402 130.382 511.194 131.815C510.999 133.26 510.939 134.72 511.015 136.177C511.087 137.696 511.203 139.195 511.362 140.674C511.512 142.052 511.586 143.437 511.582 144.822C511.583 146.058 511.31 147.278 510.784 148.396C510.245 149.506 509.358 150.411 508.258 150.975C507.504 151.408 506.655 151.651 505.785 151.682C504.915 151.713 504.048 151.535 503.264 151.157Z" fill="white"/>
<path fill-rule="evenodd" clip-rule="evenodd" d="M238.864 170.938C238.864 172.669 239.463 172.759 250.994 172.759H263.123V224.127C263.123 252.379 263.363 276.129 263.657 276.905C264.04 277.914 276.222 266.013 306.56 234.994C329.863 211.168 349.059 191.106 349.219 190.411C349.379 189.716 349.141 189.148 348.69 189.148C348.239 189.148 334.067 203.135 317.196 220.231C297.305 240.388 286.355 250.869 286.045 250.048C285.78 249.353 285.671 231.78 285.8 210.999L286.035 173.215L298.389 172.961C310.001 172.723 310.743 172.6 310.743 170.913C310.743 169.156 309.973 169.117 274.804 169.117C239.463 169.117 238.864 169.147 238.864 170.938ZM281.038 287.046C255.323 313.101 244.183 323.814 243.198 323.432C239.317 321.922 238.847 315.037 242 305.892C243.984 300.135 244.111 299.023 243.123 296.032C241.47 291.032 238.008 288.839 231.832 288.88C222.67 288.941 217.278 294.701 217.32 304.384C217.36 313.52 224.07 321.988 234.252 325.75C237.283 326.87 239.762 328.03 239.762 328.33C239.762 328.629 235.841 332.863 231.048 337.739C226.255 342.614 222.629 346.903 222.991 347.27C223.353 347.636 227.982 343.595 233.278 338.29L242.907 328.643L251.443 328.122C256.137 327.836 261.091 327.335 262.449 327.01L264.92 326.419V408.574H252.341C242.399 408.574 239.762 408.831 239.762 409.8C239.762 411.463 315.516 412.808 323.771 411.292C338.178 408.647 347.775 404.03 355.71 395.928C364.829 386.616 367.858 378.195 367.179 364.052C366.688 353.816 363.952 347.627 356.65 340.227C350.535 334.031 341.867 329.396 331.858 326.972C328.398 326.135 324.962 325.263 324.221 325.038C323.479 324.811 325.097 324.048 327.814 323.342C340.635 320.015 352.147 311.576 357.254 301.764C359.464 297.516 361.08 295.739 361.059 287.551C361.039 280.187 359.29 278.004 357.715 274.505C355.271 269.075 347.729 260.917 342.293 257.824C337.294 254.98 327.074 251.468 321.525 250.687L317.482 250.118L281.038 287.046ZM322.248 257.49C331.134 262.654 335.304 272.483 335.356 288.391C335.407 303.363 332.673 311.998 326.07 317.724C320.942 322.172 317.492 323.002 301.534 323.622L287.382 324.172V283.404L301.523 269.053C309.3 261.161 316.073 254.706 316.573 254.711C317.073 254.716 319.627 255.967 322.248 257.49ZM263.955 311.065C262.528 320.209 258.054 324.8 250.561 324.806L246.535 324.81L255.486 315.705C260.409 310.698 264.485 306.6 264.545 306.6C264.604 306.6 264.338 308.61 263.955 311.065ZM320.091 328.012C336.244 332.276 343.896 349.399 341.283 375.433C340.753 380.715 339.472 387.328 338.437 390.13C336.305 395.906 330.778 402.489 326.058 404.875C319.169 408.357 306.672 410.039 295.012 409.055L287.382 408.411V326.631H301.12C310.501 326.631 316.518 327.069 320.091 328.012Z" fill="white"/>
</g>
</svg>
