<svg width="32" height="32" viewBox="0 0 32 32" fill="none" xmlns="http://www.w3.org/2000/svg">
<path d="M7.40731 12.277C7.40731 11.267 7.58406 10.3128 7.93236 9.42219C8.26513 8.55717 8.75955 7.76325 9.38925 7.08275C10.0177 6.41118 10.7368 5.83046 11.5258 5.35738C12.3354 4.86814 13.2118 4.49904 14.1277 4.26166C15.0546 4.01853 16.0091 3.89591 16.9674 3.89686C18.4477 3.89686 19.8253 4.20973 21.1028 4.83289C22.3637 5.44469 23.4369 6.38357 24.2102 7.55142C25.0082 8.73931 25.4046 10.083 25.4046 11.5812C25.4046 12.4796 25.3162 13.3585 25.1356 14.2179C24.9582 15.0769 24.6762 15.9109 24.296 16.7015C23.9336 17.4667 23.4597 18.1741 22.8898 18.8007C22.317 19.4173 21.6234 19.9096 20.852 20.247C20.0145 20.6136 19.1086 20.7981 18.1942 20.7883C17.5587 20.7883 16.9245 20.639 16.2981 20.3391C15.6717 20.0405 15.222 19.6303 14.9517 19.1045C14.8568 19.4693 14.7268 19.9964 14.554 20.6858C14.3876 21.3738 14.2759 21.8178 14.2265 22.0191C14.1745 22.219 14.0783 22.5526 13.938 23.0148C13.8428 23.3567 13.7206 23.6905 13.5728 24.0132L13.1257 24.8882C12.9323 25.2637 12.7162 25.627 12.4785 25.9761C12.2432 26.3163 11.9521 26.7226 11.6051 27.19L11.4115 27.2588L11.2828 27.1186C11.1437 25.6477 11.0723 24.7675 11.0723 24.4766C11.0723 23.6159 11.1749 22.65 11.3777 21.5777C11.5765 20.5066 11.891 19.1603 12.3134 17.5414C12.7358 15.9238 12.9775 14.9722 13.0425 14.6905C12.7449 14.0842 12.5941 13.2923 12.5941 12.3186C12.5941 11.5409 12.8372 10.8126 13.3245 10.1271C13.8132 9.44426 14.4305 9.10282 15.1791 9.10282C15.7522 9.10282 16.1967 9.29237 16.5151 9.67275C16.8348 10.0518 16.9908 10.5296 16.9908 11.1125C16.9908 11.7305 16.7854 12.625 16.3722 13.7947C15.9589 14.9657 15.7535 15.8394 15.7535 16.4197C15.7535 17.0078 15.9641 17.4999 16.3852 17.8855C16.8007 18.2712 17.3503 18.4803 17.9174 18.4684C18.4321 18.4684 18.909 18.3515 19.3522 18.1165C19.7885 17.8884 20.1661 17.5628 20.4556 17.1649C21.0862 16.3007 21.5358 15.3182 21.7773 14.2763C21.9021 13.7285 21.9983 13.2079 22.058 12.7184C22.1217 12.2264 22.149 11.7616 22.149 11.3202C22.149 9.70131 21.6344 8.43942 20.6116 7.53584C19.5835 6.63226 18.2449 6.18307 16.5983 6.18307C14.7255 6.18307 13.1595 6.78805 11.9053 8.00191C10.6499 9.21187 10.0183 10.7503 10.0183 12.6159C10.0183 13.0274 10.0806 13.4247 10.1989 13.809C10.3146 14.1919 10.4406 14.497 10.5771 14.7229C10.7123 14.9449 10.8396 15.1617 10.9553 15.3617C11.0723 15.5616 11.1333 15.7044 11.1333 15.7901C11.1333 16.0523 11.0645 16.3938 10.9254 16.8157C10.7811 17.2376 10.6109 17.4479 10.4056 17.4479C10.3861 17.4479 10.3055 17.4337 10.1651 17.4038C9.67901 17.2588 9.24002 16.9878 8.89279 16.6184C8.52426 16.2355 8.23342 15.7849 8.03633 15.2916C7.8398 14.8 7.68672 14.2922 7.57886 13.7739C7.46232 13.2835 7.40473 12.781 7.40731 12.277Z" fill="#333333"/>
</svg>
