<svg width="33" height="32" viewBox="0 0 33 32" fill="none" xmlns="http://www.w3.org/2000/svg">
<path d="M26.3293 10.4828C26.3465 10.724 26.3465 10.9638 26.3465 11.2036C26.3465 18.5429 20.9843 27 11.1847 27C8.16556 27 5.36076 26.089 3.00049 24.5067C3.42915 24.5577 3.84193 24.5756 4.28779 24.5756C6.68641 24.5817 9.01712 23.7461 10.9042 22.2036C9.79211 22.1826 8.71405 21.8004 7.82057 21.1103C6.92708 20.4201 6.26277 19.4566 5.92039 18.3541C6.24983 18.4051 6.58058 18.4395 6.92721 18.4395C7.40482 18.4395 7.88508 18.3706 8.33094 18.2507C7.12403 17.9969 6.03877 17.3154 5.2597 16.3221C4.48064 15.3288 4.05585 14.0851 4.05758 12.8024V12.7335C4.76804 13.1456 5.59229 13.4033 6.46548 13.4378C5.73397 12.9314 5.13415 12.2442 4.71954 11.4376C4.30493 10.631 4.08843 9.73003 4.08933 8.81506C4.08933 7.78411 4.35262 6.83862 4.81435 6.01441C6.15343 7.73039 7.82356 9.13422 9.71659 10.135C11.6096 11.1357 13.6833 11.7111 15.8034 11.8238C15.7213 11.4103 15.6711 10.9817 15.6711 10.5517C15.6707 9.82253 15.8083 9.10044 16.076 8.42672C16.3437 7.75299 16.7362 7.14084 17.2311 6.62524C17.7261 6.10965 18.3137 5.70073 18.9604 5.42186C19.6071 5.14299 20.3003 4.99964 21.0002 5C22.5349 5 23.9201 5.66984 24.8938 6.75316C26.0869 6.51282 27.231 6.0591 28.2755 5.4121C27.8778 6.69502 27.0447 7.78288 25.9324 8.47187C26.9905 8.34614 28.0247 8.05626 29.0005 7.61183C28.2717 8.71872 27.3686 9.68936 26.3293 10.4828Z" fill="#333333"/>
</svg>
