<svg width="15" height="18" viewBox="0 0 15 18" fill="none" xmlns="http://www.w3.org/2000/svg">
<path d="M4.25 8.24477H3.5V9.74477H4.25V8.24477ZM10.75 9.74477H11.5V8.24477H10.75V9.74477ZM4.25086 11.6711L3.50086 11.6702L3.49914 13.1702L4.24914 13.1711L4.25086 11.6711ZM10.7491 13.1786L11.4991 13.1794L11.5009 11.6794L10.7509 11.6786L10.7491 13.1786ZM4.25052 4.81843L3.50052 4.81791L3.49948 6.31791L4.24948 6.31843L4.25052 4.81843ZM8.58281 6.32143L9.33281 6.32195L9.33385 4.82195L8.58385 4.82143L8.58281 6.32143ZM10.75 1L11.2943 0.484034L11.0725 0.25H10.75V1ZM14 4.42857H14.75V4.12959L14.5443 3.91261L14 4.42857ZM4.25 9.74477H10.75V8.24477H4.25V9.74477ZM4.24914 13.1711L10.7491 13.1786L10.7509 11.6786L4.25086 11.6711L4.24914 13.1711ZM4.24948 6.31843L8.58281 6.32143L8.58385 4.82143L4.25052 4.81843L4.24948 6.31843ZM12.9167 16.25H2.08333V17.75H12.9167V16.25ZM1.75 15.8571V2.14286H0.25V15.8571H1.75ZM2.08333 1.75H10.75V0.25H2.08333V1.75ZM13.25 4.42857V15.8571H14.75V4.42857H13.25ZM10.2057 1.51597L13.4557 4.94454L14.5443 3.91261L11.2943 0.484034L10.2057 1.51597ZM2.08333 16.25C1.93653 16.25 1.75 16.1124 1.75 15.8571H0.25C0.25 16.8642 1.03352 17.75 2.08333 17.75V16.25ZM12.9167 17.75C13.9665 17.75 14.75 16.8642 14.75 15.8571H13.25C13.25 16.1124 13.0635 16.25 12.9167 16.25V17.75ZM1.75 2.14286C1.75 1.88758 1.93653 1.75 2.08333 1.75V0.25C1.03352 0.25 0.25 1.13577 0.25 2.14286H1.75Z" fill="#CB9274"/>
</svg>
