<svg width="19" height="16" viewBox="0 0 19 16" fill="none" xmlns="http://www.w3.org/2000/svg">
<path d="M16.8418 1.07031L6.05469 11.8574L2.11719 7.87891C1.91211 7.71484 1.58398 7.71484 1.41992 7.87891L0.230469 9.06836C0.0664062 9.23242 0.0664062 9.56055 0.230469 9.76562L5.72656 15.2207C5.93164 15.4258 6.21875 15.4258 6.42383 15.2207L18.7285 2.91602C18.8926 2.75195 18.8926 2.42383 18.7285 2.21875L17.5391 1.07031C17.375 0.865234 17.0469 0.865234 16.8418 1.07031Z" fill="#CB9274"/>
<path d="M6.05469 11.8574L5.77038 12.1388L6.05322 12.4246L6.33753 12.1403L6.05469 11.8574ZM2.11719 7.87891L2.40149 7.59753L2.38518 7.58105L2.36707 7.56656L2.11719 7.87891ZM0.230469 9.76562L-0.0818788 10.0155L-0.0675699 10.0334L-0.0513126 10.0495L0.230469 9.76562ZM5.72656 15.2207L6.00941 14.9379L6.00834 14.9368L5.72656 15.2207ZM18.7285 2.21875L19.0409 1.96887L19.0248 1.94882L19.0064 1.93099L18.7285 2.21875ZM17.5391 1.07031L17.2267 1.32019L17.2428 1.34024L17.2612 1.35807L17.5391 1.07031ZM16.559 0.78747L5.77184 11.5746L6.33753 12.1403L17.1246 1.35316L16.559 0.78747ZM6.33899 11.576L2.40149 7.59753L1.83288 8.16028L5.77038 12.1388L6.33899 11.576ZM2.36707 7.56656C2.18556 7.42136 1.96132 7.35586 1.75317 7.35586C1.54792 7.35586 1.31241 7.42073 1.13708 7.59606L1.70276 8.16175C1.6915 8.17302 1.70208 8.15586 1.75317 8.15586C1.80138 8.15586 1.84373 8.17239 1.86731 8.19125L2.36707 7.56656ZM1.13708 7.59606L-0.0523739 8.78552L0.513312 9.3512L1.70276 8.16175L1.13708 7.59606ZM-0.0523739 8.78552C-0.227705 8.96085 -0.292578 9.19636 -0.292578 9.40161C-0.292578 9.60975 -0.227082 9.834 -0.0818788 10.0155L0.542816 9.51575C0.523957 9.49217 0.507422 9.44982 0.507422 9.40161C0.507422 9.35052 0.52458 9.33993 0.513312 9.3512L-0.0523739 8.78552ZM-0.0513126 10.0495L5.44478 15.5046L6.00834 14.9368L0.51225 9.48172L-0.0513126 10.0495ZM5.44372 15.5035C5.61401 15.6738 5.83621 15.7745 6.0752 15.7745C6.31418 15.7745 6.53638 15.6738 6.70667 15.5035L6.14099 14.9379C6.1062 14.9726 6.08231 14.9745 6.0752 14.9745C6.06808 14.9745 6.04419 14.9726 6.00941 14.9379L5.44372 15.5035ZM6.70667 15.5035L19.0114 3.19886L18.4457 2.63317L6.14099 14.9379L6.70667 15.5035ZM19.0114 3.19886C19.1867 3.02353 19.2516 2.78802 19.2516 2.58276C19.2516 2.37462 19.1861 2.15038 19.0409 1.96887L18.4162 2.46863C18.435 2.4922 18.4516 2.53456 18.4516 2.58276C18.4516 2.63386 18.4344 2.64444 18.4457 2.63317L19.0114 3.19886ZM19.0064 1.93099L17.8169 0.782552L17.2612 1.35807L18.4507 2.50651L19.0064 1.93099ZM17.8514 0.820435C17.5115 0.395516 16.9006 0.445859 16.559 0.78747L17.1246 1.35316C17.1515 1.32627 17.1828 1.3165 17.2058 1.3165C17.2169 1.3165 17.2234 1.31873 17.2258 1.3198C17.2269 1.32031 17.2272 1.32059 17.227 1.32045C17.2268 1.32027 17.2266 1.32008 17.2267 1.32019L17.8514 0.820435Z" fill="white"/>
</svg>
