<svg width="31" height="24" viewBox="0 0 31 24" fill="none" xmlns="http://www.w3.org/2000/svg">
<path d="M28.2324 0.664063L9.0918 19.8047L2.32422 13.0371C1.98242 12.7637 1.50391 12.7637 1.16211 13.0371L0.410156 13.8574C0.0683594 14.1309 0.0683594 14.6777 0.410156 15.0195L8.54492 23.1543C8.81836 23.4277 9.36523 23.4277 9.63867 23.1543L30.1465 2.64648C30.4883 2.30469 30.4883 1.75781 30.1465 1.48438L29.3945 0.664063C29.0527 0.390625 28.5742 0.390625 28.2324 0.664063Z" fill="white"/>
<path d="M28.2324 0.664063L27.8576 0.195541L27.8317 0.2163L27.8082 0.239799L28.2324 0.664063ZM9.0918 19.8047L8.66753 20.229L9.0918 20.6532L9.51606 20.229L9.0918 19.8047ZM2.32422 13.0371L2.74848 12.6128L2.72498 12.5893L2.69904 12.5686L2.32422 13.0371ZM1.16211 13.0371L0.787292 12.5686L0.751119 12.5975L0.719817 12.6317L1.16211 13.0371ZM0.410156 13.8574L0.784973 14.3259L0.821146 14.297L0.852449 14.2629L0.410156 13.8574ZM30.1465 1.48438L29.7042 1.88981L29.7355 1.92396L29.7717 1.9529L30.1465 1.48438ZM29.3945 0.664063L29.8368 0.258628L29.8055 0.22448L29.7693 0.195541L29.3945 0.664063ZM27.8082 0.239799L8.66753 19.3804L9.51606 20.229L28.6567 1.08833L27.8082 0.239799ZM9.51606 19.3804L2.74848 12.6128L1.89995 13.4614L8.66753 20.229L9.51606 19.3804ZM2.69904 12.5686C2.13811 12.1198 1.34822 12.1198 0.787292 12.5686L1.53693 13.5056C1.65959 13.4075 1.82674 13.4075 1.9494 13.5056L2.69904 12.5686ZM0.719817 12.6317L-0.0321363 13.452L0.852449 14.2629L1.6044 13.4425L0.719817 12.6317ZM0.0353392 13.3889C-0.636218 13.9261 -0.560703 14.8972 -0.0141078 15.4438L0.83442 14.5953C0.777005 14.5379 0.753809 14.4687 0.753809 14.4128C0.753809 14.3581 0.7737 14.335 0.784973 14.3259L0.0353392 13.3889ZM-0.0141078 15.4438L8.12066 23.5786L8.96919 22.73L0.83442 14.5953L-0.0141078 15.4438ZM8.12066 23.5786C8.39536 23.8533 8.76763 23.9594 9.0918 23.9594C9.41596 23.9594 9.78823 23.8533 10.0629 23.5786L9.21441 22.73C9.21667 22.7278 9.20972 22.7355 9.18582 22.7442C9.1619 22.7529 9.12918 22.7594 9.0918 22.7594C9.05441 22.7594 9.0217 22.7529 8.99777 22.7442C8.97388 22.7355 8.96692 22.7278 8.96919 22.73L8.12066 23.5786ZM10.0629 23.5786L30.5707 3.07075L29.7222 2.22222L9.21441 22.73L10.0629 23.5786ZM30.5707 3.07075C31.1173 2.52415 31.1929 1.5531 30.5213 1.01585L29.7717 1.9529C29.7829 1.96192 29.8028 1.98508 29.8028 2.03979C29.8028 2.09565 29.7796 2.16481 29.7222 2.22222L30.5707 3.07075ZM30.5888 1.07894L29.8368 0.258628L28.9522 1.0695L29.7042 1.88981L30.5888 1.07894ZM29.7693 0.195541C29.2084 -0.253201 28.4185 -0.253201 27.8576 0.195541L28.6072 1.13258C28.7299 1.03445 28.897 1.03445 29.0197 1.13258L29.7693 0.195541Z" fill="#CB9274"/>
</svg>
