<svg width="16" height="19" viewBox="0 0 16 19" fill="none" xmlns="http://www.w3.org/2000/svg">
<path d="M15.2227 2.57031L13.4297 0.777344C13.1133 0.460938 12.6914 0.25 12.2344 0.25H6.1875C5.23828 0.25 4.5 1.02344 4.5 1.9375V3.625H1.6875C0.738281 3.625 0 4.39844 0 5.3125V16.5625C0 17.5117 0.738281 18.25 1.6875 18.25H9.5625C10.4766 18.25 11.25 17.5117 11.25 16.5625V14.875H14.0625C14.9766 14.875 15.75 14.1367 15.75 13.1875V3.76562C15.75 3.30859 15.5391 2.88672 15.2227 2.57031ZM9.35156 16.5625H1.89844C1.75781 16.5625 1.6875 16.4922 1.6875 16.3516V5.52344C1.6875 5.41797 1.75781 5.3125 1.89844 5.3125H4.5V13.1875C4.5 14.1367 5.23828 14.875 6.1875 14.875H9.5625V16.3516C9.5625 16.4922 9.45703 16.5625 9.35156 16.5625ZM13.8516 13.1875H6.39844C6.25781 13.1875 6.1875 13.1172 6.1875 12.9766V2.14844C6.1875 2.04297 6.25781 1.9375 6.39844 1.9375H10.125V5.03125C10.125 5.52344 10.4766 5.875 10.9688 5.875H14.0625V12.9766C14.0625 13.1172 13.957 13.1875 13.8516 13.1875ZM14.0625 4.1875H11.8125V1.9375H12.1289C12.1992 1.9375 12.2344 1.97266 12.2695 2.00781L13.9922 3.73047C14.0273 3.76562 14.0625 3.80078 14.0625 3.87109V4.1875Z" fill="#C7C7C7"/>
</svg>
