<svg width="9" height="17" viewBox="0 0 9 17" fill="none" xmlns="http://www.w3.org/2000/svg">
<path d="M7.3 2.36364C6.9134 2.36364 6.6 2.05838 6.6 1.68182C6.6 1.30526 6.9134 1 7.3 1C7.6866 1 8 1.30526 8 1.68182C8 2.05838 7.6866 2.36364 7.3 2.36364Z" stroke="#333333" stroke-width="1.5"/>
<path d="M7.3 9.18182C6.9134 9.18182 6.6 8.87656 6.6 8.5C6.6 8.12344 6.9134 7.81818 7.3 7.81818C7.6866 7.81818 8 8.12344 8 8.5C8 8.87656 7.6866 9.18182 7.3 9.18182Z" stroke="#333333" stroke-width="1.5"/>
<path d="M7.3 16C6.9134 16 6.6 15.6947 6.6 15.3182C6.6 14.9416 6.9134 14.6364 7.3 14.6364C7.6866 14.6364 8 14.9416 8 15.3182C8 15.6947 7.6866 16 7.3 16Z" stroke="#333333" stroke-width="1.5"/>
<path d="M1.7 2.36364C1.3134 2.36364 1 2.05838 1 1.68182C1 1.30526 1.3134 1 1.7 1C2.0866 1 2.4 1.30526 2.4 1.68182C2.4 2.05838 2.0866 2.36364 1.7 2.36364Z" stroke="#333333" stroke-width="1.5"/>
<path d="M1.7 9.18182C1.3134 9.18182 1 8.87656 1 8.5C1 8.12344 1.3134 7.81818 1.7 7.81818C2.0866 7.81818 2.4 8.12344 2.4 8.5C2.4 8.87656 2.0866 9.18182 1.7 9.18182Z" stroke="#333333" stroke-width="1.5"/>
<path d="M1.7 16C1.3134 16 1 15.6947 1 15.3182C1 14.9416 1.3134 14.6364 1.7 14.6364C2.0866 14.6364 2.4 14.9416 2.4 15.3182C2.4 15.6947 2.0866 16 1.7 16Z" stroke="#333333" stroke-width="1.5"/>
</svg>
