<svg width="18" height="18" viewBox="0 0 18 18" fill="none" xmlns="http://www.w3.org/2000/svg">
<path d="M1.5 11.2857L0.960449 10.7648L0.75 10.9827V11.2857H1.5ZM11.431 1L11.9706 0.479054C11.8293 0.332674 11.6345 0.25 11.431 0.25C11.2276 0.25 11.0328 0.332674 10.8915 0.479054L11.431 1ZM16.9483 6.71429L17.4878 7.23523C17.7684 6.94461 17.7684 6.48396 17.4878 6.19334L16.9483 6.71429ZM7.01724 17V17.75H7.33564L7.55679 17.5209L7.01724 17ZM1.5 17H0.75C0.75 17.4142 1.08579 17.75 1.5 17.75L1.5 17ZM2.03955 11.8067L11.9706 1.52095L10.8915 0.479054L0.960449 10.7648L2.03955 11.8067ZM10.8915 1.52095L16.4087 7.23523L17.4878 6.19334L11.9706 0.479054L10.8915 1.52095ZM16.4087 6.19334L6.47769 16.4791L7.55679 17.5209L17.4878 7.23523L16.4087 6.19334ZM7.01724 16.25H1.5V17.75H7.01724V16.25ZM2.25 17V11.2857H0.75V17H2.25ZM7.58114 4.94952L13.0984 10.6638L14.1775 9.62191L8.66024 3.90763L7.58114 4.94952ZM9.77586 17.75H17.5V16.25H9.77586V17.75Z" fill="#C7C7C7"/>
</svg>
