<svg width="18" height="18" viewBox="0 0 18 18" fill="none" xmlns="http://www.w3.org/2000/svg">
<path d="M1 11.2857L0.460449 10.7648L0.25 10.9827V11.2857H1ZM10.931 1L11.4706 0.479054C11.3293 0.332674 11.1345 0.25 10.931 0.25C10.7276 0.25 10.5328 0.332674 10.3915 0.479054L10.931 1ZM16.4483 6.71429L16.9878 7.23523C17.2684 6.94461 17.2684 6.48396 16.9878 6.19334L16.4483 6.71429ZM6.51724 17V17.75H6.83564L7.05679 17.5209L6.51724 17ZM1 17H0.25C0.25 17.4142 0.585786 17.75 1 17.75L1 17ZM1.53955 11.8067L11.4706 1.52095L10.3915 0.479054L0.460449 10.7648L1.53955 11.8067ZM10.3915 1.52095L15.9087 7.23523L16.9878 6.19334L11.4706 0.479054L10.3915 1.52095ZM15.9087 6.19334L5.97769 16.4791L7.05679 17.5209L16.9878 7.23523L15.9087 6.19334ZM6.51724 16.25H1V17.75H6.51724V16.25ZM1.75 17V11.2857H0.25V17H1.75ZM7.08114 4.94952L12.5984 10.6638L13.6775 9.62191L8.16024 3.90763L7.08114 4.94952ZM9.27586 17.75H17V16.25H9.27586V17.75Z" fill="white"/>
</svg>
