<svg width="32" height="32" viewBox="0 0 32 32" fill="none" xmlns="http://www.w3.org/2000/svg">
    <path fill-rule="evenodd" clip-rule="evenodd" d="M8.83245 0.239961C8.83245 0.468043 8.91125 0.479919 10.4272 0.479919H12.0219V7.24896C12.0219 10.9719 12.0534 14.1016 12.092 14.2039C12.1423 14.3368 13.744 12.7685 17.7325 8.68093C20.7962 5.54128 23.32 2.89752 23.341 2.80598C23.3621 2.71443 23.3308 2.63956 23.2715 2.63956C23.2122 2.63956 21.349 4.4827 19.1309 6.73557C16.5158 9.39181 15.0761 10.7729 15.0354 10.6648C15.0006 10.5731 14.9862 8.25752 15.0032 5.51897L15.0341 0.53991L16.6583 0.506556C18.185 0.475121 18.2825 0.458923 18.2825 0.2366C18.2825 0.00503808 18.1813 0 13.5575 0C8.91125 0 8.83245 0.00395962 8.83245 0.239961ZM14.3772 15.5402C10.9964 18.9737 9.53176 20.3854 9.4023 20.335C8.89199 20.136 8.83021 19.2287 9.24471 18.0237C9.50565 17.265 9.52231 17.1185 9.39237 16.7244C9.17514 16.0655 8.71988 15.7764 7.908 15.7818C6.70335 15.7899 5.99448 16.549 6.00003 17.825C6.00535 19.0289 6.88751 20.1447 8.22611 20.6404C8.62455 20.788 8.95058 20.941 8.95058 20.9805C8.95058 21.0199 8.43496 21.5778 7.80488 22.2203C7.17479 22.8627 6.69804 23.4279 6.74564 23.4763C6.79325 23.5245 7.40183 22.992 8.09807 22.2929L9.36402 21.0217L10.4862 20.9531C11.1034 20.9153 11.7547 20.8493 11.9333 20.8065L12.2581 20.7286V31.5548H10.6043C9.29716 31.5548 8.95058 31.5886 8.95058 31.7163C8.95058 31.9354 18.91 32.1127 19.9954 31.9129C21.8894 31.5644 23.1512 30.956 24.1944 29.8883C25.3932 28.6612 25.7916 27.5515 25.7023 25.6878C25.6376 24.3389 25.2779 23.5233 24.3179 22.5482C23.514 21.7317 22.3744 21.121 21.0585 20.8016C20.6037 20.6912 20.1519 20.5764 20.0544 20.5466C19.957 20.5167 20.1696 20.4162 20.5269 20.3232C22.2125 19.8848 23.726 18.7727 24.3973 17.4797C24.6879 16.9198 24.9004 16.6858 24.8976 15.6067C24.895 14.6363 24.665 14.3487 24.458 13.8876C24.1367 13.172 23.1451 12.097 22.4304 11.6894C21.7731 11.3147 20.4296 10.8519 19.7 10.7489L19.1685 10.6739L14.3772 15.5402ZM19.7951 11.6454C20.9634 12.3259 21.5116 13.6211 21.5185 15.7174C21.5251 17.6904 21.1656 18.8283 20.2976 19.5828C19.6234 20.169 19.1698 20.2783 17.0717 20.36L15.2113 20.4325V15.0603L17.0703 13.1691C18.0928 12.1292 18.9832 11.2786 19.0489 11.2792C19.1147 11.2799 19.4504 11.4447 19.7951 11.6454ZM12.1312 18.7054C11.9437 19.9104 11.3554 20.5153 10.3703 20.5161L9.84101 20.5166L11.0178 19.3168C11.665 18.6569 12.2009 18.117 12.2087 18.117C12.2165 18.117 12.1816 18.3818 12.1312 18.7054ZM19.5115 20.9386C21.6352 21.5005 22.6411 23.7568 22.2976 27.1875C22.2279 27.8835 22.0596 28.7551 21.9235 29.1242C21.6432 29.8854 20.9165 30.7528 20.296 31.0673C19.3903 31.5261 17.7473 31.7478 16.2143 31.6181L15.2113 31.5332V20.7566H17.0174C18.2508 20.7566 19.0417 20.8143 19.5115 20.9386Z" fill="black"/>
</svg>