<svg width="30" height="30" viewBox="0 0 30 30" fill="none" xmlns="http://www.w3.org/2000/svg">
<path d="M6.26288 9.576H8.19888V14.2H13.3349V9.576H15.2709V21H13.3349V15.992H8.19888V21H6.26288V9.576ZM17.3804 19.576C18.191 18.8613 18.9377 18.2267 19.6204 17.672C20.3137 17.1067 20.9057 16.5787 21.3964 16.088C21.8977 15.5867 22.287 15.1013 22.5644 14.632C22.8524 14.152 22.9964 13.6293 22.9964 13.064C22.9964 12.4987 22.8364 12.056 22.5164 11.736C22.207 11.4053 21.7804 11.24 21.2364 11.24C20.575 11.24 20.079 11.384 19.7484 11.672C19.4177 11.9493 19.1724 12.424 19.0124 13.096L17.2684 12.856C17.3644 12.4293 17.4977 12.024 17.6684 11.64C17.8497 11.2453 18.095 10.904 18.4044 10.616C18.7244 10.3173 19.1137 10.0827 19.5724 9.912C20.0417 9.73067 20.607 9.64 21.2684 9.64C22.4524 9.64 23.3537 9.944 23.9724 10.552C24.591 11.1493 24.9004 11.9493 24.9004 12.952C24.9004 13.5813 24.783 14.1467 24.5484 14.648C24.3244 15.1387 23.999 15.624 23.5724 16.104C23.1564 16.584 22.6497 17.0853 22.0524 17.608C21.4657 18.12 20.8044 18.712 20.0684 19.384H25.0444L24.8204 21H17.3804V19.864V19.576Z" fill="#7F7F7F"/>
</svg>
