<svg width="20" height="12" viewBox="0 0 20 12" fill="none" xmlns="http://www.w3.org/2000/svg">
<path d="M0.262875 0.575999H2.19888V5.2H7.33488V0.575999H9.27088V12H7.33488V6.992H2.19888V12H0.262875V0.575999ZM11.3804 10.576C12.191 9.86133 12.9377 9.22667 13.6204 8.672C14.3137 8.10667 14.9057 7.57867 15.3964 7.088C15.8977 6.58667 16.287 6.10133 16.5644 5.632C16.8524 5.152 16.9964 4.62933 16.9964 4.064C16.9964 3.49867 16.8364 3.056 16.5164 2.736C16.207 2.40533 15.7804 2.24 15.2364 2.24C14.575 2.24 14.079 2.384 13.7484 2.672C13.4177 2.94933 13.1724 3.424 13.0124 4.096L11.2684 3.856C11.3644 3.42933 11.4977 3.024 11.6684 2.64C11.8497 2.24533 12.095 1.904 12.4044 1.616C12.7244 1.31733 13.1137 1.08267 13.5724 0.912C14.0417 0.730666 14.607 0.639999 15.2684 0.639999C16.4524 0.639999 17.3537 0.943999 17.9724 1.552C18.591 2.14933 18.9004 2.94933 18.9004 3.952C18.9004 4.58133 18.783 5.14667 18.5484 5.648C18.3244 6.13867 17.999 6.624 17.5724 7.104C17.1564 7.584 16.6497 8.08533 16.0524 8.608C15.4657 9.12 14.8044 9.712 14.0684 10.384H19.0444L18.8204 12H11.3804V10.864V10.576Z" fill="#C7C7C7"/>
</svg>
