<svg width="30" height="30" viewBox="0 0 30 30" fill="none" xmlns="http://www.w3.org/2000/svg">
<path d="M6.26288 9.576H8.19888V14.2H13.3349V9.576H15.2709V21H13.3349V15.992H8.19888V21H6.26288V9.576ZM19.0124 17.72C19.087 18.4453 19.2844 18.9627 19.6044 19.272C19.935 19.5707 20.4577 19.72 21.1724 19.72C21.8017 19.72 22.2977 19.5707 22.6604 19.272C23.023 18.9733 23.2044 18.4987 23.2044 17.848C23.2044 17.2187 23.0337 16.7653 22.6924 16.488C22.3617 16.2107 21.871 16.072 21.2204 16.072H20.0204V14.456H21.3004C22.2177 14.456 22.7404 14.0507 22.8684 13.24C22.943 13.016 22.9644 12.7493 22.9324 12.44C22.8684 12.0133 22.6817 11.704 22.3724 11.512C22.063 11.3093 21.663 11.208 21.1724 11.208C20.5324 11.208 20.047 11.3467 19.7164 11.624C19.3964 11.8907 19.1564 12.328 18.9964 12.936L17.2684 12.696C17.3537 12.28 17.4817 11.8907 17.6524 11.528C17.8337 11.1547 18.079 10.8293 18.3884 10.552C18.6977 10.264 19.0764 10.04 19.5244 9.88C19.983 9.72 20.5377 9.64 21.1884 9.64C21.807 9.64 22.3457 9.72 22.8044 9.88C23.263 10.04 23.6417 10.2533 23.9404 10.52C24.239 10.7867 24.4577 11.096 24.5964 11.448C24.7457 11.8 24.8204 12.1733 24.8204 12.568C24.8204 13.7413 24.3084 14.5947 23.2844 15.128C23.9244 15.3947 24.383 15.7627 24.6604 16.232C24.9377 16.6907 25.0764 17.208 25.0764 17.784C25.0764 18.872 24.751 19.7307 24.1004 20.36C23.4604 20.9787 22.495 21.288 21.2044 21.288C20.4364 21.288 19.7964 21.1813 19.2844 20.968C18.7724 20.7547 18.3617 20.4773 18.0524 20.136C17.7537 19.7947 17.535 19.4107 17.3964 18.984C17.2684 18.5573 17.1937 18.136 17.1724 17.72H19.0124Z" fill="#7F7F7F"/>
</svg>
