<svg width="20" height="13" viewBox="0 0 20 13" fill="none" xmlns="http://www.w3.org/2000/svg">
<path d="M0.262875 0.575999H2.19888V5.2H7.33488V0.575999H9.27088V12H7.33488V6.992H2.19888V12H0.262875V0.575999ZM13.0124 8.72C13.087 9.44533 13.2844 9.96267 13.6044 10.272C13.935 10.5707 14.4577 10.72 15.1724 10.72C15.8017 10.72 16.2977 10.5707 16.6604 10.272C17.023 9.97333 17.2044 9.49867 17.2044 8.848C17.2044 8.21867 17.0337 7.76533 16.6924 7.488C16.3617 7.21067 15.871 7.072 15.2204 7.072H14.0204V5.456H15.3004C16.2177 5.456 16.7404 5.05067 16.8684 4.24C16.943 4.016 16.9644 3.74933 16.9324 3.44C16.8684 3.01333 16.6817 2.704 16.3724 2.512C16.063 2.30933 15.663 2.208 15.1724 2.208C14.5324 2.208 14.047 2.34667 13.7164 2.624C13.3964 2.89067 13.1564 3.328 12.9964 3.936L11.2684 3.696C11.3537 3.28 11.4817 2.89067 11.6524 2.528C11.8337 2.15467 12.079 1.82933 12.3884 1.552C12.6977 1.264 13.0764 1.04 13.5244 0.879999C13.983 0.719999 14.5377 0.639999 15.1884 0.639999C15.807 0.639999 16.3457 0.719999 16.8044 0.879999C17.263 1.04 17.6417 1.25333 17.9404 1.52C18.239 1.78667 18.4577 2.096 18.5964 2.448C18.7457 2.8 18.8204 3.17333 18.8204 3.568C18.8204 4.74133 18.3084 5.59467 17.2844 6.128C17.9244 6.39467 18.383 6.76267 18.6604 7.232C18.9377 7.69067 19.0764 8.208 19.0764 8.784C19.0764 9.872 18.751 10.7307 18.1004 11.36C17.4604 11.9787 16.495 12.288 15.2044 12.288C14.4364 12.288 13.7964 12.1813 13.2844 11.968C12.7724 11.7547 12.3617 11.4773 12.0524 11.136C11.7537 10.7947 11.535 10.4107 11.3964 9.984C11.2684 9.55733 11.1937 9.136 11.1724 8.72H13.0124Z" fill="#C7C7C7"/>
</svg>
