<svg width="30" height="30" viewBox="0 0 30 30" fill="none" xmlns="http://www.w3.org/2000/svg">
<path d="M11.5714 9H9.85714C9.38376 9 9 9.38376 9 9.85714V20.1429C9 20.6162 9.38376 21 9.85714 21H20.1429C20.6162 21 21 20.6162 21 20.1429V18.4286" stroke="#7F7F7F" stroke-width="1.5"/>
<path d="M9.57143 11H7.85714C7.38376 11 7 11.3838 7 11.8571V22.1429C7 22.6162 7.38376 23 7.85714 23H18.1429C18.6162 23 19 22.6162 19 22.1429V20.4286" stroke="#7F7F7F" stroke-width="1.5"/>
<path d="M19.1429 9.57143H20M23 14.7087L20.4286 12.1389L17.8571 14.7087L14.4286 10.4258L11 14.7143M11.8571 7H22.1429C22.6162 7 23 7.38376 23 7.85714V18.1429C23 18.6162 22.6162 19 22.1429 19H11.8571C11.3838 19 11 18.6162 11 18.1429V7.85714C11 7.38376 11.3838 7 11.8571 7Z" stroke="#7F7F7F" stroke-width="1.5"/>
</svg>
