<svg width="30" height="30" viewBox="0 0 30 30" fill="none" xmlns="http://www.w3.org/2000/svg">
<path d="M9.57143 12H7.85714C7.38376 12 7 12.3838 7 12.8571V23.1429C7 23.6162 7.38376 24 7.85714 24H18.1429C18.6162 24 19 23.6162 19 23.1429V21.4286" stroke="#7F7F7F" stroke-width="1.5"/>
<path d="M19.5 10H20.5M24 15.9935L21 12.9954L18 15.9935L14 10.9967L10 16M11 7H23C23.5523 7 24 7.44772 24 8V20C24 20.5523 23.5523 21 23 21H11C10.4477 21 10 20.5523 10 20V8C10 7.44772 10.4477 7 11 7Z" stroke="#7F7F7F" stroke-width="1.5"/>
</svg>
