<svg width="18" height="29" viewBox="0 0 18 29" fill="none" xmlns="http://www.w3.org/2000/svg">
<path fill-rule="evenodd" clip-rule="evenodd" d="M2.59684 0.216227C2.59684 0.421865 2.66859 0.432573 4.049 0.432573H5.50115V6.53551C5.50115 9.89215 5.52987 12.7139 5.56504 12.806C5.61087 12.9259 7.06936 11.5119 10.7014 7.82657C13.4912 4.99588 15.7894 2.61227 15.8085 2.52974C15.8277 2.4472 15.7992 2.3797 15.7452 2.3797C15.6912 2.3797 13.9945 4.04146 11.9747 6.07264C9.59341 8.4675 8.28239 9.71269 8.24528 9.61522C8.21366 9.53258 8.20054 7.44482 8.21603 4.97576L8.2441 0.48666L9.72314 0.456587C11.1133 0.428245 11.2022 0.413644 11.2022 0.213198C11.2022 0.00442249 11.11 -0.00012207 6.89952 -0.00012207C2.66859 -0.00012207 2.59684 0.00344892 2.59684 0.216227ZM7.64592 14.0109C4.56736 17.1065 3.23364 18.3792 3.11575 18.3338C2.65106 18.1545 2.5948 17.3364 2.97225 16.2499C3.20987 15.566 3.22503 15.4339 3.10671 15.0785C2.90889 14.4844 2.49433 14.2239 1.75502 14.2287C0.658059 14.236 0.012552 14.9204 0.0176076 16.0708C0.0224481 17.1562 0.825757 18.1622 2.0447 18.6092C2.40753 18.7423 2.70441 18.8802 2.70441 18.9158C2.70441 18.9514 2.23488 19.4544 1.66112 20.0336C1.08736 20.6128 0.653219 21.1224 0.696568 21.166C0.739918 21.2095 1.2941 20.7294 1.9281 20.0991L3.08089 18.953L4.10278 18.8911C4.66481 18.857 5.25783 18.7975 5.42047 18.7589L5.71628 18.6887V28.4496H4.21035C3.02001 28.4496 2.70441 28.4801 2.70441 28.5952C2.70441 28.7927 11.7736 28.9526 12.7619 28.7725C14.4866 28.4582 15.6357 27.9097 16.5856 26.947C17.6773 25.8407 18.04 24.8402 17.9587 23.1599C17.8998 21.9438 17.5723 21.2084 16.6981 20.3293C15.966 19.5931 14.9283 19.0425 13.73 18.7545C13.3159 18.655 12.9044 18.5515 12.8157 18.5246C12.7269 18.4977 12.9206 18.407 13.246 18.3232C14.7808 17.9279 16.1591 16.9253 16.7704 15.7595C17.035 15.2547 17.2285 15.0437 17.2259 14.0708C17.2235 13.1959 17.0141 12.9366 16.8257 12.5209C16.5331 11.8757 15.6301 10.9065 14.9793 10.539C14.3808 10.2012 13.1573 9.78386 12.493 9.69105L12.0089 9.62344L7.64592 14.0109ZM12.5796 10.4993C13.6434 11.1129 14.1426 12.2806 14.1489 14.1706C14.1549 15.9494 13.8276 16.9754 13.0372 17.6557C12.4232 18.1842 12.0101 18.2828 10.0996 18.3564L8.40545 18.4218V13.5782L10.0983 11.8731C11.0294 10.9355 11.8403 10.1686 11.9001 10.1692C11.96 10.1698 12.2657 10.3183 12.5796 10.4993ZM5.60075 16.8646C5.42994 17.951 4.89425 18.4964 3.99725 18.4971L3.51525 18.4976L4.58683 17.4158C5.17619 16.8209 5.66422 16.3341 5.67132 16.3341C5.67841 16.3341 5.64658 16.5728 5.60075 16.8646ZM12.3213 18.878C14.2551 19.3846 15.1712 21.4189 14.8584 24.512C14.7949 25.1396 14.6416 25.9253 14.5177 26.2582C14.2625 26.9444 13.6007 27.7265 13.0357 28.0101C12.2109 28.4237 10.7148 28.6236 9.3188 28.5067L8.40545 28.4301V18.7139H10.0501C11.1733 18.7139 11.8935 18.766 12.3213 18.878Z" fill="#F5F5F5"/>
</svg>
