<svg width="17" height="17" viewBox="0 0 17 17" fill="none" xmlns="http://www.w3.org/2000/svg">
<path d="M5.5 7.5L2.32843 10.6716C1.79799 11.202 1.5 11.9214 1.5 12.6716C1.5 14.2337 2.76633 15.5 4.32843 15.5C5.07857 15.5 5.79799 15.202 6.32843 14.6716L9.5 11.5M11.5 9.5L14.6716 6.32843C15.202 5.79799 15.5 5.07857 15.5 4.32843C15.5 2.76633 14.2337 1.5 12.6716 1.5C11.9214 1.5 11.202 1.79799 10.6716 2.32843L7.5 5.5M5.5 11.5L11.5 5.5M4 5.5H1M5.5 1V4M11.5 13V16M13 11.5H16" stroke="#7F7F7F" stroke-width="1.5"/>
</svg>
