<svg width="18" height="19" viewBox="0 0 18 19" fill="none" xmlns="http://www.w3.org/2000/svg">
<path d="M17.4727 0.25L11.7422 0.285156C11.4609 0.285156 11.25 0.496094 11.25 0.777344V1.9375C11.25 2.21875 11.4609 2.46484 11.7422 2.46484L14.3438 2.35938L14.4141 2.42969L4.60547 12.2383C4.53516 12.3086 4.46484 12.4141 4.46484 12.5195C4.46484 12.6602 4.53516 12.7656 4.60547 12.8359L5.41406 13.6445C5.48438 13.7148 5.58984 13.7852 5.73047 13.7852C5.83594 13.7852 5.94141 13.7148 6.01172 13.6445L15.8203 3.83594L15.8906 3.90625L15.7852 6.50781C15.7852 6.78906 16.0312 7.03516 16.3125 7.03516V7H17.4727C17.7539 7 17.9648 6.78906 17.9648 6.50781L18 0.777344C18 0.496094 17.7539 0.25 17.4727 0.25ZM15.1875 10.375H14.625C14.3086 10.375 14.0625 10.6562 14.0625 10.9375V16.3516C14.0625 16.4922 13.957 16.5625 13.8516 16.5625H1.89844C1.75781 16.5625 1.6875 16.4922 1.6875 16.3516V4.39844C1.6875 4.29297 1.75781 4.1875 1.89844 4.1875H7.3125C7.59375 4.1875 7.875 3.94141 7.875 3.625V3.0625C7.875 2.78125 7.59375 2.5 7.3125 2.5H1.6875C0.738281 2.5 0 3.27344 0 4.1875V16.5625C0 17.5117 0.738281 18.25 1.6875 18.25H14.0625C14.9766 18.25 15.75 17.5117 15.75 16.5625V10.9375C15.75 10.6562 15.4688 10.375 15.1875 10.375Z" fill="#C7C7C7"/>
</svg>
