<svg width="19" height="19" viewBox="0 0 19 19" fill="none" xmlns="http://www.w3.org/2000/svg">
<path d="M12.4609 6.78906C12.25 6.57812 12.0039 6.36719 11.7578 6.19141C11.5117 6.01562 11.2305 6.05078 11.0195 6.22656L10.2812 6.96484C10 7.28125 9.85938 7.66797 9.85938 8.01953C9.85938 8.23047 9.96484 8.37109 10.1055 8.47656C10.2109 8.54688 10.3516 8.65234 10.4922 8.75781C11.4766 9.77734 11.4766 11.3594 10.4922 12.3438L8.10156 14.6992C7.11719 15.7188 5.5 15.7188 4.51562 14.6992C3.53125 13.7148 3.56641 12.0977 4.55078 11.1133L5.00781 10.6562C5.18359 10.5156 5.21875 10.2695 5.14844 10.0586C4.9375 9.46094 4.83203 8.82812 4.79688 8.23047C4.79688 7.73828 4.19922 7.49219 3.84766 7.84375L2.54688 9.14453C0.472656 11.2188 0.472656 14.6289 2.54688 16.7031C4.62109 18.7773 8.03125 18.7773 10.1055 16.7031L12.4609 14.3477C12.4609 14.3477 12.4609 14.3477 12.4609 14.3125C14.5352 12.2734 14.5703 8.89844 12.4609 6.78906ZM17.418 1.83203C15.3438 -0.242188 11.9336 -0.242188 9.85938 1.83203L7.50391 4.1875C7.50391 4.1875 7.50391 4.1875 7.50391 4.22266C5.42969 6.26172 5.39453 9.63672 7.50391 11.7461C7.71484 11.957 7.96094 12.168 8.20703 12.3438C8.45312 12.5195 8.73438 12.4844 8.94531 12.3086L9.68359 11.5703C9.96484 11.2539 10.1055 10.8672 10.1055 10.5156C10.1055 10.3047 10 10.1641 9.85938 10.0586C9.75391 9.98828 9.61328 9.88281 9.47266 9.77734C8.48828 8.75781 8.48828 7.17578 9.47266 6.19141L11.8633 3.83594C12.8477 2.81641 14.4648 2.81641 15.4492 3.83594C16.4336 4.82031 16.3984 6.4375 15.4141 7.42188L14.957 7.87891C14.7812 8.01953 14.7461 8.26562 14.8164 8.47656C15.0273 9.07422 15.1328 9.70703 15.168 10.3047C15.168 10.7969 15.7656 11.043 16.1172 10.6914L17.418 9.39062C19.4922 7.31641 19.4922 3.90625 17.418 1.83203Z" fill="#E0E0E0"/>
</svg>
