<svg width="70" height="69" viewBox="0 0 70 69" fill="none" xmlns="http://www.w3.org/2000/svg">
<path d="M66.6263 22.4147C66.6179 22.4195 66.514 22.4039 66.3147 22.368C66.1106 22.3241 65.8744 22.2824 65.6061 22.2431C65.3378 22.2037 65.1287 22.1894 64.9788 22.2001C65.0657 22.311 65.2101 22.4534 65.4118 22.6271C65.6051 22.8057 65.7821 22.9562 65.9427 23.0785C66.0949 23.2057 66.1733 23.2732 66.178 23.2813C66.279 23.4163 66.3289 23.5591 66.3275 23.7098C66.3131 23.8572 66.2753 23.9645 66.214 24.0316C66.1294 24.0586 66.0195 24.0518 65.8843 24.0113C65.7445 23.9627 65.6217 23.8669 65.516 23.7239C65.5113 23.7159 65.4807 23.6156 65.4242 23.4231C65.363 23.2225 65.2901 23.0018 65.2055 22.7611C65.1079 22.5171 65.0197 22.3373 64.9411 22.2216C64.8903 22.3257 64.8414 22.4714 64.7945 22.6588C64.743 22.8381 64.7016 23.0063 64.6705 23.1633C64.6394 23.3203 64.6119 23.4645 64.5881 23.5959L64.547 23.8121C64.4395 23.9913 64.3249 24.1104 64.2031 24.1693C64.073 24.233 63.9706 24.2487 63.896 24.2164C63.8177 24.1969 63.7662 24.1085 63.7415 23.9514C63.7167 23.7942 63.7479 23.6372 63.8349 23.4804C63.8386 23.4676 63.91 23.3893 64.0492 23.2454C64.1837 23.0936 64.3363 22.9154 64.507 22.7107C64.6776 22.5061 64.8028 22.3382 64.8824 22.207C64.7372 22.2258 64.5376 22.2756 64.2837 22.3565C64.0298 22.4375 63.8056 22.5121 63.6112 22.5804C63.4084 22.6534 63.3005 22.6883 63.2875 22.6851C63.1125 22.7102 62.963 22.6832 62.8389 22.6043C62.7064 22.5301 62.6316 22.4497 62.6146 22.3631C62.6152 22.2878 62.6713 22.2022 62.7827 22.1064C62.8811 22.0073 63.0285 21.9445 63.2249 21.9179C63.2463 21.9163 63.359 21.9375 63.5631 21.9815C63.7625 22.0174 63.9964 22.055 64.2647 22.0944C64.5246 22.1385 64.7295 22.1552 64.8794 22.1445C64.7924 22.0336 64.6523 21.8889 64.4589 21.7103C64.2572 21.5365 64.0803 21.3861 63.9281 21.2589C63.7628 21.1285 63.6778 21.0593 63.6731 21.0513C63.5721 20.9163 63.5288 20.7751 63.5432 20.6277C63.5446 20.477 63.5801 20.3657 63.6497 20.2938C63.7343 20.2668 63.8466 20.2776 63.9864 20.3262C64.1132 20.3715 64.2294 20.4656 64.3351 20.6086L64.4269 20.9095C64.4881 21.1101 64.5676 21.3324 64.6652 21.5763C64.7582 21.8123 64.8463 21.9921 64.9296 22.1158C64.9684 22.0294 65.0104 21.9197 65.0556 21.7868C65.0961 21.6459 65.1324 21.5073 65.1646 21.3712C65.1837 21.2318 65.2074 21.1004 65.2359 20.9771C65.2513 20.8505 65.2677 20.7447 65.2851 20.6598L65.3042 20.5204C65.4116 20.3413 65.5304 20.2198 65.6606 20.1561C65.7824 20.0972 65.8871 20.0855 65.9747 20.1211C66.0493 20.1534 66.0967 20.2441 66.1167 20.3933C66.1368 20.5424 66.1033 20.6954 66.0163 20.8522C66.0126 20.865 65.9435 20.9473 65.809 21.0992C65.6698 21.243 65.5172 21.4212 65.3512 21.6339C65.1806 21.8385 65.0596 22.004 64.9883 22.1304C65.1335 22.1117 65.3331 22.0618 65.587 21.9809C65.841 21.9 66.0651 21.8254 66.2595 21.7571C66.4492 21.6808 66.5506 21.6442 66.5637 21.6475C66.7387 21.6224 66.8924 21.6469 67.0249 21.7211C67.149 21.8001 67.2196 21.8829 67.2366 21.9695C67.2359 22.0448 67.1864 22.132 67.088 22.2311C66.9766 22.3269 66.8227 22.3881 66.6263 22.4147Z" fill="#F5F5F5"/>
<path d="M11.032 14.3674C11.0237 14.3721 10.9198 14.3566 10.7204 14.3207C10.5163 14.2767 10.2801 14.2351 10.0118 14.1957C9.74349 14.1564 9.5344 14.142 9.38451 14.1528C9.47148 14.2637 9.61582 14.406 9.81754 14.5798C10.0109 14.7584 10.1878 14.9088 10.3484 15.0312C10.5006 15.1583 10.5791 15.2259 10.5838 15.2339C10.6848 15.3689 10.7346 15.5117 10.7332 15.6624C10.7188 15.8098 10.681 15.9171 10.6198 15.9842C10.5351 16.0112 10.4252 16.0044 10.2901 15.9639C10.1502 15.9154 10.0275 15.8196 9.92176 15.6766C9.91708 15.6686 9.88648 15.5683 9.82997 15.3757C9.76877 15.1751 9.69587 14.9545 9.61126 14.7138C9.5136 14.4698 9.42547 14.29 9.34687 14.1743C9.296 14.2783 9.24713 14.424 9.20027 14.6114C9.14872 14.7908 9.10737 14.959 9.07624 15.116C9.0451 15.273 9.01764 15.4171 8.99387 15.5485L8.95269 15.7648C8.84527 15.944 8.73066 16.063 8.60887 16.1219C8.47872 16.1856 8.37634 16.2013 8.30174 16.169C8.22345 16.1495 8.17194 16.0612 8.14721 15.904C8.12248 15.7468 8.15361 15.5898 8.24062 15.433C8.2443 15.4202 8.31574 15.3419 8.45494 15.1981C8.58946 15.0462 8.74205 14.868 8.9127 14.6634C9.08336 14.4588 9.20851 14.2909 9.28815 14.1597C9.14295 14.1784 8.94338 14.2283 8.68943 14.3092C8.43549 14.3901 8.21132 14.4647 8.01693 14.533C7.81418 14.6061 7.70627 14.641 7.69323 14.6377C7.51825 14.6628 7.3687 14.6359 7.24459 14.5569C7.11212 14.4828 7.03735 14.4024 7.0203 14.3157C7.02098 14.2404 7.07703 14.1548 7.18846 14.059C7.28683 13.9599 7.43422 13.8971 7.63061 13.8705C7.65202 13.869 7.76477 13.8902 7.96884 13.9341C8.16824 13.9701 8.40209 14.0077 8.6704 14.047C8.93035 14.0912 9.13527 14.1079 9.28515 14.0971C9.19818 13.9863 9.05802 13.8415 8.86467 13.663C8.66296 13.4892 8.486 13.3387 8.33379 13.2116C8.16853 13.0812 8.08356 13.012 8.07888 13.0039C7.97786 12.869 7.93456 12.7278 7.94897 12.5803C7.95033 12.4297 7.98581 12.3184 8.05541 12.2465C8.14005 12.2195 8.2523 12.2303 8.39214 12.2788C8.51893 12.3241 8.63518 12.4183 8.74088 12.5613L8.83267 12.8622C8.89387 13.0627 8.97329 13.285 9.07095 13.529C9.16392 13.7649 9.25205 13.9448 9.33534 14.0685C9.37416 13.982 9.41617 13.8724 9.46135 13.7395C9.50185 13.5985 9.53818 13.46 9.57031 13.3238C9.5894 13.1844 9.61318 13.0531 9.64163 12.9297C9.65704 12.8031 9.67345 12.6974 9.69086 12.6125L9.70995 12.4731C9.81737 12.2939 9.93616 12.1725 10.0663 12.1088C10.1881 12.0499 10.2928 12.0382 10.3805 12.0737C10.4551 12.106 10.5024 12.1968 10.5225 12.3459C10.5425 12.4951 10.509 12.648 10.422 12.8048C10.4183 12.8177 10.3492 12.9 10.2147 13.0518C10.0755 13.1956 9.92293 13.3739 9.75696 13.5865C9.5863 13.7912 9.46533 13.9567 9.39405 14.0831C9.53926 14.0643 9.73883 14.0145 9.99278 13.9336C10.2467 13.8526 10.4709 13.778 10.6653 13.7097C10.855 13.6334 10.9564 13.5969 10.9694 13.6001C11.1444 13.5751 11.2981 13.5996 11.4306 13.6738C11.5547 13.7527 11.6253 13.8355 11.6423 13.9221C11.6417 13.9975 11.5921 14.0847 11.4938 14.1837C11.3823 14.2796 11.2284 14.3408 11.032 14.3674Z" fill="#F5F5F5"/>
<path d="M32.4895 66.1923C32.4811 66.1971 32.3772 66.1815 32.1778 66.1456C31.9737 66.1016 31.7376 66.06 31.4692 66.0206C31.2009 65.9813 30.9918 65.967 30.8419 65.9777C30.9289 66.0886 31.0733 66.2309 31.275 66.4047C31.4683 66.5833 31.6453 66.7338 31.8059 66.8561C31.9581 66.9832 32.0365 67.0508 32.0412 67.0589C32.1422 67.1938 32.192 67.3367 32.1907 67.4874C32.1763 67.6348 32.1384 67.7421 32.0772 67.8092C31.9926 67.8362 31.8827 67.8294 31.7475 67.7889C31.6077 67.7403 31.4849 67.6445 31.3792 67.5015C31.3745 67.4935 31.3439 67.3932 31.2874 67.2007C31.2262 67.0001 31.1533 66.7794 31.0687 66.5387C30.971 66.2947 30.8829 66.1149 30.8043 65.9992C30.7534 66.1032 30.7046 66.249 30.6577 66.4364C30.6062 66.6157 30.5648 66.7839 30.5337 66.9409C30.5025 67.0979 30.4751 67.2421 30.4513 67.3734L30.4101 67.5897C30.3027 67.7689 30.1881 67.8879 30.0663 67.9469C29.9362 68.0106 29.8338 68.0262 29.7592 67.9939C29.6809 67.9744 29.6294 67.8861 29.6046 67.7289C29.5799 67.5718 29.611 67.4148 29.6981 67.258C29.7017 67.2451 29.7732 67.1668 29.9124 67.023C30.0469 66.8712 30.1995 66.6929 30.3701 66.4883C30.5408 66.2837 30.6659 66.1158 30.7456 65.9846C30.6004 66.0034 30.4008 66.0532 30.1469 66.1341C29.8929 66.215 29.6688 66.2896 29.4744 66.3579C29.2716 66.431 29.1637 66.4659 29.1507 66.4627C28.9757 66.4878 28.8261 66.4608 28.702 66.3819C28.5695 66.3077 28.4948 66.2273 28.4777 66.1407C28.4784 66.0653 28.5345 65.9798 28.6459 65.8839C28.7443 65.7849 28.8917 65.722 29.088 65.6954C29.1095 65.6939 29.2222 65.7151 29.4263 65.7591C29.6257 65.795 29.8595 65.8326 30.1278 65.872C30.3878 65.9161 30.5927 65.9328 30.7426 65.9221C30.6556 65.8112 30.5155 65.6665 30.3221 65.4879C30.1204 65.3141 29.9434 65.1636 29.7912 65.0365C29.626 64.9061 29.541 64.8369 29.5363 64.8289C29.4353 64.6939 29.392 64.5527 29.4064 64.4053C29.4078 64.2546 29.4432 64.1433 29.5128 64.0714C29.5975 64.0444 29.7097 64.0552 29.8496 64.1038C29.9764 64.149 30.0926 64.2432 30.1983 64.3862L30.2901 64.6871C30.3513 64.8877 30.4307 65.1099 30.5284 65.3539C30.6214 65.5899 30.7095 65.7697 30.7928 65.8934C30.8316 65.807 30.8736 65.6973 30.9188 65.5644C30.9593 65.4234 30.9956 65.2849 31.0277 65.1488C31.0468 65.0094 31.0706 64.878 31.0991 64.7547C31.1145 64.6281 31.1309 64.5223 31.1483 64.4374L31.1674 64.298C31.2748 64.1188 31.3936 63.9974 31.5237 63.9337C31.6455 63.8748 31.7503 63.8631 31.8379 63.8987C31.9125 63.931 31.9598 64.0217 31.9799 64.1708C31.9999 64.32 31.9665 64.473 31.8795 64.6298C31.8758 64.6426 31.8067 64.7249 31.6722 64.8768C31.533 65.0206 31.3804 65.1988 31.2144 65.4115C31.0437 65.6161 30.9228 65.7816 30.8515 65.908C30.9967 65.8893 31.1963 65.8394 31.4502 65.7585C31.7042 65.6776 31.9283 65.603 32.1227 65.5347C32.3124 65.4583 32.4138 65.4218 32.4268 65.4251C32.6018 65.4 32.7556 65.4245 32.888 65.4987C33.0121 65.5777 33.0827 65.6604 33.0998 65.7471C33.0991 65.8224 33.0496 65.9096 32.9512 66.0087C32.8398 66.1045 32.6859 66.1657 32.4895 66.1923Z" fill="#F5F5F5"/>
<path fill-rule="evenodd" clip-rule="evenodd" d="M65.5209 29.2116C65.0874 29.3809 64.8057 29.3013 64.6756 28.9727C64.6132 28.825 64.6041 28.6605 64.6499 28.5069L64.1685 28.4863C64.1222 28.6073 64.1011 28.7363 64.1063 28.8655C64.1116 28.9948 64.1431 29.1217 64.199 29.2386C64.453 29.8747 64.9349 30.0538 65.6445 29.7762L69.0523 28.4429L68.841 27.913L65.5209 29.2116ZM65.7726 34.5228L65.795 32.3771L67.3799 32.3932L67.3601 34.2708L67.9021 34.2762L67.9216 32.3986L69.4522 32.4144L69.4307 34.4932L69.9724 34.4987L70 31.8498L65.2592 31.8015L65.2306 34.5173L65.7726 34.5228ZM65.5629 40.1997L69.4769 39.4986L69.5562 38.9546L65.9975 37.2193L69.8891 36.6721L69.9821 36.0351L65.0843 36.7716L65.0089 37.2892L68.601 39.0763L64.6412 39.8112L64.5658 40.3291L69.0627 42.3406L69.143 41.7896L65.5629 40.1997ZM68.3315 44.674L68.4882 44.1268L63.9259 42.8489L63.7692 43.3961L68.3315 44.674ZM63.1655 47.0883C63.1082 46.8601 63.1293 46.6196 63.2253 46.4046C63.3104 46.1979 63.4409 46.0126 63.6073 45.8622C63.7684 45.7075 63.9653 45.5942 64.1808 45.5322L63.9383 45.0832C63.6675 45.121 63.4179 45.2494 63.2308 45.4469C63.0101 45.6596 62.8375 45.9162 62.7243 46.1998C62.5639 46.5584 62.5361 46.9615 62.646 47.3384C62.694 47.5104 62.7829 47.6685 62.9052 47.7995C63.0276 47.9305 63.1798 48.0307 63.3492 48.0916C63.5331 48.1683 63.7329 48.2 63.9318 48.184C64.1061 48.1701 64.2745 48.1149 64.4227 48.023C64.5686 47.9294 64.7054 47.8226 64.8314 47.704C64.9638 47.5804 65.0908 47.4548 65.2124 47.3271C65.3251 47.2077 65.4445 47.0947 65.57 46.9885C65.6817 46.893 65.8141 46.8241 65.9569 46.7873C66.1004 46.7512 66.2519 46.7625 66.3883 46.8195C66.4796 46.8515 66.562 46.9042 66.6292 46.9732C66.6963 47.0423 66.7463 47.1258 66.7752 47.2173C66.8344 47.4315 66.8153 47.6595 66.7212 47.8611C66.6596 48.0268 66.5644 48.1783 66.4413 48.3062C66.3183 48.4341 66.1702 48.5357 66.006 48.6047L66.2934 49.0499C66.5011 48.9682 66.6866 48.8393 66.8347 48.6736C67.0085 48.4857 67.1454 48.2673 67.2385 48.0298C67.3965 47.6862 67.4152 47.2957 67.2905 46.9389C67.2335 46.7848 67.1436 46.6447 67.027 46.5281C66.9105 46.4115 66.7699 46.321 66.6149 46.2629C66.4351 46.1877 66.2394 46.1577 66.045 46.1754C65.8721 46.1913 65.7053 46.2464 65.5573 46.3363C65.4093 46.4288 65.2703 46.5347 65.1422 46.6527C65.0078 46.7753 64.8787 46.9001 64.755 47.0271C64.6398 47.1459 64.518 47.2582 64.3902 47.3635C64.2766 47.4578 64.1434 47.526 64.0001 47.5634C63.8565 47.5994 63.7051 47.5881 63.5686 47.5312C63.4703 47.4961 63.3821 47.4376 63.3118 47.361C63.2416 47.2843 63.1913 47.1918 63.1655 47.0915V47.0883ZM63.7702 54.5008L64.0657 54.0115L62.3043 52.9686L63.6424 50.7527L65.4039 51.7956L65.6991 51.3064L61.63 48.8973L61.3344 49.3866L63.1772 50.4775L61.839 52.6934L59.9963 51.6025L59.7008 52.0918L63.7702 54.5008ZM56.5121 55.7694C56.1784 56.0649 55.9522 56.4607 55.868 56.896C55.8444 57.0886 55.8685 57.284 55.9383 57.4653C56.008 57.6466 56.1212 57.8084 56.2682 57.9367C56.4553 58.1389 56.7129 58.2633 56.989 58.285C57.2667 58.2937 57.5387 58.2056 57.7576 58.0362L57.7673 58.0455C57.6532 58.261 57.6065 58.5054 57.6334 58.7472C57.6685 58.9907 57.7868 59.215 57.9686 59.3827C58.0781 59.5031 58.2144 59.5967 58.3668 59.656C58.5191 59.7152 58.6833 59.7386 58.8464 59.7242C59.2473 59.6501 59.6106 59.4424 59.876 59.1358C60.0453 58.9684 60.3454 58.6586 60.7762 58.2065L57.4315 54.8987C57.1857 55.1165 56.8792 55.4074 56.5121 55.7713V55.7694ZM57.3027 57.7606C57.1929 57.7799 57.0799 57.7714 56.9744 57.7357C56.8688 57.7001 56.7741 57.6386 56.699 57.5569C56.6065 57.4762 56.5351 57.3745 56.4909 57.2605C56.4467 57.1466 56.431 57.0237 56.4451 56.9025C56.5028 56.6196 56.6525 56.3632 56.8713 56.1724C57.0852 55.9604 57.264 55.7959 57.4077 55.679L58.5476 56.8075L58.0066 57.3435C57.8214 57.552 57.5755 57.6988 57.3027 57.7635V57.7606ZM58.2846 58.8892C58.2036 58.8156 58.1409 58.7244 58.1014 58.6229C58.062 58.5213 58.0467 58.412 58.057 58.3037C58.0848 58.07 58.196 57.8539 58.3707 57.6943L58.9068 57.1632L59.9895 58.2345C59.7597 58.4815 59.5972 58.6523 59.5018 58.7469C59.0486 59.1956 58.6431 59.2431 58.2852 58.8892H58.2846ZM54.1361 60.2589L51.8503 59.5649L51.2761 59.9695L53.7245 60.6806C53.533 60.9014 53.419 61.1778 53.3994 61.4682C53.373 61.7852 53.4663 62.1007 53.6615 62.3534C54.2061 63.1112 54.9365 63.1673 55.8524 62.5218C55.9777 62.4336 56.1364 62.319 56.3287 62.178C56.5209 62.037 56.7052 61.9043 56.8814 61.7798L54.1326 57.9554L53.6634 58.2857L54.763 59.8156L54.1361 60.2589ZM54.156 61.9971C54.0805 61.8954 54.0307 61.7773 54.0105 61.6527C53.9903 61.5281 54.0004 61.4005 54.0399 61.2806C54.1196 61.0238 54.2859 60.802 54.511 60.6522L55.0796 60.2518L56.1005 61.6723C55.7821 61.9084 55.6044 62.039 55.5676 62.0644C54.9642 62.4897 54.4936 62.4673 54.156 61.9971ZM51.7999 64.9769L52.3083 64.7094L50.0839 60.5637L49.5755 60.8312L51.7999 64.9769ZM47.2428 61.9141C47.0718 61.9713 46.8972 62.0323 46.719 62.0969C46.3698 62.1987 46.0445 62.3683 45.7621 62.5958C45.4797 62.8233 45.2459 63.1042 45.0743 63.4221C44.9323 63.7126 44.8532 64.0293 44.842 64.3519C44.8308 64.6744 44.8878 64.9957 45.0092 65.2952C45.1109 65.5785 45.2632 65.8414 45.4589 66.0713C45.6501 66.2919 45.8847 66.4717 46.1484 66.5995C46.4482 66.7386 46.777 66.8053 47.1078 66.7943C47.5197 66.783 47.9266 66.7019 48.3108 66.5545C48.3446 66.5422 48.5422 66.4657 48.9038 66.325C49.0802 66.2561 49.2597 66.1886 49.4422 66.1225L49.5182 66.0948L47.8875 61.6907L47.8176 61.7161C47.6008 61.7946 47.4092 61.8618 47.2428 61.9176V61.9141ZM46.5298 66.108C46.3071 66.0154 46.1071 65.8763 45.9436 65.7002C45.7801 65.5241 45.6569 65.3151 45.5824 65.0876C45.4847 64.8532 45.4378 64.6012 45.4446 64.3477C45.4514 64.0943 45.5119 63.8451 45.6221 63.6162C45.8946 63.1298 46.3481 62.7678 46.8861 62.6074C46.8949 62.6045 46.9248 62.5945 46.9765 62.5784C47.0282 62.5623 47.1065 62.5359 47.2109 62.5005C47.3153 62.4651 47.4232 62.4272 47.5331 62.3869L48.791 65.7916C48.7359 65.8115 48.6322 65.8527 48.4798 65.9152C48.3275 65.9776 48.213 66.0227 48.1365 66.0504C47.6285 66.2733 47.0537 66.2954 46.5298 66.1122V66.108ZM40.2145 64.3778L42.3423 63.9687L42.6444 65.5093L40.7825 65.8672L40.8858 66.3938L42.7474 66.0359L43.04 67.5237L40.9788 67.9199L41.0819 68.4466L43.7085 67.9418L42.805 63.3336L40.1121 63.8512L40.2145 64.3778ZM36.8821 64.7796C37.0664 64.6317 37.2951 64.5487 37.5323 64.5436C37.7574 64.5328 37.9821 64.5715 38.1903 64.6569C38.4 64.736 38.5868 64.8648 38.7346 65.0319L39.0431 64.6244C38.894 64.3974 38.671 64.2277 38.4111 64.1435C38.1229 64.0356 37.8148 63.9893 37.5073 64.0076C37.1113 64.0156 36.7309 64.1613 36.4324 64.419C36.2954 64.535 36.1883 64.6817 36.1202 64.8469C36.052 65.0122 36.0248 65.1911 36.0407 65.3689C36.0487 65.5664 36.1044 65.759 36.2032 65.9306C36.2896 66.0811 36.4111 66.2088 36.5576 66.3031C36.7052 66.3941 36.8608 66.4717 37.0225 66.5348C37.1916 66.6011 37.3603 66.6619 37.5287 66.717C37.6859 66.7678 37.84 66.8273 37.9904 66.8954C38.1251 66.9551 38.2441 67.0448 38.3383 67.1574C38.4318 67.271 38.4854 67.4117 38.4907 67.5581C38.4999 67.6535 38.4866 67.7496 38.4519 67.839C38.4171 67.9284 38.3619 68.0085 38.2905 68.0732C38.1197 68.2165 37.9034 68.2956 37.6796 68.2966C37.5019 68.3115 37.3231 68.2902 37.1541 68.234C36.985 68.1779 36.8294 68.0881 36.6968 67.9702L36.411 68.4166C36.5747 68.5671 36.7718 68.6774 36.9864 68.7385C37.2314 68.8149 37.4886 68.8455 37.7449 68.829C38.1262 68.8256 38.4915 68.677 38.7651 68.414C38.8823 68.2977 38.9728 68.1578 39.0305 68.0038C39.0881 67.8498 39.1116 67.6852 39.0993 67.5214C39.0915 67.3286 39.0356 67.1406 38.9368 66.9742C38.8489 66.8259 38.7277 66.6996 38.5827 66.605C38.4355 66.5114 38.2797 66.4315 38.1175 66.3665C37.948 66.2978 37.7792 66.2348 37.611 66.1775C37.4536 66.1246 37.2994 66.0629 37.149 65.9928C37.0145 65.9308 36.8956 65.8401 36.8008 65.7272C36.7074 65.6135 36.6539 65.4729 36.6483 65.3264C36.6398 65.224 36.6567 65.121 36.6974 65.0265C36.7381 64.9319 36.8015 64.8486 36.8821 64.7837V64.7796ZM24.5454 63.3632C24.704 62.9304 24.951 62.7741 25.2863 62.8945C25.4394 62.9461 25.5699 63.0484 25.6556 63.1842L25.9905 62.8411C25.9297 62.7265 25.8461 62.6253 25.7448 62.5435C25.6435 62.4617 25.5266 62.401 25.4011 62.365C24.7508 62.1318 24.2957 62.3702 24.0356 63.0803L22.7852 66.4907L23.3265 66.6839L24.5454 63.3632ZM20.0705 60.6928L22.0085 61.6533L21.2988 63.0564L19.603 62.216L19.3605 62.6956L21.0562 63.5364L20.3709 64.8916L18.4934 63.9607L18.2508 64.4406L20.643 65.6264L22.7657 61.429L20.3127 60.2128L20.0705 60.6928ZM15.0963 57.7887L13.8157 61.5168L14.2578 61.8497L17.5171 59.6106L16.1126 63.2457L16.6302 63.6352L18.3565 59.0379L17.9358 58.7215L14.6145 60.9641L15.887 57.179L15.4669 56.8622L11.5083 59.7792L11.9557 60.1166L15.0963 57.7887ZM9.76996 57.8649L10.1676 58.2786L13.604 55.0442L13.2074 54.6312L9.76996 57.8649ZM10.3188 52.2122C10.5455 52.2818 10.7425 52.4241 10.8786 52.6168C11.013 52.7959 11.1055 53.0024 11.1494 53.2213C11.1996 53.4378 11.1954 53.6631 11.1374 53.8776L11.6511 53.905C11.7586 53.6561 11.7769 53.3783 11.7031 53.1177C11.6337 52.8205 11.5013 52.5413 11.3149 52.2984C11.0883 51.9768 10.7545 51.7446 10.3721 51.6424C10.1986 51.5941 10.0159 51.5876 9.83937 51.6234C9.66282 51.6592 9.49745 51.7362 9.35707 51.8481C9.19571 51.9642 9.06492 52.117 8.97571 52.2936C8.89724 52.4483 8.85754 52.6194 8.85997 52.7925C8.86561 52.9647 8.88738 53.1359 8.92499 53.304C8.96336 53.4798 9.00616 53.6523 9.05341 53.8216C9.09812 53.9793 9.13383 54.1393 9.16037 54.3009C9.18492 54.4451 9.1758 54.5928 9.13371 54.7329C9.09024 54.8731 9.00178 54.9953 8.88175 55.0812C8.80683 55.1419 8.71869 55.1844 8.62429 55.2056C8.52989 55.2267 8.43182 55.2258 8.33784 55.2029C8.12256 55.142 7.93584 55.008 7.81051 54.8243C7.69923 54.6865 7.61765 54.5275 7.5708 54.3572C7.52394 54.1869 7.5128 54.0089 7.53806 53.8342L7.00423 53.8474C6.96877 54.0658 6.98559 54.2894 7.05332 54.5002C7.12521 54.7448 7.24239 54.974 7.39891 55.1762C7.6142 55.4873 7.94192 55.7047 8.31443 55.7836C8.4772 55.8153 8.64497 55.8119 8.80632 55.7737C8.96767 55.7355 9.1188 55.6633 9.24945 55.5621C9.40745 55.4487 9.53475 55.2984 9.62008 55.1247C9.69565 54.9698 9.73424 54.7999 9.7329 54.628C9.72963 54.4549 9.71004 54.2824 9.67438 54.1129C9.63796 53.9355 9.597 53.7614 9.55148 53.5908C9.50845 53.4319 9.47448 53.2707 9.44972 53.108C9.42698 52.9629 9.43698 52.8146 9.47898 52.6738C9.52252 52.5337 9.61084 52.4115 9.73062 52.3255C9.81181 52.2604 9.90787 52.216 10.0104 52.1962C10.1129 52.1764 10.2188 52.1821 10.3188 52.2122ZM3.6003 48.9031L3.87209 49.4059L5.68134 48.4466L6.91189 50.7231L5.10264 51.682L5.37444 52.1845L9.55441 49.9692L9.28262 49.4667L7.38981 50.4697L6.15926 48.1936L8.05239 47.1903L7.7806 46.6878L3.6003 48.9031ZM6.1313 42.1269C6.0297 41.6954 5.78764 41.3089 5.44239 41.027C5.28305 40.9141 5.09836 40.8413 4.90426 40.8148C4.71015 40.7883 4.51245 40.809 4.32822 40.8751C4.05919 40.9406 3.82522 41.1046 3.67345 41.3341C3.53242 41.5712 3.47995 41.8499 3.5252 42.1214L3.51219 42.125C3.37588 41.9225 3.18179 41.7647 2.95462 41.6717C2.72189 41.5857 2.46644 41.5809 2.2306 41.6582C2.07152 41.6955 1.92339 41.769 1.7979 41.8727C1.67241 41.9765 1.57301 42.1077 1.50755 42.256C1.38078 42.6397 1.3903 43.0548 1.53453 43.4325C1.60194 43.66 1.73198 44.0693 1.92467 44.6605L6.46161 43.3443C6.38619 43.0263 6.27554 42.6205 6.12967 42.1269H6.1313ZM3.98718 41.8581C4.02275 41.7535 4.08452 41.6595 4.16673 41.5849C4.24894 41.5103 4.34891 41.4576 4.45729 41.4316C4.57318 41.39 4.6975 41.3768 4.81966 41.3931C4.94182 41.4093 5.0582 41.4546 5.15889 41.525C5.38215 41.7108 5.5377 41.9639 5.60169 42.2457C5.68687 42.533 5.7468 42.7672 5.78148 42.9481L4.23459 43.3971L4.01937 42.6699C3.92467 42.409 3.91365 42.1255 3.98783 41.8581H3.98718ZM2.51605 42.1694C2.62015 42.1344 2.73101 42.1237 2.83998 42.1382C2.94894 42.1526 3.05305 42.1919 3.14416 42.2528C3.33814 42.3889 3.47652 42.5893 3.5343 42.8177L3.74757 43.5384L2.27871 43.9646C2.17034 43.6466 2.09719 43.4232 2.05926 43.2944C1.87893 42.6854 2.03141 42.3098 2.5167 42.1678L2.51605 42.1694ZM3.20529 37.9671L4.87506 36.2726L4.7746 35.5822L3.01509 37.4115C2.90358 37.1429 2.70746 36.9171 2.4559 36.7677C2.18317 36.5997 1.85729 36.5375 1.54103 36.5932C0.611428 36.7256 0.226711 37.3428 0.386884 38.4448C0.408558 38.595 0.438794 38.7871 0.47759 39.0213C0.516387 39.2554 0.551066 39.4786 0.581626 39.6908L5.27463 39.0222L5.19335 38.4564L3.31615 38.7238L3.20529 37.9671ZM1.63467 37.1881C1.76053 37.1681 1.88939 37.1781 2.01057 37.2173C2.13174 37.2565 2.24172 37.3237 2.33138 37.4134C2.52547 37.601 2.64851 37.849 2.6799 38.1158L2.77939 38.7995L1.03646 39.0477C0.971436 38.6597 0.935457 38.4436 0.928521 38.3994C0.823185 37.6736 1.05878 37.2696 1.63532 37.1874L1.63467 37.1881ZM0 33.7693L0.00877756 34.3393L4.74957 34.2675L4.74079 33.6978L0 33.7693ZM4.84743 31.1468C4.87734 30.9704 4.90584 30.7893 4.93293 30.6034C5.00779 30.2506 5.01098 29.8866 4.94232 29.5326C4.87367 29.1786 4.73454 28.8416 4.53305 28.5414C4.34175 28.2801 4.09746 28.0612 3.8158 27.8988C3.53414 27.7364 3.22133 27.634 2.8974 27.5982C2.59731 27.5526 2.29137 27.5609 1.99424 27.6227C1.70742 27.6849 1.4364 27.8042 1.19771 27.9735C0.932008 28.1692 0.716873 28.4243 0.569923 28.7181C0.384393 29.0823 0.263426 29.4754 0.212299 29.8801C0.207097 29.9155 0.181521 30.1241 0.135572 30.5059C0.113898 30.6926 0.0889726 30.881 0.0607962 31.0711L0.0494166 31.151L4.74274 31.8163L4.75315 31.7432C4.78587 31.5175 4.81687 31.3187 4.84613 31.1468H4.84743ZM1.45455 28.5394C1.64246 28.3891 1.86089 28.2807 2.09496 28.2215C2.32903 28.1624 2.57324 28.1539 2.81092 28.1966C3.06567 28.2225 3.3121 28.301 3.53431 28.427C3.75652 28.553 3.94956 28.7238 4.10097 28.9283C4.40451 29.3964 4.51159 29.9634 4.39942 30.5085C4.39942 30.5172 4.3926 30.5481 4.38252 30.6008C4.37244 30.6536 4.35878 30.7341 4.3409 30.8423C4.32302 30.9504 4.30579 31.0618 4.28921 31.177L0.668756 30.6636C0.676884 30.606 0.689564 30.4962 0.706144 30.3337C0.722725 30.1711 0.73703 30.0501 0.748409 29.9703C0.790277 29.4212 1.04297 28.9088 1.45455 28.5385V28.5394ZM6.07375 23.8778L5.38224 25.9115L3.88022 25.411L4.48525 23.6312L3.97158 23.46L3.36654 25.2397L1.91589 24.7569L2.58595 22.7866L2.07227 22.6127L1.21885 25.1235L5.71353 26.6219L6.58873 24.0468L6.07375 23.8778ZM7.41484 20.8101C7.45035 21.0429 7.40642 21.2808 7.29 21.4861C7.18542 21.6837 7.03785 21.8559 6.85793 21.9902C6.68279 22.1291 6.47595 22.2234 6.25549 22.2648L6.45381 22.7347C6.72701 22.7225 6.98776 22.6181 7.19279 22.4389C7.43291 22.2479 7.62937 22.0086 7.76922 21.7369C7.96349 21.3948 8.02969 20.9958 7.95616 20.6102C7.92473 20.4345 7.85133 20.2687 7.74206 20.1268C7.6328 19.9848 7.49085 19.8708 7.32804 19.7942C7.15224 19.7008 6.95633 19.6506 6.75682 19.6478C6.58206 19.645 6.40921 19.684 6.25289 19.7614C6.09858 19.8408 5.95208 19.9342 5.81529 20.0405C5.67181 20.1512 5.53331 20.2643 5.3998 20.3797C5.27567 20.4882 5.14541 20.5895 5.00966 20.6833C4.8893 20.7679 4.75094 20.8241 4.60522 20.8475C4.4588 20.8696 4.30909 20.8439 4.17867 20.7744C4.09094 20.7339 4.01392 20.6737 3.95366 20.5987C3.89341 20.5237 3.85157 20.4358 3.83145 20.3421C3.79324 20.1236 3.83412 19.8988 3.94687 19.7073C4.02388 19.5482 4.13303 19.4063 4.26756 19.2906C4.4021 19.1748 4.55917 19.0875 4.72909 19.0342L4.48525 18.5639C4.271 18.627 4.07476 18.7392 3.91241 18.8913C3.72249 19.0611 3.56597 19.2642 3.45075 19.4904C3.26056 19.8175 3.20469 20.2045 3.29469 20.5713C3.33652 20.7302 3.41244 20.8784 3.51729 21.0057C3.62215 21.133 3.75347 21.2365 3.90233 21.3091C4.07414 21.4006 4.26607 21.4489 4.46119 21.4497C4.63491 21.4499 4.80634 21.4104 4.96219 21.3345C5.11842 21.2564 5.2669 21.1639 5.40565 21.0583C5.55108 20.9489 5.69196 20.8368 5.82829 20.7222C5.95426 20.6147 6.08625 20.5144 6.22363 20.4216C6.34587 20.3388 6.4851 20.2839 6.63132 20.2607C6.77764 20.2386 6.92722 20.2643 7.05754 20.3337C7.15188 20.3782 7.2338 20.4449 7.29613 20.5279C7.35847 20.611 7.39901 20.7079 7.41484 20.8101ZM14.9734 11.0542C15.2686 11.4102 15.2782 11.6999 15.0023 11.9233C14.8794 12.0275 14.7239 12.0864 14.5621 12.09L14.6896 12.5503C14.8203 12.5571 14.951 12.5377 15.0739 12.4931C15.1969 12.4486 15.3094 12.3799 15.4048 12.2912C15.9389 11.8573 15.9638 11.3483 15.4796 10.7641L13.1547 7.96011L12.7087 8.32064L14.9734 11.0542ZM19.5575 8.59135L17.7443 9.7669L16.8763 8.45422L18.4628 7.42416L18.1653 6.97576L16.5788 8.00421L15.7403 6.73628L17.4959 5.59741L17.1991 5.14869L14.9607 6.59979L17.558 10.5269L19.853 9.0391L19.5575 8.59135ZM24.5532 5.73969L21.8967 2.81046L21.3872 3.02934L21.7634 6.93649L19.2496 3.94449L18.653 4.20039L21.8567 7.94177L22.3414 7.7335L21.9926 3.76809L24.7027 6.71986L25.1875 6.51191L24.5567 1.66612L24.0408 1.88759L24.5532 5.73969ZM27.051 1.08639L26.4944 1.23189L27.7025 5.77059L28.2591 5.62509L27.051 1.08639ZM31.7876 4.28054C31.6169 4.4441 31.3962 4.54681 31.1601 4.5725C30.9369 4.60308 30.7095 4.58416 30.4946 4.51713C30.2786 4.45686 30.0809 4.345 29.9188 4.19138L29.648 4.62433C29.8168 4.83742 30.0542 4.9869 30.3207 5.04794C30.6172 5.13014 30.928 5.14924 31.2326 5.10395C31.6264 5.06163 31.9926 4.88327 32.2668 4.60019C32.3929 4.47273 32.4864 4.31727 32.5395 4.14677C32.5926 3.97626 32.6038 3.79566 32.5721 3.62002C32.5468 3.42406 32.4742 3.23702 32.3604 3.07473C32.2612 2.93224 32.1287 2.81552 31.9742 2.73449C31.8192 2.65647 31.6573 2.59289 31.4904 2.54457C31.317 2.49307 31.1436 2.44725 30.9702 2.40712C30.8091 2.37022 30.6502 2.32444 30.4943 2.27C30.3549 2.22213 30.2284 2.14329 30.1246 2.03952C30.0213 1.93436 29.9553 1.79878 29.9367 1.65325C29.919 1.559 29.9237 1.46197 29.9503 1.3698C29.9769 1.27764 30.0248 1.19285 30.0901 1.12212C30.2476 0.964498 30.456 0.866828 30.6789 0.846258C30.8545 0.815778 31.0345 0.821245 31.2078 0.862325C31.3812 0.903404 31.5442 0.979227 31.6868 1.08511L31.9316 0.615462C31.7551 0.47962 31.5489 0.386677 31.3295 0.344105C31.0787 0.289473 30.8199 0.281395 30.5661 0.320283C30.1866 0.357257 29.836 0.537275 29.5869 0.82308C29.4806 0.949189 29.4029 1.09649 29.3592 1.25495C29.3155 1.41342 29.3068 1.57934 29.3336 1.74144C29.3582 1.93319 29.4302 2.11597 29.5433 2.27354C29.6441 2.41351 29.776 2.5287 29.9289 2.61024C30.084 2.69051 30.2463 2.75636 30.4136 2.80692C30.5883 2.86035 30.7617 2.90831 30.9338 2.9508C31.0953 2.9898 31.2544 3.03784 31.4104 3.09469C31.5499 3.14448 31.6765 3.22429 31.7811 3.32838C31.8843 3.43358 31.9501 3.56916 31.9687 3.71465C31.9873 3.8163 31.9805 3.92091 31.9489 4.01938C31.9174 4.11784 31.862 4.20717 31.7876 4.27958V4.28054ZM37.9914 0.0727474L37.4156 0.0614799L37.3756 2.09327L34.7685 2.04274L34.8085 0.0112626L34.2331 0L34.1404 4.69353L34.7162 4.70448L34.7581 2.57998L37.3652 2.63052L37.3233 4.75502L37.8987 4.76596L37.9914 0.0727474ZM42.7071 5.69334C43.1313 5.83459 43.5906 5.83391 44.0144 5.69141C44.195 5.61633 44.3544 5.49894 44.479 5.34934C44.6036 5.19974 44.6896 5.0224 44.7296 4.83259C44.8147 4.57163 44.7967 4.28842 44.6793 4.04009C44.5497 3.79657 44.3378 3.60586 44.0807 3.50124L44.0843 3.48836C44.3301 3.48021 44.5678 3.39963 44.767 3.25692C44.9633 3.10619 45.1016 2.89358 45.1591 2.65434C45.2106 2.50075 45.2254 2.33741 45.2023 2.1772C45.1791 2.01699 45.1187 1.86429 45.0258 1.73114C44.7626 1.42266 44.4008 1.21255 44.0004 1.13564C43.7696 1.07298 43.3492 0.96772 42.7393 0.819863L41.4857 5.33314C41.7984 5.43679 42.2053 5.55685 42.7061 5.69334H42.7071ZM44.0651 4.02882C44.1363 4.1138 44.1847 4.21526 44.2055 4.32374C44.2264 4.43222 44.2191 4.54416 44.1844 4.64911C44.1593 4.76858 44.1053 4.88026 44.0272 4.9746C43.949 5.06894 43.8489 5.14313 43.7355 5.19086C43.4584 5.28129 43.1591 5.27926 42.8833 5.18507C42.5916 5.10545 42.3589 5.03281 42.1853 4.96715L42.6138 3.42785L43.3518 3.62903C43.6255 3.68607 43.8747 3.82535 44.0654 4.02786L44.0651 4.02882ZM44.571 2.62601C44.5463 2.73211 44.4972 2.83114 44.4275 2.91534C44.3578 2.99955 44.2694 3.06666 44.1692 3.11143C43.9503 3.20338 43.7055 3.21479 43.4789 3.14361L42.7474 2.94468L43.1535 1.48329C43.4838 1.55925 43.7142 1.61505 43.8447 1.65067C44.4626 1.81891 44.7047 2.14446 44.571 2.6273V2.62601ZM47.7704 5.38078L48.4122 7.66108L49.0657 7.92181L48.3504 5.49666C48.6417 5.53683 48.9382 5.48263 49.1957 5.34215C49.4797 5.19322 49.6977 4.94522 49.8076 4.64621C50.1587 3.78375 49.8129 3.14447 48.7702 2.72837C48.6278 2.67129 48.4447 2.60058 48.221 2.51625C47.9974 2.43191 47.785 2.34961 47.5838 2.26935L45.8113 6.62329L46.3455 6.83638L47.0545 5.09494L47.7704 5.38078ZM49.2396 4.42669C49.1938 4.54447 49.1202 4.64972 49.0251 4.7337C48.9299 4.81768 48.8159 4.87796 48.6925 4.90953C48.4311 4.98138 48.1528 4.96217 47.9041 4.85512L47.2571 4.59761L47.9154 2.98042C48.2874 3.11926 48.4942 3.19705 48.5361 3.21379C49.2227 3.48761 49.4572 3.8917 49.2396 4.42669ZM53.0044 4.72411L52.4998 4.44954L50.2169 8.56399L50.7215 8.83856L53.0044 4.72411ZM52.9134 10.1963C53.0512 10.312 53.1941 10.4286 53.3419 10.5462C53.6101 10.79 53.9247 10.9784 54.2672 11.1006C54.6098 11.2228 54.9735 11.2763 55.3371 11.2579C55.6617 11.2284 55.9764 11.132 56.2612 10.975C56.546 10.818 56.7946 10.6039 56.9909 10.3463C57.1835 10.1139 57.3324 9.84922 57.4305 9.56475C57.5228 9.28869 57.5573 8.99693 57.5319 8.70723C57.498 8.38137 57.3866 8.0681 57.2068 7.79305C56.9847 7.44954 56.7048 7.14631 56.3791 6.89658C56.3511 6.87512 56.183 6.7469 55.8748 6.51191C55.7231 6.39753 55.5722 6.28015 55.422 6.15976L55.3586 6.10922L52.3861 9.76659L52.4442 9.81261C52.6233 9.95553 52.7801 10.0834 52.9147 10.1963H52.9134ZM56.9103 8.6377C56.945 8.87444 56.9277 9.11579 56.8596 9.34531C56.7916 9.57484 56.6744 9.78715 56.516 9.96777C56.3636 10.1715 56.1697 10.3414 55.9469 10.4663C55.724 10.5912 55.4772 10.6684 55.2223 10.693C54.6609 10.7126 54.1138 10.5146 53.6976 10.1409C53.6904 10.1352 53.665 10.1149 53.6257 10.0795C53.5864 10.0441 53.522 9.99126 53.4375 9.92077C53.3529 9.85028 53.2645 9.77881 53.1731 9.70574L55.4662 6.88467C55.5117 6.92093 55.6009 6.98767 55.7337 7.08488C55.8666 7.1821 55.9641 7.25592 56.0263 7.30635C56.4819 7.62201 56.7979 8.09854 56.9103 8.6377ZM58.4663 15.119L57.1451 13.4181L58.4013 12.4615L59.5574 13.9496L59.9872 13.6225L58.8308 12.1341L60.0441 11.2103L61.3244 12.8581L61.7538 12.531L60.1224 10.4313L56.3661 13.2929L58.0385 15.4458L58.4663 15.119ZM60.2505 17.9588C60.0371 17.8563 59.8641 17.6864 59.759 17.4759C59.6537 17.2787 59.594 17.0608 59.584 16.8379C59.5676 16.6163 59.6064 16.394 59.6969 16.1906L59.1933 16.0866C59.0488 16.3165 58.988 16.5882 59.021 16.8569C59.044 17.1615 59.132 17.4577 59.2791 17.7261C59.4538 18.0781 59.7483 18.3579 60.1107 18.5163C60.2748 18.5901 60.4543 18.6241 60.6343 18.6153C60.8143 18.6065 60.9896 18.5552 61.1456 18.4658C61.3228 18.3753 61.4755 18.2439 61.5906 18.0827C61.692 17.9416 61.7576 17.7784 61.7818 17.607C61.8029 17.4361 61.808 17.2637 61.7971 17.0919C61.786 16.9123 61.7702 16.7353 61.7496 16.5608C61.7295 16.3983 61.7186 16.2349 61.7171 16.0712C61.7149 15.9251 61.7465 15.7804 61.8094 15.6482C61.8738 15.5162 61.98 15.4086 62.1118 15.3418C62.1951 15.2931 62.2888 15.2642 62.3853 15.2575C62.4819 15.2508 62.5787 15.2664 62.6681 15.3032C62.8716 15.3956 63.0357 15.5562 63.1314 15.7567C63.2201 15.9097 63.2763 16.0791 63.2965 16.2544C63.3167 16.4297 63.3004 16.6073 63.2487 16.7761L63.7783 16.8437C63.8469 16.6331 63.8646 16.4095 63.83 16.1909C63.7962 15.9389 63.7155 15.6952 63.592 15.4722C63.4271 15.1313 63.1361 14.8662 62.7793 14.7318C62.6232 14.6761 62.4569 14.6542 62.2916 14.6677C62.1263 14.6812 61.9658 14.7297 61.8211 14.81C61.6476 14.8983 61.4987 15.0277 61.3878 15.1866C61.2891 15.3283 61.2248 15.4905 61.1999 15.6608C61.1765 15.8325 61.1693 16.006 61.1784 16.179C61.1871 16.3595 61.2009 16.5376 61.22 16.7134C61.2379 16.877 61.2467 17.0416 61.2463 17.2062C61.2464 17.353 61.2138 17.4979 61.1508 17.6308C61.0862 17.7627 60.9801 17.8702 60.8484 17.9372C60.7581 17.9887 60.6564 18.0175 60.5523 18.0212C60.4482 18.0249 60.3443 18.0037 60.2505 17.9588Z" fill="#F5F5F5"/>
<path fill-rule="evenodd" clip-rule="evenodd" d="M28.5967 20.309C28.5967 20.5147 28.6684 20.5254 30.0488 20.5254H31.501V26.6283C31.501 29.985 31.5297 32.8067 31.5649 32.8988C31.6107 33.0187 33.0692 31.6047 36.7012 27.9194C39.491 25.0887 41.7892 22.7051 41.8083 22.6225C41.8275 22.54 41.799 22.4725 41.745 22.4725C41.691 22.4725 39.9943 24.1343 37.9745 26.1654C35.5932 28.5603 34.2822 29.8055 34.2451 29.708C34.2135 29.6254 34.2003 27.5376 34.2158 25.0686L34.2439 20.5795L35.723 20.5494C37.1131 20.5211 37.202 20.5065 37.202 20.306C37.202 20.0972 37.1098 20.0927 32.8993 20.0927C28.6684 20.0927 28.5967 20.0963 28.5967 20.309ZM33.6457 34.1037C30.5672 37.1993 29.2334 38.472 29.1156 38.4266C28.6509 38.2473 28.5946 37.4293 28.9721 36.3428C29.2097 35.6588 29.2248 35.5267 29.1065 35.1713C28.9087 34.5773 28.4941 34.3167 27.7548 34.3215C26.6579 34.3288 26.0124 35.0132 26.0174 36.1636C26.0223 37.249 26.8256 38.2551 28.0445 38.702C28.4073 38.8351 28.7042 38.973 28.7042 39.0086C28.7042 39.0442 28.2347 39.5472 27.6609 40.1265C27.0872 40.7056 26.653 41.2152 26.6964 41.2588C26.7397 41.3023 27.2939 40.8222 27.9279 40.1919L29.0807 39.0458L30.1026 38.9839C30.6646 38.9499 31.2576 38.8904 31.4203 38.8517L31.7161 38.7815V48.5424H30.2102C29.0198 48.5424 28.7042 48.5729 28.7042 48.688C28.7042 48.8855 37.7734 49.0454 38.7617 48.8653C40.4864 48.551 41.6355 48.0025 42.5854 47.0398C43.6771 45.9335 44.0398 44.933 43.9585 43.2527C43.8996 42.0366 43.5721 41.3012 42.6979 40.4221C41.9658 39.6859 40.9281 39.1353 39.7298 38.8473C39.3157 38.7478 38.9042 38.6443 38.8155 38.6174C38.7268 38.5905 38.9204 38.4998 39.2458 38.416C40.7806 38.0207 42.1589 37.0181 42.7702 35.8523C43.0348 35.3476 43.2283 35.1365 43.2257 34.1636C43.2234 33.2887 43.0139 33.0294 42.8255 32.6137C42.5329 31.9685 41.6299 30.9993 40.9791 30.6318C40.3806 30.294 39.1571 29.8767 38.4928 29.7839L38.0087 29.7162L33.6457 34.1037ZM38.5794 30.5921C39.6432 31.2057 40.1424 32.3734 40.1487 34.2634C40.1547 36.0422 39.8274 37.0682 39.037 37.7485C38.423 38.277 38.0099 38.3756 36.0994 38.4492L34.4053 38.5146V33.671L36.0981 31.9659C37.0292 31.0283 37.8401 30.2614 37.8999 30.262C37.9598 30.2626 38.2655 30.4112 38.5794 30.5921ZM31.6006 36.9574C31.4297 38.0438 30.8941 38.5892 29.9971 38.59L29.5151 38.5904L30.5866 37.5086C31.176 36.9137 31.664 36.4269 31.6711 36.4269C31.6782 36.4269 31.6464 36.6657 31.6006 36.9574ZM38.3211 38.9708C40.255 39.4774 41.171 41.5117 40.8582 44.6048C40.7947 45.2324 40.6414 46.0181 40.5175 46.351C40.2623 47.0372 39.6005 47.8193 39.0355 48.1029C38.2108 48.5165 36.7146 48.7164 35.3186 48.5995L34.4053 48.5229V38.8067H36.05C37.1731 38.8067 37.8933 38.8588 38.3211 38.9708Z" fill="#F5F5F5"/>
</svg>
