<svg width="144" height="144" viewBox="0 0 144 144" fill="none" xmlns="http://www.w3.org/2000/svg">
<path d="M137.06 46.5713C137.043 46.5813 136.829 46.5489 136.419 46.4743C135.999 46.383 135.513 46.2964 134.961 46.2147C134.409 46.1329 133.979 46.1032 133.671 46.1255C133.85 46.3559 134.146 46.6516 134.561 47.0127C134.959 47.3837 135.323 47.6963 135.654 47.9505C135.967 48.2147 136.128 48.3551 136.138 48.3718C136.345 48.6522 136.448 48.949 136.445 49.2621C136.416 49.5684 136.338 49.7913 136.212 49.9307C136.038 49.9868 135.812 49.9727 135.533 49.8885C135.246 49.7877 134.993 49.5887 134.776 49.2915C134.766 49.2748 134.703 49.0665 134.587 48.6664C134.461 48.2497 134.311 47.7912 134.137 47.2911C133.936 46.7841 133.755 46.4105 133.593 46.1702C133.489 46.3863 133.388 46.6891 133.292 47.0784C133.186 47.4511 133.101 47.8005 133.036 48.1267C132.972 48.4529 132.916 48.7525 132.867 49.0254L132.782 49.4748C132.561 49.847 132.326 50.0944 132.075 50.2168C131.807 50.3491 131.597 50.3817 131.443 50.3146C131.282 50.2741 131.176 50.0906 131.125 49.764C131.074 49.4375 131.138 49.1113 131.317 48.7855C131.325 48.7589 131.472 48.5961 131.758 48.2973C132.035 47.9819 132.349 47.6115 132.7 47.1864C133.051 46.7612 133.309 46.4124 133.472 46.1398C133.174 46.1788 132.763 46.2823 132.241 46.4505C131.718 46.6186 131.257 46.7736 130.857 46.9155C130.44 47.0673 130.218 47.1399 130.191 47.1331C129.831 47.1852 129.524 47.1292 129.268 46.9652C128.996 46.8111 128.842 46.644 128.807 46.4641C128.809 46.3075 128.924 46.1297 129.153 45.9307C129.355 45.7248 129.659 45.5943 130.063 45.539C130.107 45.5358 130.339 45.5799 130.758 45.6712C131.169 45.7458 131.65 45.824 132.202 45.9058C132.736 45.9975 133.158 46.0322 133.466 46.0099C133.287 45.7795 132.999 45.4788 132.601 45.1078C132.186 44.7467 131.822 44.4341 131.509 44.1699C131.169 43.899 130.994 43.7552 130.985 43.7385C130.777 43.4581 130.688 43.1647 130.717 42.8584C130.72 42.5453 130.793 42.3141 130.936 42.1647C131.111 42.1086 131.341 42.1311 131.629 42.2319C131.89 42.326 132.129 42.5217 132.347 42.8188L132.535 43.4439C132.661 43.8607 132.825 44.3225 133.026 44.8294C133.217 45.3196 133.398 45.6933 133.569 45.9503C133.649 45.7707 133.736 45.5428 133.829 45.2667C133.912 44.9739 133.987 44.686 134.053 44.4032C134.092 44.1135 134.141 43.8406 134.2 43.5843C134.231 43.3213 134.265 43.1016 134.301 42.9252L134.34 42.6356C134.561 42.2633 134.805 42.011 135.073 41.8786C135.324 41.7562 135.539 41.732 135.719 41.8058C135.873 41.873 135.97 42.0615 136.012 42.3713C136.053 42.6812 135.984 42.9991 135.805 43.3249C135.797 43.3515 135.655 43.5225 135.378 43.838C135.092 44.1368 134.778 44.5071 134.437 44.949C134.086 45.3741 133.837 45.718 133.69 45.9807C133.989 45.9417 134.4 45.8381 134.922 45.67C135.444 45.5019 135.905 45.3469 136.305 45.205C136.696 45.0464 136.904 44.9705 136.931 44.9772C137.291 44.9251 137.607 44.9761 137.88 45.1302C138.135 45.2943 138.28 45.4663 138.315 45.6463C138.314 45.8028 138.212 45.984 138.01 46.1898C137.78 46.3889 137.464 46.5161 137.06 46.5713Z" fill="black"/>
<path d="M22.6945 29.8513C22.6773 29.8612 22.4636 29.8288 22.0534 29.7542C21.6336 29.6629 21.1477 29.5764 20.5957 29.4946C20.0438 29.4128 19.6136 29.3831 19.3053 29.4054C19.4842 29.6358 19.7811 29.9315 20.1961 30.2926C20.5938 30.6636 20.9579 30.9762 21.2882 31.2305C21.6013 31.4946 21.7627 31.635 21.7723 31.6517C21.9801 31.9322 22.0826 32.2289 22.0798 32.542C22.0502 32.8483 21.9724 33.0712 21.8464 33.2107C21.6723 33.2667 21.4462 33.2526 21.1681 33.1685C20.8805 33.0676 20.6279 32.8686 20.4105 32.5714C20.4008 32.5548 20.3379 32.3464 20.2216 31.9463C20.0958 31.5296 19.9458 31.0711 19.7717 30.571C19.5708 30.0641 19.3895 29.6904 19.2278 29.4501C19.1232 29.6662 19.0227 29.969 18.9263 30.3584C18.8202 30.731 18.7352 31.0805 18.6711 31.4066C18.6071 31.7328 18.5506 32.0324 18.5017 32.3053L18.417 32.7547C18.196 33.127 17.9602 33.3743 17.7097 33.4967C17.4419 33.6291 17.2313 33.6617 17.0779 33.5945C16.9168 33.554 16.8109 33.3705 16.76 33.0439C16.7091 32.7174 16.7731 32.3912 16.9521 32.0654C16.9597 32.0388 17.1067 31.8761 17.393 31.5773C17.6697 31.2618 17.9836 30.8915 18.3347 30.4663C18.6858 30.0411 18.9432 29.6923 19.1071 29.4197C18.8084 29.4587 18.3978 29.5623 17.8754 29.7304C17.353 29.8985 16.8919 30.0535 16.492 30.1954C16.0749 30.3472 15.8529 30.4198 15.8261 30.413C15.4661 30.4651 15.1585 30.4092 14.9032 30.2451C14.6306 30.091 14.4768 29.924 14.4418 29.744C14.4432 29.5875 14.5585 29.4097 14.7877 29.2106C14.9901 29.0048 15.2932 28.8742 15.6973 28.8189C15.7413 28.8157 15.9732 28.8598 16.393 28.9511C16.8032 29.0258 17.2843 29.1039 17.8363 29.1857C18.371 29.2774 18.7925 29.3121 19.1009 29.2898C18.922 29.0594 18.6336 28.7587 18.2359 28.3877C17.8209 28.0266 17.4569 27.714 17.1438 27.4499C16.8038 27.1789 16.629 27.0352 16.6194 27.0185C16.4116 26.738 16.3225 26.4446 16.3522 26.1383C16.355 25.8252 16.4279 25.594 16.5711 25.4446C16.7453 25.3886 16.9762 25.411 17.2638 25.5119C17.5247 25.606 17.7638 25.8016 17.9812 26.0987L18.1701 26.7239C18.296 27.1406 18.4593 27.6024 18.6602 28.1093C18.8515 28.5996 19.0328 28.9732 19.2041 29.2302C19.284 29.0506 19.3704 28.8228 19.4634 28.5466C19.5467 28.2538 19.6214 27.966 19.6875 27.6831C19.7268 27.3935 19.7757 27.1205 19.8342 26.8643C19.8659 26.6012 19.8997 26.3815 19.9355 26.2051L19.9748 25.9155C20.1957 25.5432 20.4401 25.2909 20.7078 25.1586C20.9584 25.0362 21.1738 25.0119 21.3541 25.0858C21.5076 25.1529 21.6049 25.3414 21.6462 25.6513C21.6874 25.9611 21.6186 26.279 21.4396 26.6048C21.432 26.6314 21.2899 26.8025 21.0131 27.1179C20.7268 27.4168 20.4129 27.7871 20.0715 28.2289C19.7204 28.6541 19.4715 28.998 19.3249 29.2606C19.6236 29.2216 20.0342 29.118 20.5566 28.9499C21.079 28.7818 21.5401 28.6268 21.94 28.4849C22.3303 28.3263 22.5388 28.2504 22.5656 28.2572C22.9256 28.2051 23.2418 28.2561 23.5144 28.4102C23.7697 28.5742 23.9149 28.7462 23.9499 28.9262C23.9485 29.0827 23.8467 29.2639 23.6443 29.4697C23.4151 29.6688 23.0985 29.796 22.6945 29.8513Z" fill="black"/>
<path d="M66.8355 137.529C66.8183 137.538 66.6046 137.506 66.1944 137.432C65.7746 137.34 65.2887 137.254 64.7367 137.172C64.1848 137.09 63.7546 137.06 63.4463 137.083C63.6252 137.313 63.9221 137.609 64.3371 137.97C64.7348 138.341 65.0989 138.654 65.4292 138.908C65.7423 139.172 65.9037 139.312 65.9133 139.329C66.1211 139.609 66.2236 139.906 66.2208 140.219C66.1912 140.526 66.1134 140.749 65.9874 140.888C65.8133 140.944 65.5872 140.93 65.3092 140.846C65.0215 140.745 64.7689 140.546 64.5515 140.249C64.5419 140.232 64.4789 140.024 64.3627 139.624C64.2368 139.207 64.0868 138.748 63.9127 138.248C63.7119 137.741 63.5306 137.368 63.3689 137.127C63.2642 137.344 63.1637 137.646 63.0673 138.036C62.9612 138.408 62.8762 138.758 62.8121 139.084C62.7481 139.41 62.6916 139.71 62.6427 139.983L62.558 140.432C62.337 140.804 62.1012 141.052 61.8507 141.174C61.5829 141.306 61.3723 141.339 61.2189 141.272C61.0578 141.231 60.9519 141.048 60.901 140.721C60.8501 140.395 60.9142 140.069 61.0931 139.743C61.1007 139.716 61.2477 139.553 61.534 139.255C61.8108 138.939 62.1246 138.569 62.4757 138.144C62.8268 137.718 63.0842 137.37 63.2481 137.097C62.9494 137.136 62.5388 137.24 62.0164 137.408C61.494 137.576 61.0329 137.731 60.633 137.873C60.2159 138.025 59.9939 138.097 59.9671 138.09C59.6071 138.142 59.2995 138.086 59.0442 137.922C58.7716 137.768 58.6179 137.601 58.5828 137.421C58.5842 137.265 58.6995 137.087 58.9287 136.888C59.1311 136.682 59.4343 136.552 59.8383 136.496C59.8823 136.493 60.1142 136.537 60.5341 136.628C60.9442 136.703 61.4253 136.781 61.9773 136.863C62.512 136.955 62.9336 136.989 63.2419 136.967C63.063 136.737 62.7747 136.436 62.3769 136.065C61.9619 135.704 61.5979 135.391 61.2848 135.127C60.9448 134.856 60.7701 134.712 60.7604 134.696C60.5526 134.415 60.4635 134.122 60.4932 133.816C60.496 133.503 60.569 133.271 60.7121 133.122C60.8863 133.066 61.1172 133.088 61.4048 133.189C61.6657 133.283 61.9048 133.479 62.1222 133.776L62.3111 134.401C62.437 134.818 62.6004 135.28 62.8012 135.787C62.9925 136.277 63.1738 136.65 63.3451 136.908C63.425 136.728 63.5114 136.5 63.6044 136.224C63.6877 135.931 63.7624 135.643 63.8285 135.36C63.8678 135.071 63.9167 134.798 63.9752 134.542C64.0069 134.279 64.0407 134.059 64.0765 133.882L64.1158 133.593C64.3367 133.221 64.5811 132.968 64.8489 132.836C65.0994 132.713 65.3148 132.689 65.4951 132.763C65.6486 132.83 65.7459 133.019 65.7872 133.329C65.8285 133.638 65.7596 133.956 65.5806 134.282C65.573 134.309 65.4309 134.48 65.1541 134.795C64.8678 135.094 64.5539 135.464 64.2125 135.906C63.8614 136.331 63.6126 136.675 63.4659 136.938C63.7646 136.899 64.1752 136.795 64.6976 136.627C65.22 136.459 65.6811 136.304 66.081 136.162C66.4713 136.004 66.6798 135.928 66.7067 135.934C67.0666 135.882 67.3829 135.933 67.6554 136.087C67.9107 136.252 68.0559 136.424 68.091 136.604C68.0896 136.76 67.9877 136.941 67.7853 137.147C67.5561 137.346 67.2395 137.473 66.8355 137.529Z" fill="black"/>
<path fill-rule="evenodd" clip-rule="evenodd" d="M134.786 60.6932C133.894 61.045 133.315 60.8796 133.047 60.197C132.918 59.8901 132.9 59.5482 132.994 59.2292L132.004 59.1864C131.909 59.4378 131.865 59.7057 131.876 59.9743C131.887 60.2428 131.952 60.5065 132.067 60.7494C132.589 62.0709 133.58 62.4433 135.04 61.8663L142.05 59.0961L141.616 57.9952L134.786 60.6932ZM135.304 71.7285L135.35 67.2702L138.61 67.3037L138.569 71.2048L139.684 71.2161L139.724 67.315L142.873 67.3478L142.829 71.6669L143.943 71.6783L144 66.1747L134.248 66.0744L134.189 71.7171L135.304 71.7285ZM134.872 83.5235L142.924 82.0668L143.087 80.9365L135.766 77.331L143.772 76.1941L143.963 74.8705L133.888 76.4007L133.733 77.4762L141.122 81.1894L132.976 82.7162L132.821 83.7923L142.072 87.9717L142.237 86.8267L134.872 83.5235ZM140.568 92.8198L140.89 91.6829L131.505 89.0277L131.182 90.1647L140.568 92.8198ZM129.94 97.8359C129.823 97.3618 129.866 96.862 130.063 96.4153C130.238 95.986 130.507 95.601 130.849 95.2884C131.181 94.967 131.586 94.7317 132.029 94.6029L131.53 93.6699C130.973 93.7485 130.46 94.0152 130.075 94.4256C129.621 94.8675 129.266 95.4007 129.033 95.99C128.703 96.735 128.646 97.5726 128.872 98.3555C128.971 98.7129 129.153 99.0414 129.405 99.3136C129.657 99.5859 129.97 99.794 130.318 99.9205C130.697 100.08 131.108 100.146 131.517 100.112C131.875 100.084 132.222 99.9689 132.527 99.7781C132.827 99.5836 133.108 99.3617 133.367 99.1153C133.64 98.8585 133.901 98.5974 134.151 98.3321C134.383 98.084 134.629 97.8491 134.887 97.6285C135.117 97.4301 135.389 97.2871 135.683 97.2105C135.978 97.1356 136.29 97.1591 136.57 97.2774C136.758 97.344 136.928 97.4534 137.066 97.5968C137.204 97.7403 137.307 97.9139 137.366 98.104C137.488 98.5491 137.449 99.0228 137.255 99.4417C137.128 99.786 136.932 100.101 136.679 100.366C136.426 100.632 136.122 100.843 135.784 100.987L136.375 101.912C136.802 101.742 137.184 101.474 137.489 101.13C137.846 100.739 138.128 100.286 138.319 99.7921C138.644 99.0783 138.683 98.2668 138.426 97.5255C138.309 97.2055 138.124 96.9144 137.884 96.672C137.644 96.4297 137.355 96.2418 137.036 96.121C136.667 95.9649 136.264 95.9024 135.864 95.9391C135.508 95.9723 135.165 96.0867 134.861 96.2735C134.556 96.4657 134.27 96.6858 134.007 96.931C133.73 97.1856 133.465 97.4448 133.21 97.7088C132.973 97.9555 132.723 98.1889 132.46 98.4077C132.226 98.6036 131.952 98.7454 131.657 98.823C131.362 98.898 131.05 98.8745 130.77 98.7561C130.567 98.6832 130.386 98.5617 130.241 98.4025C130.097 98.2432 129.994 98.051 129.94 97.8425V97.8359ZM131.184 113.237L131.792 112.22L128.169 110.054L130.922 105.45L134.545 107.616L135.152 106.6L126.782 101.595L126.174 102.611L129.965 104.878L127.212 109.482L123.421 107.215L122.813 108.232L131.184 113.237ZM116.253 115.873C115.567 116.487 115.102 117.309 114.928 118.214C114.88 118.614 114.93 119.02 115.073 119.396C115.216 119.773 115.449 120.109 115.752 120.376C116.137 120.796 116.667 121.054 117.235 121.099C117.806 121.117 118.365 120.935 118.816 120.583L118.836 120.602C118.601 121.05 118.505 121.557 118.56 122.06C118.632 122.566 118.876 123.032 119.25 123.38C119.475 123.63 119.755 123.825 120.069 123.948C120.382 124.071 120.72 124.12 121.055 124.09C121.88 123.936 122.628 123.504 123.173 122.867C123.522 122.519 124.139 121.876 125.025 120.936L118.145 114.064C117.639 114.516 117.009 115.121 116.253 115.877V115.873ZM117.88 120.01C117.654 120.05 117.422 120.032 117.204 119.958C116.987 119.884 116.792 119.756 116.638 119.587C116.448 119.419 116.301 119.208 116.21 118.971C116.119 118.734 116.087 118.479 116.116 118.227C116.234 117.639 116.542 117.106 116.992 116.71C117.432 116.27 117.8 115.928 118.096 115.685L120.441 118.03L119.328 119.143C118.947 119.577 118.441 119.881 117.88 120.016V120.01ZM119.9 122.355C119.733 122.202 119.604 122.013 119.523 121.801C119.442 121.59 119.41 121.363 119.432 121.138C119.489 120.653 119.718 120.204 120.077 119.872L121.18 118.769L123.407 120.995C122.934 121.508 122.6 121.863 122.404 122.059C121.471 122.992 120.637 123.09 119.901 122.355H119.9ZM111.366 125.201L106.663 123.759L105.482 124.599L110.519 126.077C110.125 126.536 109.89 127.11 109.85 127.713C109.796 128.372 109.988 129.027 110.389 129.553C111.51 131.127 113.012 131.243 114.896 129.902C115.154 129.719 115.481 129.481 115.876 129.188C116.272 128.895 116.651 128.619 117.013 128.361L111.358 120.415L110.393 121.101L112.655 124.28L111.366 125.201ZM111.407 128.812C111.251 128.601 111.149 128.356 111.107 128.097C111.066 127.838 111.086 127.573 111.168 127.323C111.332 126.79 111.674 126.329 112.137 126.018L113.307 125.186L115.407 128.137C114.752 128.628 114.386 128.899 114.31 128.952C113.069 129.836 112.101 129.789 111.407 128.812ZM106.56 135.003L107.606 134.447L103.03 125.834L101.984 126.39L106.56 135.003ZM97.1851 128.64C96.8333 128.759 96.4742 128.885 96.1077 129.019C95.3892 129.231 94.72 129.583 94.1391 130.056C93.5583 130.529 93.0772 131.112 92.7242 131.773C92.4322 132.377 92.2694 133.035 92.2464 133.705C92.2234 134.375 92.3405 135.042 92.5904 135.665C92.7996 136.253 93.1129 136.799 93.5154 137.277C93.9088 137.736 94.3914 138.109 94.9339 138.375C95.5506 138.664 96.227 138.802 96.9076 138.779C97.7549 138.756 98.5919 138.587 99.3821 138.281C99.4517 138.256 99.8583 138.097 100.602 137.804C100.965 137.661 101.334 137.521 101.71 137.384L101.866 137.326L98.5114 128.175L98.3676 128.228C97.9217 128.391 97.5276 128.531 97.1851 128.647V128.64ZM95.7184 137.353C95.2602 137.161 94.8489 136.872 94.5126 136.506C94.1762 136.14 93.9228 135.706 93.7695 135.233C93.5686 134.746 93.472 134.223 93.4861 133.696C93.5001 133.17 93.6245 132.652 93.8512 132.176C94.4118 131.166 95.3448 130.413 96.4515 130.08C96.4695 130.074 96.531 130.053 96.6374 130.02C96.7437 129.987 96.9049 129.932 97.1196 129.858C97.3343 129.785 97.5563 129.706 97.7824 129.622L100.37 136.696C100.257 136.737 100.043 136.823 99.7299 136.953C99.4165 137.083 99.1811 137.176 99.0237 137.234C97.9787 137.697 96.7962 137.743 95.7184 137.362V137.353ZM82.7269 133.759L87.1043 132.909L87.7256 136.109L83.8953 136.853L84.108 137.947L87.9376 137.204L88.5395 140.295L84.2993 141.118L84.5113 142.212L89.9146 141.164L88.056 131.589L82.5163 132.664L82.7269 133.759ZM75.8717 134.593C76.2509 134.286 76.7214 134.114 77.2093 134.103C77.6724 134.081 78.1347 134.161 78.563 134.338C78.9942 134.503 79.3786 134.77 79.6825 135.118L80.3172 134.271C80.0106 133.799 79.5518 133.447 79.0171 133.272C78.4242 133.048 77.7905 132.951 77.1578 132.989C76.3433 133.006 75.5606 133.309 74.9467 133.844C74.6648 134.085 74.4446 134.39 74.3044 134.733C74.1642 135.077 74.1081 135.448 74.1408 135.818C74.1573 136.228 74.2719 136.628 74.4752 136.985C74.6528 137.297 74.9028 137.563 75.2042 137.759C75.5077 137.948 75.8279 138.109 76.1606 138.24C76.5084 138.378 76.8555 138.504 77.202 138.619C77.5253 138.724 77.8423 138.848 78.1517 138.989C78.4288 139.113 78.6737 139.3 78.8673 139.534C79.0598 139.77 79.1699 140.062 79.1809 140.366C79.1998 140.564 79.1724 140.764 79.101 140.95C79.0295 141.136 78.9158 141.302 78.769 141.436C78.4177 141.734 77.9727 141.899 77.5123 141.901C77.1468 141.932 76.7789 141.887 76.4312 141.771C76.0835 141.654 75.7634 141.468 75.4905 141.222L74.9026 142.15C75.2393 142.463 75.6448 142.692 76.0864 142.819C76.5904 142.977 77.1195 143.041 77.6467 143.007C78.431 143 79.1826 142.691 79.7454 142.145C79.9865 141.903 80.1726 141.612 80.2912 141.292C80.4099 140.972 80.4582 140.63 80.4329 140.29C80.4167 139.889 80.3019 139.499 80.0985 139.153C79.9177 138.845 79.6685 138.583 79.3702 138.386C79.0673 138.192 78.7469 138.026 78.4132 137.89C78.0645 137.748 77.7172 137.617 77.3712 137.498C77.0474 137.388 76.7301 137.26 76.4208 137.114C76.1441 136.985 75.8995 136.797 75.7045 136.562C75.5125 136.326 75.4024 136.034 75.3908 135.73C75.3734 135.517 75.408 135.303 75.4918 135.106C75.5756 134.91 75.706 134.737 75.8717 134.602V134.593ZM50.4933 131.651C50.8197 130.751 51.3277 130.427 52.0175 130.677C52.3326 130.784 52.601 130.996 52.7773 131.279L53.4661 130.566C53.341 130.328 53.1691 130.117 52.9608 129.947C52.7524 129.777 52.5119 129.651 52.2536 129.577C50.916 129.092 49.9797 129.587 49.4446 131.063L46.8724 138.149L47.986 138.55L50.4933 131.651ZM41.2879 126.102L45.2746 128.098L43.8146 131.013L40.3262 129.267L39.8272 130.263L43.3157 132.01L41.9059 134.826L38.0435 132.892L37.5446 133.889L42.4657 136.353L46.8323 127.632L41.7861 125.105L41.2879 126.102ZM31.0552 120.068L28.4208 127.814L29.3304 128.506L36.0351 123.854L33.1459 131.406L34.2106 132.216L37.762 122.664L36.8965 122.006L30.064 126.666L32.6817 118.802L31.8176 118.143L23.6743 124.204L24.5946 124.905L31.0552 120.068ZM20.0982 120.227L20.9161 121.086L27.9854 114.366L27.1695 113.508L20.0982 120.227ZM21.2271 108.482C21.6937 108.627 22.0988 108.922 22.3788 109.323C22.6552 109.695 22.8455 110.124 22.9359 110.579C23.0391 111.028 23.0306 111.497 22.9112 111.942L23.9679 111.999C24.1891 111.482 24.2269 110.905 24.0749 110.363C23.9321 109.746 23.6599 109.166 23.2764 108.661C22.8102 107.993 22.1235 107.51 21.3368 107.298C20.9799 107.198 20.6042 107.184 20.241 107.259C19.8778 107.333 19.5376 107.493 19.2488 107.725C18.9169 107.967 18.6478 108.284 18.4643 108.651C18.3029 108.973 18.2212 109.328 18.2262 109.688C18.2378 110.045 18.2826 110.401 18.36 110.75C18.4389 111.116 18.527 111.474 18.6242 111.826C18.7161 112.153 18.7896 112.486 18.8442 112.822C18.8947 113.121 18.8759 113.428 18.7894 113.719C18.6999 114.01 18.5179 114.265 18.271 114.443C18.1169 114.569 17.9356 114.657 17.7414 114.701C17.5472 114.745 17.3455 114.743 17.1521 114.696C16.7093 114.569 16.3252 114.291 16.0673 113.909C15.8384 113.623 15.6706 113.292 15.5742 112.939C15.4778 112.585 15.4549 112.215 15.5069 111.852L14.4087 111.879C14.3358 112.333 14.3703 112.798 14.5097 113.236C14.6576 113.744 14.8986 114.22 15.2206 114.64C15.6635 115.287 16.3377 115.738 17.104 115.902C17.4388 115.968 17.7839 115.961 18.1159 115.882C18.4478 115.802 18.7587 115.652 19.0274 115.442C19.3525 115.206 19.6143 114.894 19.7899 114.533C19.9453 114.212 20.0247 113.858 20.022 113.501C20.0152 113.142 19.9749 112.783 19.9016 112.431C19.8267 112.062 19.7424 111.701 19.6488 111.346C19.5602 111.016 19.4904 110.681 19.4394 110.343C19.3927 110.042 19.4132 109.734 19.4996 109.441C19.5892 109.15 19.7709 108.896 20.0173 108.717C20.1843 108.582 20.3819 108.49 20.5928 108.449C20.8037 108.408 21.0215 108.419 21.2271 108.482ZM7.40633 101.607L7.96544 102.651L11.6873 100.658L14.2188 105.388L10.4969 107.38L11.056 108.424L19.6548 103.822L19.0957 102.778L15.2019 104.862L12.6705 100.133L16.5649 98.0479L16.0058 97.0039L7.40633 101.607ZM12.613 87.5276C12.404 86.631 11.906 85.828 11.1958 85.2423C10.868 85.0077 10.4881 84.8564 10.0888 84.8014C9.68945 84.7464 9.28276 84.7894 8.90378 84.9266C8.35032 85.0627 7.86902 85.4035 7.55681 85.8803C7.26669 86.3731 7.15876 86.952 7.25183 87.5162L7.22508 87.5236C6.94468 87.1028 6.5454 86.775 6.07808 86.5819C5.59931 86.4031 5.07383 86.3932 4.58866 86.5538C4.26141 86.6314 3.95668 86.7839 3.69854 86.9995C3.44039 87.215 3.23591 87.4876 3.10124 87.7958C2.84047 88.5931 2.86005 89.4556 3.15675 90.2403C3.29542 90.7129 3.56294 91.5634 3.95931 92.7917L13.2925 90.057C13.1373 89.3962 12.9097 88.5531 12.6096 87.5276H12.613ZM8.2022 86.9691C8.27536 86.7517 8.40244 86.5564 8.57156 86.4015C8.74069 86.2465 8.94633 86.1369 9.16929 86.083C9.40768 85.9966 9.66342 85.9691 9.91473 86.0029C10.166 86.0367 10.4054 86.1307 10.6126 86.2769C11.0719 86.663 11.3918 87.189 11.5235 87.7744C11.6987 88.3714 11.822 88.8578 11.8933 89.2337L8.71116 90.1667L8.26841 88.6559C8.0736 88.1137 8.05094 87.5247 8.20354 86.9691H8.2022ZM5.17587 87.6159C5.39002 87.5432 5.61808 87.521 5.84223 87.551C6.06639 87.5811 6.28055 87.6626 6.468 87.7891C6.86703 88.072 7.1517 88.4883 7.27056 88.9628L7.70929 90.4603L4.68764 91.3458C4.46471 90.685 4.31423 90.2209 4.2362 89.9534C3.86524 88.688 4.1789 87.9077 5.1772 87.6125L5.17587 87.6159ZM6.59373 78.8847L10.0287 75.3641L9.82204 73.9295L6.20248 77.7303C5.97309 77.1722 5.56963 76.7031 5.05214 76.3927C4.4911 76.0436 3.8207 75.9144 3.17013 76.0302C1.2578 76.3053 0.466378 77.5876 0.795875 79.8772C0.840462 80.1893 0.902661 80.5885 0.982472 81.075C1.06228 81.5614 1.13362 82.0251 1.19649 82.4661L10.8507 81.077L10.6835 79.9012L6.82179 80.457L6.59373 78.8847ZM3.36274 77.2662C3.62166 77.2246 3.88675 77.2454 4.13602 77.3268C4.38529 77.4082 4.61154 77.5479 4.79599 77.7343C5.19524 78.1241 5.44837 78.6394 5.51294 79.1936L5.7176 80.6142L2.13214 81.1298C1.99838 80.3237 1.92437 79.8747 1.9101 79.7829C1.69341 78.2749 2.17807 77.4356 3.36408 77.2648L3.36274 77.2662ZM0 70.1628L0.0180567 71.3472L9.77055 71.1981L9.75249 70.0143L0 70.1628ZM9.97185 64.7141C10.0334 64.3476 10.092 63.9712 10.1477 63.5851C10.3017 62.8521 10.3083 62.0958 10.1671 61.3602C10.0258 60.6247 9.73963 59.9246 9.32512 59.3008C8.93161 58.7579 8.42906 58.3031 7.84965 57.9657C7.27024 57.6283 6.62675 57.4155 5.96037 57.3412C5.34303 57.2464 4.71368 57.2636 4.10244 57.392C3.51241 57.5212 2.95488 57.7692 2.46387 58.121C1.91727 58.5274 1.47471 59.0575 1.17241 59.6679C0.790751 60.4247 0.541904 61.2413 0.436728 62.0823C0.426028 62.1559 0.373415 62.5893 0.278891 63.3825C0.234304 63.7704 0.183029 64.1618 0.125066 64.5569L0.101657 64.7228L9.7565 66.1052L9.7779 65.9533C9.84523 65.4843 9.90899 65.0712 9.96918 64.7141H9.97185ZM2.99222 59.2967C3.37877 58.9844 3.82812 58.7591 4.30964 58.6362C4.79115 58.5133 5.29352 58.4956 5.78247 58.5845C6.30652 58.6382 6.81346 58.8013 7.27058 59.0632C7.72769 59.325 8.12481 59.6798 8.43628 60.1047C9.06071 61.0773 9.28098 62.2552 9.05024 63.3878C9.05024 63.4059 9.0362 63.4701 9.01546 63.5798C8.99473 63.6894 8.96664 63.8566 8.92986 64.0814C8.89307 64.3061 8.85763 64.5375 8.82352 64.7769L1.37573 63.7102C1.39245 63.5905 1.41853 63.3624 1.45264 63.0247C1.48675 62.6869 1.51618 62.4354 1.53958 62.2696C1.62571 61.1287 2.14553 60.0642 2.99222 59.2947V59.2967ZM12.4946 49.6111L11.072 53.8366L7.98217 52.7967L9.22681 49.0988L8.1701 48.743L6.92546 52.4408L3.94126 51.4376L5.31966 47.3439L4.26295 46.9827L2.50734 52.1994L11.7535 55.3127L13.554 49.9623L12.4946 49.6111ZM15.2534 43.2375C15.3264 43.7211 15.2361 44.2154 14.9966 44.6419C14.7814 45.0525 14.4779 45.4102 14.1077 45.6893C13.7475 45.9779 13.3219 46.1737 12.8684 46.2598L13.2764 47.2362C13.8384 47.2108 14.3748 46.9939 14.7966 46.6216C15.2906 46.2247 15.6947 45.7275 15.9824 45.1629C16.382 44.4522 16.5182 43.6233 16.3669 42.8221C16.3023 42.457 16.1513 42.1126 15.9265 41.8177C15.7018 41.5228 15.4097 41.2859 15.0748 41.1267C14.7132 40.9326 14.3102 40.8282 13.8997 40.8224C13.5402 40.8167 13.1847 40.8977 12.8631 41.0585C12.5457 41.2234 12.2443 41.4175 11.9629 41.6383C11.6677 41.8684 11.3828 42.1034 11.1082 42.3433C10.8528 42.5685 10.5848 42.7791 10.3056 42.9739C10.058 43.1498 9.77336 43.2665 9.4736 43.315C9.17238 43.3609 8.86441 43.3077 8.59613 43.1632C8.41566 43.079 8.2572 42.9541 8.13325 42.7982C8.0093 42.6423 7.92324 42.4598 7.88184 42.265C7.80324 41.8111 7.88732 41.3441 8.11927 40.9461C8.2777 40.6154 8.50223 40.3208 8.77899 40.0802C9.05575 39.8397 9.37887 39.6584 9.72841 39.5477L9.22681 38.5705C8.78607 38.7017 8.38237 38.9347 8.04838 39.2507C7.6577 39.6034 7.33571 40.0254 7.09868 40.4954C6.70744 41.175 6.59251 41.9791 6.77765 42.7412C6.86369 43.0715 7.01988 43.3794 7.23558 43.6439C7.45127 43.9084 7.72143 44.1233 8.02764 44.2741C8.38109 44.4644 8.77592 44.5647 9.17732 44.5664C9.53468 44.5667 9.88732 44.4848 10.2079 44.3269C10.5293 44.1647 10.8348 43.9725 11.1202 43.7531C11.4194 43.5257 11.7092 43.293 11.9896 43.0549C12.2488 42.8315 12.5203 42.623 12.8029 42.4302C13.0544 42.2582 13.3408 42.144 13.6416 42.0958C13.9426 42.05 14.2503 42.1033 14.5184 42.2476C14.7124 42.3401 14.881 42.4786 15.0092 42.6511C15.1374 42.8237 15.2208 43.025 15.2534 43.2375ZM30.8024 22.9674C31.4097 23.7071 31.4295 24.309 30.8619 24.7731C30.6091 24.9897 30.2892 25.1121 29.9564 25.1196L30.2185 26.076C30.4874 26.0901 30.7564 26.0497 31.0092 25.9571C31.2621 25.8646 31.4936 25.7219 31.6899 25.5376C32.7885 24.636 32.8398 23.5784 31.8437 22.3648L27.0611 16.5388L26.1435 17.2879L30.8024 22.9674ZM40.2325 17.8504L36.5026 20.2928L34.7169 17.5654L37.9807 15.4253L37.3687 14.4936L34.1049 16.6305L32.3801 13.996L35.9916 11.6298L35.381 10.6975L30.7763 13.7125L36.1194 21.8719L40.8405 18.7807L40.2325 17.8504ZM50.5093 11.9254L45.0446 5.83932L43.9965 6.2941L44.7703 14.412L39.5992 8.19551L38.3719 8.72721L44.9623 16.5007L45.9595 16.068L45.2419 7.829L50.817 13.9619L51.8142 13.5299L50.5167 3.46172L49.4553 3.92186L50.5093 11.9254ZM55.6478 2.25721L54.5028 2.55951L56.988 11.9896L58.133 11.6873L55.6478 2.25721ZM65.3916 8.89374C65.0405 9.23355 64.5864 9.44697 64.1008 9.50035C63.6415 9.56387 63.1739 9.52457 62.7317 9.38531C62.2875 9.26007 61.8807 9.02766 61.5473 8.70848L60.9902 9.60802C61.3374 10.0508 61.8257 10.3613 62.3739 10.4882C62.984 10.659 63.6234 10.6986 64.2499 10.6045C65.0601 10.5166 65.8133 10.146 66.3774 9.55787C66.6368 9.29305 66.8292 8.97005 66.9384 8.61579C67.0476 8.26153 67.0706 7.88629 67.0054 7.52136C66.9534 7.11421 66.804 6.72559 66.57 6.38841C66.3658 6.09234 66.0933 5.84985 65.7755 5.68148C65.4567 5.51938 65.1235 5.38728 64.7803 5.28689C64.4236 5.17988 64.0669 5.08468 63.7102 5.00131C63.3788 4.92463 63.0519 4.82952 62.7311 4.7164C62.4443 4.61694 62.1842 4.45313 61.9706 4.23754C61.7581 4.01905 61.6224 3.73735 61.5841 3.43497C61.5477 3.23915 61.5573 3.03755 61.612 2.84606C61.6668 2.65456 61.7653 2.4784 61.8997 2.33144C62.2235 2.00395 62.6524 1.80102 63.1109 1.75828C63.4721 1.69495 63.8424 1.70631 64.199 1.79166C64.5556 1.87701 64.8909 2.03455 65.1842 2.25454L65.6878 1.27875C65.3248 0.996513 64.9005 0.803403 64.4492 0.714951C63.9333 0.601442 63.4009 0.584657 62.8789 0.665456C62.0982 0.742277 61.377 1.1163 60.8644 1.71012C60.6457 1.97214 60.486 2.27818 60.3961 2.60743C60.3062 2.93668 60.2882 3.28141 60.3434 3.61822C60.394 4.01662 60.5422 4.39638 60.7748 4.72376C60.9822 5.01458 61.2536 5.25391 61.568 5.42332C61.887 5.59011 62.2209 5.72692 62.5652 5.83196C62.9246 5.94299 63.2813 6.04263 63.6353 6.13091C63.9675 6.21194 64.2948 6.31176 64.6157 6.42987C64.9027 6.53332 65.1631 6.69915 65.3782 6.91542C65.5905 7.134 65.7259 7.41568 65.7641 7.71798C65.8024 7.92917 65.7885 8.14653 65.7236 8.35111C65.6586 8.55569 65.5446 8.74129 65.3916 8.89174V8.89374ZM78.1537 0.151148L76.9692 0.127738L76.8869 4.34922L71.5238 4.24422L71.6061 0.0234004L70.4223 0L70.2317 9.75181L71.4161 9.77455L71.5024 5.36046L76.8655 5.46546L76.7793 9.87956L77.963 9.9023L78.1537 0.151148ZM87.8547 11.8291C88.7273 12.1226 89.6722 12.1212 90.5439 11.8251C90.9154 11.6691 91.2434 11.4252 91.4997 11.1144C91.756 10.8036 91.9329 10.4351 92.0153 10.0407C92.1903 9.49854 92.1533 8.91011 91.9116 8.39414C91.6451 7.88819 91.2093 7.49193 90.6803 7.27457L90.6877 7.24781C91.1933 7.23088 91.6823 7.06344 92.0922 6.76695C92.4959 6.45376 92.7805 6.01203 92.8988 5.51495C93.0047 5.19583 93.0351 4.85646 92.9875 4.5236C92.9399 4.19073 92.8157 3.87346 92.6246 3.59682C92.0831 2.95589 91.3388 2.51933 90.5152 2.35954C90.0403 2.22934 89.1755 2.01064 87.9209 1.70344L85.342 11.0807C85.9853 11.2961 86.8222 11.5455 87.8526 11.8291H87.8547ZM90.6482 8.37073C90.7948 8.54729 90.8941 8.75811 90.9371 8.98349C90.98 9.20887 90.9651 9.44147 90.8937 9.65952C90.842 9.90774 90.731 10.1398 90.5702 10.3358C90.4093 10.5318 90.2034 10.686 89.9701 10.7851C89.4002 10.973 88.7844 10.9688 88.2171 10.7731C87.617 10.6077 87.1384 10.4567 86.7812 10.3203L87.6627 7.12209L89.1809 7.54009C89.7439 7.65859 90.2565 7.94798 90.6489 8.36873L90.6482 8.37073ZM91.6889 5.45609C91.6382 5.67654 91.5372 5.88229 91.3938 6.05724C91.2504 6.2322 91.0685 6.37164 90.8623 6.46465C90.4121 6.6557 89.9085 6.67941 89.4424 6.53153L87.9376 6.11821L88.7729 3.08185C89.4524 3.23968 89.9264 3.3556 90.1948 3.42962C91.466 3.77918 91.964 4.45557 91.6889 5.45877V5.45609ZM98.2706 11.1797L99.5908 15.9175L100.935 16.4592L99.4637 11.4205C100.063 11.5039 100.673 11.3913 101.203 11.0995C101.787 10.79 102.235 10.2748 102.461 9.6535C103.184 7.86155 102.472 6.53331 100.327 5.66877C100.034 5.55017 99.6577 5.40326 99.1976 5.22803C98.7374 5.05281 98.3005 4.88182 97.8867 4.71506L94.2404 13.7613L95.3392 14.204L96.7979 10.5858L98.2706 11.1797ZM101.293 9.19738C101.199 9.44209 101.047 9.66078 100.852 9.83526C100.656 10.0097 100.421 10.135 100.167 10.2006C99.6297 10.3499 99.0572 10.31 98.5455 10.0876L97.2146 9.55251L98.5689 6.19245C99.334 6.48093 99.7596 6.64255 99.8456 6.67733C101.258 7.24625 101.741 8.08583 101.293 9.19738ZM109.038 9.81535L108 9.24486L103.303 17.7935L104.341 18.364L109.038 9.81535ZM108.85 21.185C109.134 21.4253 109.428 21.6677 109.732 21.912C110.284 22.4184 110.931 22.81 111.635 23.0639C112.34 23.3177 113.088 23.4288 113.836 23.3907C114.504 23.3293 115.152 23.1291 115.737 22.8029C116.323 22.4768 116.835 22.0318 117.239 21.4967C117.635 21.0139 117.941 20.4639 118.143 19.8728C118.333 19.2992 118.404 18.693 118.351 18.0911C118.282 17.4141 118.052 16.7632 117.683 16.1917C117.226 15.478 116.65 14.848 115.98 14.3291C115.922 14.2845 115.577 14.0181 114.943 13.5299C114.63 13.2922 114.32 13.0483 114.011 12.7982L113.88 12.6932L107.766 20.2922L107.885 20.3878C108.254 20.6847 108.576 20.9505 108.853 21.185H108.85ZM117.073 17.9467C117.144 18.4385 117.108 18.94 116.968 19.4169C116.828 19.8938 116.587 20.3349 116.261 20.7102C115.948 21.1335 115.549 21.4864 115.091 21.7459C114.632 22.0055 114.125 22.166 113.6 22.217C112.445 22.2578 111.32 21.8463 110.464 21.07C110.449 21.0579 110.397 21.0158 110.316 20.9422C110.235 20.8687 110.102 20.759 109.929 20.6125C109.755 20.466 109.573 20.3176 109.385 20.1657L114.102 14.3044C114.195 14.3797 114.379 14.5184 114.652 14.7204C114.926 14.9223 115.126 15.0757 115.254 15.1805C116.191 15.8364 116.841 16.8264 117.073 17.9467ZM120.274 31.413L117.556 27.8791L120.14 25.8914L122.518 28.9832L123.402 28.3037L121.023 25.2112L123.519 23.2917L126.153 26.7153L127.036 26.0358L123.68 21.6732L115.953 27.6189L119.393 32.0918L120.274 31.413ZM123.944 37.3132C123.505 37.1003 123.149 36.7474 122.933 36.31C122.716 35.9002 122.593 35.4474 122.573 34.9844C122.539 34.5239 122.619 34.0621 122.805 33.6395L121.769 33.4234C121.472 33.9009 121.347 34.4656 121.415 35.0239C121.462 35.6566 121.643 36.272 121.946 36.8296C122.305 37.5611 122.911 38.1425 123.656 38.4716C123.994 38.625 124.363 38.6955 124.733 38.6772C125.104 38.659 125.464 38.5524 125.785 38.3666C126.15 38.1785 126.464 37.9056 126.701 37.5707C126.909 37.2775 127.044 36.9385 127.094 36.5822C127.137 36.2272 127.148 35.869 127.125 35.5121C127.103 35.1389 127.07 34.7711 127.028 34.4086C126.986 34.071 126.964 33.7314 126.961 33.3913C126.956 33.0877 127.021 32.7871 127.151 32.5125C127.283 32.2382 127.502 32.0147 127.773 31.8758C127.944 31.7746 128.137 31.7147 128.336 31.7007C128.534 31.6868 128.733 31.7193 128.917 31.7956C129.336 31.9877 129.673 32.3214 129.87 32.7379C130.053 33.0558 130.168 33.4077 130.21 33.772C130.252 34.1362 130.218 34.5052 130.112 34.856L131.201 34.9965C131.342 34.5589 131.379 34.0943 131.307 33.6401C131.238 33.1164 131.072 32.61 130.818 32.1467C130.479 31.4384 129.88 30.8877 129.146 30.6084C128.825 30.4926 128.483 30.4472 128.143 30.4753C127.803 30.5033 127.473 30.6041 127.175 30.771C126.818 30.9544 126.512 31.2232 126.283 31.5535C126.08 31.8477 125.948 32.1849 125.897 32.5386C125.849 32.8954 125.834 33.2559 125.853 33.6154C125.871 33.9904 125.899 34.3604 125.938 34.7256C125.975 35.0657 125.993 35.4075 125.992 35.7495C125.993 36.0545 125.925 36.3557 125.796 36.6317C125.663 36.9057 125.445 37.1292 125.174 37.2684C124.988 37.3753 124.779 37.4352 124.565 37.4429C124.35 37.4506 124.137 37.4065 123.944 37.3132Z" fill="black"/>
<path fill-rule="evenodd" clip-rule="evenodd" d="M58.8274 42.1963C58.8274 42.6236 58.975 42.6458 61.8147 42.6458H64.802V55.326C64.802 62.3001 64.8611 68.1628 64.9334 68.3543C65.0277 68.6033 68.028 65.6656 75.4995 58.0084C81.2387 52.1271 85.9663 47.1746 86.0057 47.0031C86.0451 46.8317 85.9865 46.6914 85.8754 46.6914C85.7643 46.6914 82.274 50.1441 78.119 54.3643C73.2203 59.3401 70.5234 61.9272 70.4471 61.7247C70.382 61.553 70.355 57.2153 70.3869 52.0853L70.4446 42.7582L73.4872 42.6957C76.347 42.6369 76.5298 42.6065 76.5298 42.19C76.5298 41.7563 76.3402 41.7468 67.6786 41.7468C58.975 41.7468 58.8274 41.7542 58.8274 42.1963ZM69.2141 70.8576C62.881 77.2894 60.1374 79.9339 59.8949 79.8395C58.9389 79.4668 58.8232 77.7672 59.5997 75.5098C60.0885 74.0887 60.1197 73.8143 59.8763 73.0759C59.4693 71.8416 58.6165 71.3002 57.0957 71.3103C54.839 71.3253 53.5111 72.7473 53.5215 75.1376C53.5315 77.3928 55.184 79.483 57.6916 80.4117C58.438 80.6881 59.0487 80.9747 59.0487 81.0486C59.0487 81.1226 58.0828 82.1677 56.9025 83.3712C55.7222 84.5746 54.8291 85.6334 54.9183 85.724C55.0074 85.8143 56.1475 84.8168 57.4517 83.5072L59.8232 81.1259L61.9253 80.9974C63.0815 80.9266 64.3014 80.803 64.636 80.7227L65.2445 80.5769V100.857H62.1466C59.6979 100.857 59.0487 100.92 59.0487 101.16C59.0487 101.57 77.7053 101.902 79.7384 101.528C83.2864 100.875 85.6501 99.7353 87.6042 97.7353C89.85 95.4367 90.5962 93.3579 90.4289 89.8666C90.3078 87.3399 89.634 85.8121 87.8357 83.9855C86.3297 82.4558 84.195 81.3118 81.7299 80.7135C80.878 80.5068 80.0316 80.2917 79.849 80.2359C79.6665 80.18 80.0648 79.9916 80.7341 79.8174C83.8916 78.9962 86.7269 76.9129 87.9844 74.4908C88.5287 73.4421 88.9268 73.0036 88.9215 70.9822C88.9166 69.1644 88.4858 68.6256 88.0981 67.7619C87.4962 66.4214 85.6386 64.4076 84.2999 63.6441C83.0687 62.9422 80.5518 62.0751 79.1852 61.8823L78.1894 61.7418L69.2141 70.8576ZM79.3633 63.5617C81.5518 64.8365 82.5787 67.2627 82.5916 71.1896C82.604 74.8854 81.9306 77.017 80.3046 78.4305C79.0416 79.5286 78.1919 79.7334 74.2617 79.8864L70.7765 80.0222V69.9586L74.259 66.416C76.1745 64.4679 77.8425 62.8746 77.9655 62.8757C78.0887 62.8771 78.7176 63.1856 79.3633 63.5617ZM65.0069 76.7868C64.6555 79.0441 63.5535 80.1773 61.7082 80.1788L60.7167 80.1797L62.9211 77.9322C64.1335 76.696 65.1374 75.6847 65.152 75.6847C65.1666 75.6847 65.1011 76.1807 65.0069 76.7868ZM78.832 80.9702C82.8102 82.0227 84.6946 86.2494 84.0511 92.676C83.9206 93.9798 83.6052 95.6125 83.3503 96.304C82.8252 97.7299 81.4639 99.3548 80.3015 99.9439C78.605 100.803 75.5272 101.219 72.6554 100.976L70.7765 100.817V80.6292H74.1599C76.4703 80.6292 77.952 80.7374 78.832 80.9702Z" fill="black"/>
</svg>
