<svg width="229" height="22" viewBox="0 0 229 22" fill="none" xmlns="http://www.w3.org/2000/svg">
<path d="M5.376 14.392C5.376 15.944 5.24 17.184 4.968 18.112C4.696 19.04 4.24 19.8 3.6 20.392C2.96 21 2.056 21.536 0.888 22H0.864C0.816 22 0.776 21.96 0.744 21.88C0.712 21.816 0.712 21.768 0.744 21.736C1.608 21.208 2.208 20.4 2.544 19.312C2.88 18.24 3.048 16.816 3.048 15.04V2.944C3.048 2.464 3 2.112 2.904 1.888C2.808 1.664 2.632 1.512 2.376 1.432C2.136 1.336 1.744 1.288 1.2 1.288C1.168 1.288 1.152 1.24 1.152 1.144C1.152 1.048 1.168 1 1.2 1L2.52 1.024C3.224 1.056 3.776 1.072 4.176 1.072C4.608 1.072 5.144 1.056 5.784 1.024L6.912 1C6.944 1 6.96 1.048 6.96 1.144C6.96 1.24 6.944 1.288 6.912 1.288C6.464 1.288 6.128 1.336 5.904 1.432C5.696 1.528 5.552 1.696 5.472 1.936C5.408 2.16 5.376 2.512 5.376 2.992V14.392ZM24.8179 12.256C24.8179 12.224 24.8499 12.208 24.9139 12.208C24.9619 12.208 25.0019 12.224 25.0339 12.256C25.0819 12.272 25.1059 12.288 25.1059 12.304C24.9459 13.52 24.8659 14.632 24.8659 15.64C24.8659 15.768 24.8419 15.864 24.7939 15.928C24.7459 15.976 24.6499 16 24.5059 16H14.0899C14.0419 16 14.0179 15.952 14.0179 15.856C14.0179 15.76 14.0419 15.712 14.0899 15.712C14.6339 15.712 15.0259 15.672 15.2659 15.592C15.5219 15.512 15.6899 15.36 15.7699 15.136C15.8659 14.896 15.9139 14.536 15.9139 14.056V2.944C15.9139 2.464 15.8659 2.112 15.7699 1.888C15.6899 1.664 15.5219 1.512 15.2659 1.432C15.0099 1.336 14.6179 1.288 14.0899 1.288C14.0419 1.288 14.0179 1.24 14.0179 1.144C14.0179 1.048 14.0419 1 14.0899 1H24.0739C24.2339 1 24.3139 1.072 24.3139 1.216L24.3619 4.336C24.3619 4.368 24.3139 4.392 24.2179 4.408C24.1379 4.424 24.0899 4.408 24.0739 4.36C23.6899 2.536 22.5779 1.624 20.7379 1.624H19.7779C19.2019 1.624 18.7939 1.728 18.5539 1.936C18.3139 2.144 18.1939 2.496 18.1939 2.992V7.888H20.4979C22.2579 7.888 23.1379 7.296 23.1379 6.112C23.1379 6.064 23.1779 6.04 23.2579 6.04C23.3539 6.04 23.4019 6.064 23.4019 6.112L23.3779 8.2L23.4019 9.328C23.4339 9.84 23.4499 10.256 23.4499 10.576C23.4499 10.608 23.4019 10.624 23.3059 10.624C23.2099 10.624 23.1619 10.608 23.1619 10.576C23.1619 9.2 22.2659 8.512 20.4739 8.512H18.1939V13.96C18.1939 14.488 18.2899 14.856 18.4819 15.064C18.6899 15.272 19.0499 15.376 19.5619 15.376H20.7379C22.8819 15.376 24.2419 14.336 24.8179 12.256ZM53.5189 1C53.5509 1 53.5669 1.048 53.5669 1.144C53.5669 1.24 53.5509 1.288 53.5189 1.288C52.9429 1.288 52.4149 1.504 51.9349 1.936C51.4549 2.368 51.0549 2.992 50.7349 3.808L46.0789 15.976C46.0629 16.04 45.9749 16.072 45.8149 16.072C45.6549 16.072 45.5669 16.04 45.5509 15.976L42.4549 9.352L39.9349 15.976C39.9189 16.04 39.8309 16.072 39.6709 16.072C39.5109 16.072 39.4229 16.04 39.4069 15.976L33.3349 2.992C32.9989 2.288 32.7109 1.832 32.4709 1.624C32.2469 1.4 31.9029 1.288 31.4389 1.288C31.3909 1.288 31.3669 1.24 31.3669 1.144C31.3669 1.048 31.3909 1 31.4389 1L32.0629 1.024C32.4149 1.056 32.8149 1.072 33.2629 1.072C34.1589 1.072 34.9749 1.056 35.7109 1.024C35.9349 1.008 36.2149 1 36.5509 1C36.5989 1 36.6229 1.048 36.6229 1.144C36.6229 1.24 36.5989 1.288 36.5509 1.288C36.1189 1.288 35.8069 1.336 35.6149 1.432C35.4389 1.512 35.3509 1.672 35.3509 1.912C35.3509 2.184 35.4949 2.632 35.7829 3.256L40.3669 13.024L42.0949 8.56L39.4789 2.992C39.1909 2.4 38.9189 1.968 38.6629 1.696C38.4229 1.424 38.1349 1.288 37.7989 1.288C37.7509 1.288 37.7269 1.24 37.7269 1.144C37.7269 1.048 37.7509 1 37.7989 1L38.3749 1.024C38.7269 1.056 39.0789 1.072 39.4309 1.072C40.1829 1.072 40.8469 1.056 41.4229 1.024C41.5829 1.008 41.7909 1 42.0469 1C42.0949 1 42.1189 1.048 42.1189 1.144C42.1189 1.24 42.0949 1.288 42.0469 1.288C41.7909 1.288 41.6069 1.32 41.4949 1.384C41.3989 1.432 41.3509 1.528 41.3509 1.672C41.3509 1.928 41.5429 2.456 41.9269 3.256L43.2229 5.992L44.0869 3.712C44.3749 2.96 44.5189 2.392 44.5189 2.008C44.5189 1.528 44.2789 1.288 43.7989 1.288C43.7509 1.288 43.7269 1.24 43.7269 1.144C43.7269 1.048 43.7509 1 43.7989 1C43.9429 1 44.1109 1.016 44.3029 1.048C44.4949 1.064 44.8469 1.072 45.3589 1.072C45.6469 1.072 45.9829 1.056 46.3669 1.024L47.3029 1C47.3349 1 47.3509 1.048 47.3509 1.144C47.3509 1.24 47.3349 1.288 47.3029 1.288C46.7589 1.288 46.2789 1.488 45.8629 1.888C45.4469 2.288 45.0709 2.928 44.7349 3.808L43.5829 6.784L46.5349 13.024L50.0389 3.88C50.1989 3.464 50.2789 3.072 50.2789 2.704C50.2789 2.256 50.1429 1.912 49.8709 1.672C49.6149 1.416 49.2469 1.288 48.7669 1.288C48.7189 1.288 48.6949 1.24 48.6949 1.144C48.6949 1.048 48.7189 1 48.7669 1L49.8229 1.024C50.3989 1.056 50.9189 1.072 51.3829 1.072C51.7029 1.072 52.0709 1.056 52.4869 1.024L53.5189 1ZM63.7901 14.056C63.7901 14.552 63.8301 14.912 63.9101 15.136C63.9901 15.36 64.1501 15.512 64.3901 15.592C64.6461 15.672 65.0461 15.712 65.5901 15.712C65.6381 15.712 65.6621 15.76 65.6621 15.856C65.6621 15.952 65.6381 16 65.5901 16C65.0781 16 64.6701 15.992 64.3661 15.976L62.5901 15.952L60.8621 15.976C60.5581 15.992 60.1421 16 59.6141 16C59.5661 16 59.5421 15.952 59.5421 15.856C59.5421 15.76 59.5661 15.712 59.6141 15.712C60.1581 15.712 60.5501 15.672 60.7901 15.592C61.0461 15.512 61.2221 15.36 61.3181 15.136C61.4141 14.896 61.4621 14.536 61.4621 14.056V2.944C61.4621 2.464 61.4141 2.112 61.3181 1.888C61.2221 1.664 61.0461 1.512 60.7901 1.432C60.5501 1.336 60.1581 1.288 59.6141 1.288C59.5661 1.288 59.5421 1.24 59.5421 1.144C59.5421 1.048 59.5661 1 59.6141 1L60.8621 1.024C61.5661 1.056 62.1421 1.072 62.5901 1.072C63.0861 1.072 63.6861 1.056 64.3901 1.024L65.5901 1C65.6381 1 65.6621 1.048 65.6621 1.144C65.6621 1.24 65.6381 1.288 65.5901 1.288C65.0621 1.288 64.6701 1.336 64.4141 1.432C64.1741 1.528 64.0061 1.696 63.9101 1.936C63.8301 2.16 63.7901 2.512 63.7901 2.992V14.056ZM75.7869 3.544C75.7869 4.136 75.9309 4.664 76.2189 5.128C76.5229 5.576 76.8909 5.968 77.3229 6.304C77.7709 6.64 78.3709 7.04 79.1229 7.504C79.9389 8.016 80.5789 8.456 81.0429 8.824C81.5229 9.192 81.9229 9.648 82.2429 10.192C82.5789 10.72 82.7469 11.344 82.7469 12.064C82.7469 12.88 82.5309 13.608 82.0989 14.248C81.6829 14.888 81.0829 15.392 80.2989 15.76C79.5309 16.112 78.6509 16.288 77.6589 16.288C76.9869 16.288 76.2909 16.2 75.5709 16.024C74.8669 15.848 74.3309 15.632 73.9629 15.376C73.8189 15.28 73.7389 15.128 73.7229 14.92L73.5789 11.272V11.248C73.5789 11.184 73.6189 11.152 73.6989 11.152C73.7789 11.136 73.8269 11.16 73.8429 11.224C74.3709 12.552 74.9709 13.64 75.6429 14.488C76.3309 15.336 77.2029 15.76 78.2589 15.76C78.9469 15.76 79.5229 15.576 79.9869 15.208C80.4509 14.824 80.6829 14.192 80.6829 13.312C80.6829 12.608 80.5229 11.992 80.2029 11.464C79.8989 10.936 79.5149 10.496 79.0509 10.144C78.6029 9.792 77.9869 9.36 77.2029 8.848C76.4349 8.352 75.8349 7.936 75.4029 7.6C74.9709 7.248 74.6029 6.824 74.2989 6.328C73.9949 5.816 73.8429 5.224 73.8429 4.552C73.8429 3.72 74.0749 3.016 74.5389 2.44C75.0029 1.864 75.6029 1.44 76.3389 1.168C77.0909 0.879999 77.8749 0.735999 78.6909 0.735999C79.2349 0.735999 79.7789 0.791999 80.3229 0.904C80.8669 1 81.3229 1.128 81.6909 1.288C81.8349 1.336 81.9309 1.4 81.9789 1.48C82.0269 1.544 82.0509 1.632 82.0509 1.744L82.1229 5.008C82.1229 5.056 82.0749 5.096 81.9789 5.128C81.8989 5.144 81.8509 5.12 81.8349 5.056C81.5149 4.08 81.0829 3.2 80.5389 2.416C80.0109 1.616 79.2109 1.216 78.1389 1.216C77.4189 1.216 76.8429 1.424 76.4109 1.84C75.9949 2.256 75.7869 2.824 75.7869 3.544ZM106.671 15.712C106.719 15.712 106.743 15.76 106.743 15.856C106.743 15.952 106.719 16 106.671 16C106.127 16 105.687 15.992 105.351 15.976L103.599 15.952L101.559 15.976C101.271 15.992 100.887 16 100.407 16C100.359 16 100.335 15.952 100.335 15.856C100.335 15.76 100.359 15.712 100.407 15.712C101.015 15.712 101.455 15.672 101.727 15.592C101.999 15.512 102.183 15.36 102.279 15.136C102.375 14.912 102.423 14.552 102.423 14.056V8.512H94.191V14.056C94.191 14.536 94.239 14.896 94.335 15.136C94.431 15.36 94.615 15.512 94.887 15.592C95.175 15.672 95.623 15.712 96.231 15.712C96.263 15.712 96.279 15.76 96.279 15.856C96.279 15.952 96.263 16 96.231 16C95.687 16 95.263 15.992 94.959 15.976L92.967 15.952L91.215 15.976C90.911 15.992 90.487 16 89.943 16C89.911 16 89.895 15.952 89.895 15.856C89.895 15.76 89.911 15.712 89.943 15.712C90.519 15.712 90.943 15.672 91.215 15.592C91.487 15.512 91.671 15.36 91.767 15.136C91.863 14.896 91.911 14.536 91.911 14.056V2.944C91.911 2.464 91.863 2.112 91.767 1.888C91.671 1.664 91.487 1.512 91.215 1.432C90.943 1.336 90.527 1.288 89.967 1.288C89.935 1.288 89.919 1.24 89.919 1.144C89.919 1.048 89.935 1 89.967 1L91.239 1.024C91.975 1.056 92.551 1.072 92.967 1.072C93.527 1.072 94.191 1.056 94.959 1.024L96.231 1C96.263 1 96.279 1.048 96.279 1.144C96.279 1.24 96.263 1.288 96.231 1.288C95.639 1.288 95.199 1.336 94.911 1.432C94.639 1.528 94.447 1.696 94.335 1.936C94.239 2.16 94.191 2.512 94.191 2.992V7.888H102.423V2.992C102.423 2.512 102.375 2.16 102.279 1.936C102.183 1.696 101.991 1.528 101.703 1.432C101.431 1.336 100.999 1.288 100.407 1.288C100.359 1.288 100.335 1.24 100.335 1.144C100.335 1.048 100.359 1 100.407 1L101.559 1.024C102.327 1.056 103.007 1.072 103.599 1.072C104.031 1.072 104.615 1.056 105.351 1.024L106.671 1C106.719 1 106.743 1.048 106.743 1.144C106.743 1.24 106.719 1.288 106.671 1.288C106.095 1.288 105.671 1.336 105.399 1.432C105.143 1.512 104.967 1.664 104.871 1.888C104.775 2.112 104.727 2.464 104.727 2.944V14.056C104.727 14.536 104.775 14.896 104.871 15.136C104.967 15.36 105.143 15.512 105.399 15.592C105.671 15.672 106.095 15.712 106.671 15.712ZM131.825 7.576C133.137 7.72 134.185 8.16 134.969 8.896C135.753 9.632 136.145 10.544 136.145 11.632C136.145 12.464 135.913 13.224 135.449 13.912C135.001 14.584 134.369 15.12 133.553 15.52C132.753 15.904 131.857 16.096 130.865 16.096C130.401 16.096 129.865 16.072 129.257 16.024C129.049 16.008 128.785 15.992 128.465 15.976C128.145 15.96 127.785 15.952 127.385 15.952L125.657 15.976C125.353 15.992 124.937 16 124.409 16C124.361 16 124.337 15.952 124.337 15.856C124.337 15.76 124.361 15.712 124.409 15.712C124.921 15.712 125.305 15.672 125.561 15.592C125.817 15.496 125.993 15.336 126.089 15.112C126.201 14.888 126.257 14.536 126.257 14.056V2.944C126.257 2.48 126.201 2.136 126.089 1.912C125.993 1.672 125.817 1.512 125.561 1.432C125.321 1.336 124.945 1.288 124.433 1.288C124.401 1.288 124.385 1.24 124.385 1.144C124.385 1.048 124.401 1 124.433 1L125.681 1.024C126.385 1.056 126.953 1.072 127.385 1.072C127.833 1.072 128.305 1.048 128.801 1C128.977 0.983999 129.185 0.967999 129.425 0.951999C129.681 0.935999 129.969 0.927999 130.289 0.927999C131.713 0.927999 132.801 1.208 133.553 1.768C134.321 2.312 134.705 3.072 134.705 4.048C134.705 4.8 134.449 5.488 133.937 6.112C133.441 6.736 132.737 7.224 131.825 7.576ZM129.881 1.408C129.369 1.408 129.017 1.512 128.825 1.72C128.649 1.928 128.561 2.352 128.561 2.992V7.552L129.569 7.576C130.513 7.576 131.225 7.272 131.705 6.664C132.185 6.04 132.425 5.24 132.425 4.264C132.425 3.352 132.209 2.648 131.777 2.152C131.345 1.656 130.713 1.408 129.881 1.408ZM130.481 15.544C132.641 15.544 133.721 14.432 133.721 12.208C133.721 10.992 133.401 10.016 132.761 9.28C132.137 8.544 131.217 8.176 130.001 8.176C129.425 8.176 128.945 8.192 128.561 8.224V14.056C128.561 14.424 128.609 14.712 128.705 14.92C128.801 15.128 128.985 15.288 129.257 15.4C129.529 15.496 129.937 15.544 130.481 15.544ZM159.329 15.712C159.377 15.712 159.401 15.76 159.401 15.856C159.401 15.952 159.377 16 159.329 16H155.465C155.097 16 154.409 15.336 153.401 14.008C152.409 12.664 151.193 10.792 149.753 8.392C149.497 8.44 149.233 8.464 148.961 8.464C148.369 8.464 147.953 8.456 147.713 8.44V14.056C147.713 14.552 147.753 14.912 147.833 15.136C147.929 15.36 148.097 15.512 148.337 15.592C148.593 15.672 148.993 15.712 149.537 15.712C149.569 15.712 149.585 15.76 149.585 15.856C149.585 15.952 149.569 16 149.537 16C149.009 16 148.601 15.992 148.313 15.976L146.537 15.952L144.809 15.976C144.505 15.992 144.089 16 143.561 16C143.513 16 143.489 15.952 143.489 15.856C143.489 15.76 143.513 15.712 143.561 15.712C144.105 15.712 144.497 15.672 144.737 15.592C144.993 15.512 145.169 15.36 145.265 15.136C145.361 14.896 145.409 14.536 145.409 14.056V2.944C145.409 2.464 145.361 2.112 145.265 1.888C145.185 1.664 145.017 1.512 144.761 1.432C144.505 1.336 144.113 1.288 143.585 1.288C143.553 1.288 143.537 1.24 143.537 1.144C143.537 1.048 143.553 1 143.585 1L144.833 1.024C145.537 1.056 146.105 1.072 146.537 1.072C147.017 1.072 147.521 1.048 148.049 1C148.241 0.983999 148.473 0.967999 148.745 0.951999C149.017 0.935999 149.313 0.927999 149.633 0.927999C151.057 0.927999 152.153 1.192 152.921 1.72C153.689 2.248 154.073 2.992 154.073 3.952C154.073 4.704 153.849 5.416 153.401 6.088C152.953 6.76 152.369 7.304 151.649 7.72C152.961 9.736 154.057 11.32 154.937 12.472C155.833 13.608 156.625 14.432 157.313 14.944C158.001 15.456 158.673 15.712 159.329 15.712ZM147.713 7.768C148.097 7.832 148.561 7.864 149.105 7.864C150.065 7.864 150.737 7.648 151.121 7.216C151.505 6.784 151.697 5.992 151.697 4.84C151.697 3.544 151.481 2.648 151.049 2.152C150.617 1.64 150.009 1.384 149.225 1.384C148.649 1.384 148.249 1.496 148.025 1.72C147.817 1.944 147.713 2.368 147.713 2.992V7.768ZM169.516 14.056C169.516 14.552 169.556 14.912 169.636 15.136C169.716 15.36 169.876 15.512 170.116 15.592C170.372 15.672 170.772 15.712 171.316 15.712C171.364 15.712 171.388 15.76 171.388 15.856C171.388 15.952 171.364 16 171.316 16C170.804 16 170.396 15.992 170.092 15.976L168.316 15.952L166.588 15.976C166.284 15.992 165.868 16 165.34 16C165.292 16 165.268 15.952 165.268 15.856C165.268 15.76 165.292 15.712 165.34 15.712C165.884 15.712 166.276 15.672 166.516 15.592C166.772 15.512 166.948 15.36 167.044 15.136C167.14 14.896 167.188 14.536 167.188 14.056V2.944C167.188 2.464 167.14 2.112 167.044 1.888C166.948 1.664 166.772 1.512 166.516 1.432C166.276 1.336 165.884 1.288 165.34 1.288C165.292 1.288 165.268 1.24 165.268 1.144C165.268 1.048 165.292 1 165.34 1L166.588 1.024C167.292 1.056 167.868 1.072 168.316 1.072C168.812 1.072 169.412 1.056 170.116 1.024L171.316 1C171.364 1 171.388 1.048 171.388 1.144C171.388 1.24 171.364 1.288 171.316 1.288C170.788 1.288 170.396 1.336 170.14 1.432C169.9 1.528 169.732 1.696 169.636 1.936C169.556 2.16 169.516 2.512 169.516 2.992V14.056ZM185.209 16.096C184.713 16.096 184.137 16.072 183.481 16.024C183.241 16.008 182.937 15.992 182.569 15.976C182.201 15.96 181.785 15.952 181.321 15.952L179.617 15.976C179.313 15.992 178.889 16 178.345 16C178.313 16 178.297 15.952 178.297 15.856C178.297 15.76 178.313 15.712 178.345 15.712C178.889 15.712 179.281 15.672 179.521 15.592C179.777 15.512 179.953 15.36 180.049 15.136C180.145 14.896 180.193 14.536 180.193 14.056V2.944C180.193 2.464 180.145 2.112 180.049 1.888C179.969 1.664 179.801 1.512 179.545 1.432C179.289 1.336 178.897 1.288 178.369 1.288C178.337 1.288 178.321 1.24 178.321 1.144C178.321 1.048 178.337 1 178.369 1L179.641 1.024C180.345 1.056 180.905 1.072 181.321 1.072C181.961 1.072 182.609 1.048 183.265 1C184.065 0.967999 184.601 0.951999 184.873 0.951999C186.505 0.951999 187.953 1.272 189.217 1.912C190.481 2.552 191.457 3.424 192.145 4.528C192.849 5.632 193.201 6.872 193.201 8.248C193.201 9.8 192.841 11.176 192.121 12.376C191.401 13.56 190.433 14.48 189.217 15.136C188.001 15.776 186.665 16.096 185.209 16.096ZM184.969 15.616C186.073 15.616 187.049 15.352 187.897 14.824C188.761 14.296 189.433 13.52 189.913 12.496C190.393 11.456 190.633 10.216 190.633 8.776C190.633 7.4 190.401 6.16 189.937 5.056C189.489 3.936 188.849 3.056 188.017 2.416C187.185 1.76 186.217 1.432 185.113 1.432C184.441 1.432 183.921 1.472 183.553 1.552C183.185 1.632 182.913 1.784 182.737 2.008C182.577 2.216 182.497 2.544 182.497 2.992V13.792C182.497 14.448 182.665 14.92 183.001 15.208C183.337 15.48 183.993 15.616 184.969 15.616ZM211.277 12.256C211.277 12.224 211.309 12.208 211.373 12.208C211.421 12.208 211.461 12.224 211.493 12.256C211.541 12.272 211.565 12.288 211.565 12.304C211.405 13.52 211.325 14.632 211.325 15.64C211.325 15.768 211.301 15.864 211.253 15.928C211.205 15.976 211.109 16 210.965 16H200.549C200.501 16 200.477 15.952 200.477 15.856C200.477 15.76 200.501 15.712 200.549 15.712C201.093 15.712 201.485 15.672 201.725 15.592C201.981 15.512 202.149 15.36 202.229 15.136C202.325 14.896 202.373 14.536 202.373 14.056V2.944C202.373 2.464 202.325 2.112 202.229 1.888C202.149 1.664 201.981 1.512 201.725 1.432C201.469 1.336 201.077 1.288 200.549 1.288C200.501 1.288 200.477 1.24 200.477 1.144C200.477 1.048 200.501 1 200.549 1H210.533C210.693 1 210.773 1.072 210.773 1.216L210.821 4.336C210.821 4.368 210.773 4.392 210.677 4.408C210.597 4.424 210.549 4.408 210.533 4.36C210.149 2.536 209.037 1.624 207.197 1.624H206.237C205.661 1.624 205.253 1.728 205.013 1.936C204.773 2.144 204.653 2.496 204.653 2.992V7.888H206.957C208.717 7.888 209.597 7.296 209.597 6.112C209.597 6.064 209.637 6.04 209.717 6.04C209.813 6.04 209.861 6.064 209.861 6.112L209.837 8.2L209.861 9.328C209.893 9.84 209.909 10.256 209.909 10.576C209.909 10.608 209.861 10.624 209.765 10.624C209.669 10.624 209.621 10.608 209.621 10.576C209.621 9.2 208.725 8.512 206.933 8.512H204.653V13.96C204.653 14.488 204.749 14.856 204.941 15.064C205.149 15.272 205.509 15.376 206.021 15.376H207.197C209.341 15.376 210.701 14.336 211.277 12.256ZM221.762 3.544C221.762 4.136 221.906 4.664 222.194 5.128C222.498 5.576 222.866 5.968 223.298 6.304C223.746 6.64 224.346 7.04 225.098 7.504C225.914 8.016 226.554 8.456 227.018 8.824C227.498 9.192 227.898 9.648 228.218 10.192C228.554 10.72 228.722 11.344 228.722 12.064C228.722 12.88 228.506 13.608 228.074 14.248C227.658 14.888 227.058 15.392 226.274 15.76C225.506 16.112 224.626 16.288 223.634 16.288C222.962 16.288 222.266 16.2 221.546 16.024C220.842 15.848 220.306 15.632 219.938 15.376C219.794 15.28 219.714 15.128 219.698 14.92L219.554 11.272V11.248C219.554 11.184 219.594 11.152 219.674 11.152C219.754 11.136 219.802 11.16 219.818 11.224C220.346 12.552 220.946 13.64 221.618 14.488C222.306 15.336 223.178 15.76 224.234 15.76C224.922 15.76 225.498 15.576 225.962 15.208C226.426 14.824 226.658 14.192 226.658 13.312C226.658 12.608 226.498 11.992 226.178 11.464C225.874 10.936 225.49 10.496 225.026 10.144C224.578 9.792 223.962 9.36 223.178 8.848C222.41 8.352 221.81 7.936 221.378 7.6C220.946 7.248 220.578 6.824 220.274 6.328C219.97 5.816 219.818 5.224 219.818 4.552C219.818 3.72 220.05 3.016 220.514 2.44C220.978 1.864 221.578 1.44 222.314 1.168C223.066 0.879999 223.85 0.735999 224.666 0.735999C225.21 0.735999 225.754 0.791999 226.298 0.904C226.842 1 227.298 1.128 227.666 1.288C227.81 1.336 227.906 1.4 227.954 1.48C228.002 1.544 228.026 1.632 228.026 1.744L228.098 5.008C228.098 5.056 228.05 5.096 227.954 5.128C227.874 5.144 227.826 5.12 227.81 5.056C227.49 4.08 227.058 3.2 226.514 2.416C225.986 1.616 225.186 1.216 224.114 1.216C223.394 1.216 222.818 1.424 222.386 1.84C221.97 2.256 221.762 2.824 221.762 3.544Z" fill="#F5F5F5"/>
</svg>
