<svg width="25" height="20" viewBox="0 0 25 20" fill="none" xmlns="http://www.w3.org/2000/svg">
<path opacity="0.5" d="M20.625 16.625H18.5625V17.0547C18.5625 17.2266 18.4336 17.3125 18.3047 17.3125H2.32031C2.14844 17.3125 2.0625 17.2266 2.0625 17.0547V6.57031C2.0625 6.44141 2.14844 6.3125 2.32031 6.3125H2.75V4.25H2.0625C0.902344 4.25 0 5.19531 0 6.3125V17.3125C0 18.4727 0.902344 19.375 2.0625 19.375H18.5625C19.6797 19.375 20.625 18.4727 20.625 17.3125V16.625ZM22.4297 2.1875C22.5586 2.1875 22.6875 2.31641 22.6875 2.44531V12.9297C22.6875 13.1016 22.5586 13.1875 22.4297 13.1875H6.44531C6.27344 13.1875 6.1875 13.1016 6.1875 12.9297V2.44531C6.1875 2.31641 6.27344 2.1875 6.44531 2.1875H22.4297ZM22.6875 0.125H6.1875C5.02734 0.125 4.125 1.07031 4.125 2.1875V13.1875C4.125 14.3477 5.02734 15.25 6.1875 15.25H22.6875C23.8047 15.25 24.75 14.3477 24.75 13.1875V2.1875C24.75 1.07031 23.8047 0.125 22.6875 0.125ZM11.3438 4.9375C11.3438 3.99219 10.5703 3.21875 9.625 3.21875C8.63672 3.21875 7.90625 3.99219 7.90625 4.9375C7.90625 5.92578 8.63672 6.65625 9.625 6.65625C10.5703 6.65625 11.3438 5.92578 11.3438 4.9375ZM8.25 9.0625V11.125H20.625V7.6875L17.5312 4.63672C17.3164 4.42188 17.0156 4.42188 16.8008 4.63672L12.375 9.0625L10.6562 7.38672C10.4414 7.17188 10.1406 7.17188 9.92578 7.38672L8.25 9.0625Z" fill="#C5C5C5"/>
</svg>
