<svg width="16" height="16" viewBox="0 0 16 16" fill="none" xmlns="http://www.w3.org/2000/svg">
<path d="M1 6.83333H5.66667C6.311 6.83333 6.83333 6.311 6.83333 5.66667V2.16667C6.83333 1.52233 6.311 1 5.66667 1H2.16667C1.52233 1 1 1.52233 1 2.16667V6.83333ZM1 6.83333V10.9167C1 13.1718 2.82817 15 5.08333 15M9.16667 6.83333H13.8333C14.4777 6.83333 15 6.311 15 5.66667V2.16667C15 1.52233 14.4777 1 13.8333 1H10.3333C9.689 1 9.16667 1.52233 9.16667 2.16667V6.83333ZM9.16667 6.83333V10.9167C9.16667 13.1718 10.9948 15 13.25 15" stroke="#7F7F7F" stroke-width="1.5"/>
</svg>
