<svg width="30" height="30" viewBox="0 0 30 30" fill="none" xmlns="http://www.w3.org/2000/svg">
<path d="M8 13.8333H12.6667C13.311 13.8333 13.8333 13.311 13.8333 12.6667V9.16667C13.8333 8.52233 13.311 8 12.6667 8H9.16667C8.52233 8 8 8.52233 8 9.16667V13.8333ZM8 13.8333V17.9167C8 20.1718 9.82817 22 12.0833 22M16.1667 13.8333H20.8333C21.4777 13.8333 22 13.311 22 12.6667V9.16667C22 8.52233 21.4777 8 20.8333 8H17.3333C16.689 8 16.1667 8.52233 16.1667 9.16667V13.8333ZM16.1667 13.8333V17.9167C16.1667 20.1718 17.9948 22 20.25 22" stroke="#7F7F7F" stroke-width="1.5"/>
</svg>
