<svg width="17" height="19" viewBox="0 0 17 19" fill="none" xmlns="http://www.w3.org/2000/svg">
<path d="M10.2773 15.5894H11.1211C11.332 15.5894 11.543 15.4136 11.543 15.1675V7.57373C11.543 7.36279 11.332 7.15186 11.1211 7.15186H10.2773C10.0312 7.15186 9.85547 7.36279 9.85547 7.57373V15.1675C9.85547 15.4136 10.0312 15.5894 10.2773 15.5894ZM16.043 3.77686H13.125L11.9297 1.80811C11.6484 1.31592 11.0859 0.964355 10.4883 0.964355H6.9375C6.33984 0.964355 5.77734 1.31592 5.49609 1.80811L4.30078 3.77686H1.41797C1.10156 3.77686 0.855469 4.05811 0.855469 4.33936V4.90186C0.855469 5.21826 1.10156 5.46436 1.41797 5.46436H1.98047V17.2769C1.98047 18.2261 2.71875 18.9644 3.66797 18.9644H13.793C14.707 18.9644 15.4805 18.2261 15.4805 17.2769V5.46436H16.043C16.3242 5.46436 16.6055 5.21826 16.6055 4.90186V4.33936C16.6055 4.05811 16.3242 3.77686 16.043 3.77686ZM6.86719 2.75732C6.90234 2.72217 6.97266 2.65186 7.04297 2.65186C7.04297 2.65186 7.04297 2.65186 7.07812 2.65186H10.3828C10.4531 2.65186 10.5234 2.72217 10.5586 2.75732L11.1562 3.77686H6.26953L6.86719 2.75732ZM13.793 17.2769H3.66797V5.46436H13.793V17.2769ZM6.33984 15.5894H7.18359C7.39453 15.5894 7.60547 15.4136 7.60547 15.1675V7.57373C7.60547 7.36279 7.39453 7.15186 7.18359 7.15186H6.33984C6.09375 7.15186 5.91797 7.36279 5.91797 7.57373V15.1675C5.91797 15.4136 6.09375 15.5894 6.33984 15.5894Z" fill="#C7C7C7"/>
</svg>
