<svg width="18" height="18" viewBox="0 0 18 18" fill="none" xmlns="http://www.w3.org/2000/svg">
<path fill-rule="evenodd" clip-rule="evenodd" d="M7.22171 1L7.12343 1.49942L6.74744 3.32685C6.14629 3.55656 5.60114 3.8823 5.10857 4.26859L3.27086 3.65372L2.77715 3.50058L2.52115 3.94171L1.256 6.05825L1 6.49946L1.37486 6.82745L2.79658 8.0377C2.74515 8.35428 2.67887 8.66739 2.67887 8.99996C2.67887 9.33254 2.74515 9.64572 2.79658 9.96229L1.37486 11.1726L1 11.5005L1.256 11.9417L2.52115 14.0583L2.77715 14.5005L3.27086 14.3463L5.10857 13.7314C5.60114 14.1177 6.14629 14.4434 6.74744 14.6731L7.12343 16.5005L7.22171 17H10.7772L10.8766 16.5005L11.2514 14.6731C11.8526 14.4434 12.3977 14.1177 12.8903 13.7314L14.728 14.3463L15.2217 14.5005L15.4789 14.0583L16.7429 11.9417L17 11.5005L16.624 11.1726L15.2023 9.96229C15.2549 9.64572 15.32 9.33254 15.32 8.99996C15.32 8.66739 15.2549 8.35428 15.2023 8.0377L16.624 6.82745L17 6.49946L16.7429 6.05825L15.4789 3.94171L15.2217 3.50058L14.728 3.65372L12.8903 4.26859C12.3977 3.8823 11.8526 3.55656 11.2514 3.32685L10.8766 1.49942L10.7772 1H7.22171Z" stroke="#F5F5F5" stroke-width="1.5" stroke-linecap="square"/>
<path fill-rule="evenodd" clip-rule="evenodd" d="M11.2853 8.99996C11.2853 10.2617 10.2613 11.2857 8.99958 11.2857C7.73787 11.2857 6.71387 10.2617 6.71387 8.99996C6.71387 7.73825 7.73787 6.7143 8.99958 6.7143C10.2613 6.7143 11.2853 7.73825 11.2853 8.99996Z" stroke="#F5F5F5" stroke-width="1.5" stroke-linecap="square"/>
</svg>
