<svg width="18" height="18" viewBox="0 0 18 18" fill="none" xmlns="http://www.w3.org/2000/svg">
<path d="M5.57143 3H3.85714C3.38376 3 3 3.38376 3 3.85714V14.1429C3 14.6162 3.38376 15 3.85714 15H14.1429C14.6162 15 15 14.6162 15 14.1429V12.4286" stroke="#C7C7C7" stroke-width="1.5"/>
<path d="M3.57143 5H1.85714C1.38376 5 1 5.38376 1 5.85714V16.1429C1 16.6162 1.38376 17 1.85714 17H12.1429C12.6162 17 13 16.6162 13 16.1429V14.4286" stroke="#C7C7C7" stroke-width="1.5"/>
<path d="M13.1429 3.57143H14M17 8.70869L14.4286 6.13894L11.8571 8.70869L8.42857 4.42577L5 8.71428M5.85714 1H16.1429C16.6162 1 17 1.38376 17 1.85714V12.1429C17 12.6162 16.6162 13 16.1429 13H5.85714C5.38376 13 5 12.6162 5 12.1429V1.85714C5 1.38376 5.38376 1 5.85714 1Z" stroke="#C7C7C7" stroke-width="1.5"/>
</svg>
