<svg width="19" height="19" viewBox="0 0 19 19" fill="none" xmlns="http://www.w3.org/2000/svg">
<path d="M3.57143 6H1.85714C1.38376 6 1 6.38376 1 6.85714V17.1429C1 17.6162 1.38376 18 1.85714 18H12.1429C12.6162 18 13 17.6162 13 17.1429V15.4286" stroke="#C7C7C7" stroke-width="1.5"/>
<path d="M13.5 4H14.5M18 9.99347L15 6.99543L12 9.99347L8 4.99673L4 9.99999M5 1H17C17.5523 1 18 1.44772 18 2V14C18 14.5523 17.5523 15 17 15H5C4.44772 15 4 14.5523 4 14V2C4 1.44772 4.44772 1 5 1Z" stroke="#C7C7C7" stroke-width="1.5"/>
</svg>
