<svg width="18" height="18" viewBox="0 0 18 18" fill="none" xmlns="http://www.w3.org/2000/svg">
<path d="M14.1429 17H17V15.2857C17 13.7078 15.7208 12.4286 14.1429 12.4286M10.1429 4.42634C10.1429 6.31882 8.608 7.85267 6.71429 7.85267C4.82057 7.85267 3.28571 6.31882 3.28571 4.42634C3.28571 2.53386 4.82057 1 6.71429 1C8.608 1 10.1429 2.53386 10.1429 4.42634ZM12.4286 16.9896H1C1 16.1781 1 15.4061 1 14.707C1 12.8135 2.53502 11.279 4.42857 11.279H9C10.8935 11.279 12.4286 12.8135 12.4286 14.707C12.4286 15.4061 12.4286 16.1781 12.4286 16.9896ZM13.5714 10.1429C12.3091 10.1429 11.2857 9.11951 11.2857 7.85714C11.2857 6.59478 12.3091 5.57143 13.5714 5.57143C14.8338 5.57143 15.8571 6.59478 15.8571 7.85714C15.8571 9.11951 14.8338 10.1429 13.5714 10.1429Z" stroke="#F5F5F5" stroke-width="1.5" stroke-linecap="square"/>
</svg>
