<svg width="55" height="55" viewBox="0 0 55 55" fill="none" xmlns="http://www.w3.org/2000/svg">
<path d="M0 8.25V2.75H0.5V0.5H2.29167V0H6.875V0.5H11.4583V0H16.0417V0.5H20.625V0H25.2083V0.5H29.7917V0H34.375V0.5H38.9583V0H43.5417V0.5H48.125V0H52.7083V0.5H54.5V2.75H55V8.25H54.5V13.75H55V19.25H54.5V24.75H55V30.25H54.5V35.75H55V41.25H54.5V46.75H55V52.25H54.5V54.5H52.7083V55H48.125V54.5H43.5417V55H38.9583V54.5H34.375V55H29.7917V54.5H25.2083V55H20.625V54.5H16.0417V55H11.4583V54.5H6.875V55H2.29167V54.5H0.5V52.25H0V46.75H0.5V41.25H0V35.75H0.5V30.25H0V24.75H0.5V19.25H0V13.75H0.5V8.25H0Z" stroke="#E0E0E0" stroke-dasharray="5 5"/>
<rect x="11" y="1" width="33" height="53" stroke="#E0E0E0" stroke-width="2"/>
<path d="M25 24L25.5303 23.4697C25.2374 23.1768 24.7626 23.1768 24.4697 23.4697L25 24ZM22 21.75H34V20.25H22V21.75ZM34.25 22V34H35.75V22H34.25ZM34 34.25H22V35.75H34V34.25ZM21.75 34V22H20.25V34H21.75ZM22 34.25C21.8619 34.25 21.75 34.1381 21.75 34H20.25C20.25 34.9665 21.0335 35.75 22 35.75V34.25ZM34.25 34C34.25 34.1381 34.1381 34.25 34 34.25V35.75C34.9665 35.75 35.75 34.9665 35.75 34H34.25ZM34 21.75C34.1381 21.75 34.25 21.8619 34.25 22H35.75C35.75 21.0335 34.9665 20.25 34 20.25V21.75ZM22 20.25C21.0335 20.25 20.25 21.0335 20.25 22H21.75C21.75 21.8619 21.8619 21.75 22 21.75V20.25ZM21 31.75H35V30.25H21V31.75ZM21.5303 28.5303L25.5303 24.5303L24.4697 23.4697L20.4697 27.4697L21.5303 28.5303ZM24.4697 24.5303L31.4697 31.5303L32.5303 30.4697L25.5303 23.4697L24.4697 24.5303ZM31 25.25C30.8619 25.25 30.75 25.1381 30.75 25H29.25C29.25 25.9665 30.0335 26.75 31 26.75V25.25ZM31.25 25C31.25 25.1381 31.1381 25.25 31 25.25V26.75C31.9665 26.75 32.75 25.9665 32.75 25H31.25ZM31 24.75C31.1381 24.75 31.25 24.8619 31.25 25H32.75C32.75 24.0335 31.9665 23.25 31 23.25V24.75ZM31 23.25C30.0335 23.25 29.25 24.0335 29.25 25H30.75C30.75 24.8619 30.8619 24.75 31 24.75V23.25Z" fill="#E0E0E0"/>
</svg>
