<svg width="19" height="15" viewBox="0 0 19 15" fill="none" xmlns="http://www.w3.org/2000/svg">
<path d="M1 7.5L0.297436 7.2375C0.234188 7.40679 0.234188 7.59321 0.297436 7.76249L1 7.5ZM18 7.5L18.7026 7.7625C18.7658 7.59321 18.7658 7.40679 18.7026 7.2375L18 7.5ZM9.49998 13.25C6.76379 13.25 4.83019 11.7934 3.5473 10.2674C2.90682 9.50551 2.44184 8.74032 2.1372 8.16477C1.98533 7.87783 1.87451 7.64032 1.80261 7.47705C1.76669 7.39547 1.74057 7.33261 1.72397 7.2916C1.71567 7.27111 1.70976 7.25608 1.7062 7.24693C1.70442 7.24236 1.70323 7.23925 1.70263 7.23766C1.70233 7.23687 1.70217 7.23645 1.70216 7.23643C1.70215 7.23641 1.70219 7.23649 1.70225 7.23667C1.70229 7.23676 1.70236 7.23697 1.70238 7.23702C1.70247 7.23725 1.70256 7.2375 1 7.5C0.297436 7.76249 0.29755 7.7628 0.297674 7.76313C0.297728 7.76328 0.297862 7.76363 0.297969 7.76392C0.298185 7.76449 0.298439 7.76517 0.298731 7.76594C0.299314 7.76749 0.300049 7.76943 0.300937 7.77176C0.302713 7.77642 0.305099 7.78264 0.308101 7.79036C0.314105 7.8058 0.322573 7.82728 0.333545 7.85439C0.355485 7.9086 0.387468 7.98539 0.429811 8.08155C0.51444 8.27374 0.640786 8.54404 0.811456 8.86648C1.1519 9.50968 1.67352 10.3695 2.39911 11.2326C3.84836 12.9566 6.16474 14.75 9.49998 14.75V13.25ZM1 7.5C1.70256 7.76249 1.70247 7.76275 1.70238 7.76298C1.70236 7.76303 1.70229 7.76324 1.70225 7.76333C1.70219 7.76351 1.70215 7.76359 1.70216 7.76357C1.70217 7.76355 1.70233 7.76313 1.70263 7.76234C1.70323 7.76075 1.70442 7.75764 1.7062 7.75307C1.70976 7.74391 1.71567 7.72889 1.72397 7.70839C1.74057 7.66738 1.76669 7.60453 1.80261 7.52295C1.87451 7.35968 1.98533 7.12216 2.1372 6.83523C2.44184 6.25968 2.90682 5.49449 3.5473 4.73261C4.83019 3.20656 6.76379 1.75 9.49998 1.75V0.25C6.16474 0.25 3.84836 2.04344 2.39911 3.76738C1.67352 4.63051 1.1519 5.49032 0.811456 6.13352C0.640786 6.45596 0.51444 6.72626 0.429811 6.91845C0.387468 7.01461 0.355485 7.0914 0.333545 7.14561C0.322573 7.17272 0.314105 7.1942 0.308101 7.20964C0.305099 7.21736 0.302713 7.22358 0.300937 7.22824C0.300049 7.23057 0.299314 7.23251 0.298731 7.23406C0.298439 7.23483 0.298185 7.23551 0.297969 7.23608C0.297862 7.23637 0.297728 7.23672 0.297674 7.23687C0.29755 7.2372 0.297436 7.2375 1 7.5ZM9.49998 1.75C12.2362 1.75 14.1698 3.20656 15.4527 4.73262C16.0932 5.49449 16.5582 6.25968 16.8628 6.83524C17.0147 7.12217 17.1255 7.35968 17.1974 7.52296C17.2333 7.60453 17.2594 7.66739 17.276 7.7084C17.2843 7.7289 17.2902 7.74392 17.2938 7.75307C17.2956 7.75765 17.2968 7.76075 17.2974 7.76234C17.2977 7.76313 17.2978 7.76355 17.2978 7.76358C17.2978 7.76359 17.2978 7.76351 17.2977 7.76333C17.2977 7.76324 17.2976 7.76303 17.2976 7.76299C17.2975 7.76275 17.2974 7.7625 18 7.5C18.7026 7.2375 18.7024 7.2372 18.7023 7.23686C18.7023 7.23672 18.7021 7.23636 18.702 7.23608C18.7018 7.2355 18.7016 7.23483 18.7013 7.23405C18.7007 7.23251 18.6999 7.23057 18.6991 7.22824C18.6973 7.22358 18.6949 7.21736 18.6919 7.20964C18.6859 7.19419 18.6774 7.17271 18.6665 7.14561C18.6445 7.0914 18.6125 7.01461 18.5702 6.91845C18.4856 6.72626 18.3592 6.45596 18.1885 6.13351C17.8481 5.49032 17.3265 4.63051 16.6009 3.76738C15.1516 2.04344 12.8352 0.25 9.49998 0.25V1.75ZM18 7.5C17.2974 7.2375 17.2975 7.23725 17.2976 7.23701C17.2976 7.23697 17.2977 7.23676 17.2977 7.23667C17.2978 7.23649 17.2978 7.23641 17.2978 7.23642C17.2978 7.23645 17.2977 7.23687 17.2974 7.23766C17.2968 7.23925 17.2956 7.24235 17.2938 7.24693C17.2902 7.25608 17.2843 7.2711 17.276 7.2916C17.2594 7.33261 17.2333 7.39547 17.1974 7.47704C17.1255 7.64032 17.0147 7.87783 16.8628 8.16476C16.5582 8.74032 16.0932 9.50551 15.4527 10.2674C14.1698 11.7934 12.2362 13.25 9.49998 13.25V14.75C12.8352 14.75 15.1516 12.9566 16.6009 11.2326C17.3265 10.3695 17.8481 9.50968 18.1885 8.86649C18.3592 8.54404 18.4856 8.27374 18.5702 8.08155C18.6125 7.98539 18.6445 7.9086 18.6665 7.85439C18.6774 7.82729 18.6859 7.80581 18.6919 7.79036C18.6949 7.78264 18.6973 7.77642 18.6991 7.77176C18.6999 7.76943 18.7007 7.76749 18.7013 7.76594C18.7016 7.76517 18.7018 7.7645 18.702 7.76392C18.7021 7.76364 18.7023 7.76328 18.7023 7.76314C18.7024 7.7628 18.7026 7.7625 18 7.5ZM9.5 9.35C8.62031 9.35 7.82143 8.57073 7.82143 7.5H6.32143C6.32143 9.30115 7.69716 10.85 9.5 10.85V9.35ZM11.1786 7.5C11.1786 8.57073 10.3797 9.35 9.5 9.35V10.85C11.3028 10.85 12.6786 9.30115 12.6786 7.5H11.1786ZM9.5 5.65C10.3797 5.65 11.1786 6.42927 11.1786 7.5H12.6786C12.6786 5.69885 11.3028 4.15 9.5 4.15V5.65ZM9.5 4.15C7.69716 4.15 6.32143 5.69885 6.32143 7.5H7.82143C7.82143 6.42927 8.62031 5.65 9.5 5.65V4.15Z" fill="#C7C7C7"/>
</svg>
